Prestige Elite Bold.ufo
<glyph name="exclam" format="1">
  <advance width="600"/>
  <unicode hex="0021"/>
  <outline>
    <contour>
      <point x="325" y="154" type="line"/>
      <point x="275" y="154" type="line"/>
      <point x="240" y="558" type="line" smooth="yes"/>
      <point x="237" y="590"/>
      <point x="269" y="612"/>
      <point x="300" y="612" type="curve" smooth="yes"/>
      <point x="331" y="612"/>
      <point x="363" y="590"/>
      <point x="360" y="558" type="curve" smooth="yes"/>
    </contour>
    <contour>
      <point x="241" y="45" type="curve" smooth="yes"/>
      <point x="241" y="77"/>
      <point x="269" y="102"/>
      <point x="300" y="102" type="curve" smooth="yes"/>
      <point x="331" y="102"/>
      <point x="359" y="77"/>
      <point x="359" y="45" type="curve" smooth="yes"/>
      <point x="359" y="13"/>
      <point x="332" y="-12"/>
      <point x="300" y="-12" type="curve" smooth="yes"/>
      <point x="268" y="-12"/>
      <point x="241" y="13"/>
    </contour>
  </outline>
</glyph>
<glyph name="quotedbl" format="1">
  <advance width="600"/>
  <unicode hex="0022"/>
  <outline>
    <contour>
      <point x="218" y="315" type="line"/>
      <point x="166" y="315" type="line"/>
      <point x="138" y="498" type="line" smooth="yes"/>
      <point x="135" y="520"/>
      <point x="130" y="556"/>
      <point x="130" y="574" type="curve" smooth="yes"/>
      <point x="130" y="589"/>
      <point x="155" y="612"/>
      <point x="192" y="612" type="curve" smooth="yes"/>
      <point x="229" y="612"/>
      <point x="254" y="589"/>
      <point x="254" y="574" type="curve" smooth="yes"/>
      <point x="254" y="556"/>
      <point x="249" y="520"/>
      <point x="246" y="498" type="curve" smooth="yes"/>
    </contour>
    <contour>
      <point x="434" y="315" type="line"/>
      <point x="382" y="315" type="line"/>
      <point x="354" y="498" type="line" smooth="yes"/>
      <point x="351" y="520"/>
      <point x="346" y="556"/>
      <point x="346" y="574" type="curve" smooth="yes"/>
      <point x="346" y="589"/>
      <point x="371" y="612"/>
      <point x="408" y="612" type="curve" smooth="yes"/>
      <point x="445" y="612"/>
      <point x="470" y="589"/>
      <point x="470" y="574" type="curve" smooth="yes"/>
      <point x="470" y="556"/>
      <point x="465" y="520"/>
      <point x="462" y="498" type="curve" smooth="yes"/>
    </contour>
  </outline>
</glyph>
<glyph name="numbersign" format="1">
  <advance width="600"/>
  <unicode hex="0023"/>
  <outline>
    <contour>
      <point x="255" y="805" type="line"/>
      <point x="330" y="805" type="line"/>
      <point x="164" y="-96" type="line"/>
      <point x="89" y="-96" type="line"/>
      <point x="149" y="230" type="line"/>
      <point x="16" y="230" type="line"/>
      <point x="31" y="296" type="line"/>
      <point x="161" y="296" type="line"/>
      <point x="185" y="428" type="line"/>
      <point x="54" y="428" type="line"/>
      <point x="66" y="494" type="line"/>
      <point x="198" y="494" type="line"/>
    </contour>
    <contour>
      <point x="341" y="-96" type="line"/>
      <point x="266" y="-96" type="line"/>
      <point x="432" y="805" type="line"/>
      <point x="507" y="805" type="line"/>
      <point x="450" y="494" type="line"/>
      <point x="583" y="494" type="line"/>
      <point x="570" y="428" type="line"/>
      <point x="437" y="428" type="line"/>
      <point x="413" y="296" type="line"/>
      <point x="547" y="296" type="line"/>
      <point x="535" y="230" type="line"/>
      <point x="401" y="230" type="line"/>
    </contour>
  </outline>
</glyph>
<glyph name="dollar" format="1">
  <advance width="600"/>
  <unicode hex="0024"/>
  <outline>
    <contour>
      <point x="336" y="15" type="curve"/>
      <point x="336" y="-116" type="line"/>
      <point x="274" y="-116" type="line"/>
      <point x="274" y="15" type="line"/>
      <point x="231" y="15"/>
      <point x="152" y="40"/>
      <point x="110" y="51" type="curve"/>
      <point x="115" y="110" type="line" smooth="yes"/>
      <point x="117" y="138"/>
      <point x="110" y="166"/>
      <point x="101" y="193" type="curve"/>
      <point x="168" y="193" type="line"/>
      <point x="169" y="168"/>
      <point x="171" y="131"/>
      <point x="185" y="111" type="curve" smooth="yes"/>
      <point x="207" y="80"/>
      <point x="271" y="71"/>
      <point x="305" y="71" type="curve" smooth="yes"/>
      <point x="369" y="71"/>
      <point x="433" y="105"/>
      <point x="433" y="175" type="curve" smooth="yes"/>
      <point x="433" y="318"/>
      <point x="127" y="265"/>
      <point x="127" y="439" type="curve" smooth="yes"/>
      <point x="127" y="521"/>
      <point x="196" y="588"/>
      <point x="274" y="600" type="curve"/>
      <point x="274" y="706" type="line"/>
      <point x="336" y="706" type="line"/>
      <point x="336" y="600" type="line"/>
      <point x="398" y="600"/>
      <point x="444" y="584"/>
      <point x="478" y="546" type="curve"/>
      <point x="473" y="531"/>
      <point x="471" y="516"/>
      <point x="472" y="500" type="curve" smooth="yes"/>
      <point x="478" y="427" type="line"/>
      <point x="413" y="427" type="line"/>
      <point x="413" y="455" type="line" smooth="yes"/>
      <point x="413" y="519"/>
      <point x="377" y="544"/>
      <point x="312" y="544" type="curve" smooth="yes"/>
      <point x="250" y="544"/>
      <point x="192" y="509"/>
      <point x="192" y="443" type="curve" smooth="yes"/>
      <point x="192" y="317"/>
      <point x="498" y="363"/>
      <point x="498" y="177" type="curve" smooth="yes"/>
      <point x="498" y="89"/>
      <point x="419" y="23"/>
    </contour>
  </outline>
</glyph>
<glyph name="percent" format="1">
  <advance width="600"/>
  <unicode hex="0025"/>
  <outline>
    <contour>
      <point x="435" y="16" type="curve" smooth="yes"/>
      <point x="484" y="16"/>
      <point x="493" y="81"/>
      <point x="493" y="117" type="curve" smooth="yes"/>
      <point x="493" y="153"/>
      <point x="484" y="218"/>
      <point x="435" y="218" type="curve" smooth="yes"/>
      <point x="386" y="218"/>
      <point x="377" y="153"/>
      <point x="377" y="117" type="curve" smooth="yes"/>
      <point x="377" y="81"/>
      <point x="386" y="16"/>
    </contour>
    <contour>
      <point x="419" y="633" type="line"/>
      <point x="453" y="613" type="line"/>
      <point x="175" y="-25" type="line"/>
      <point x="141" y="-4" type="line"/>
    </contour>
    <contour>
      <point x="435" y="-12" type="curve" smooth="yes"/>
      <point x="363" y="-12"/>
      <point x="341" y="57"/>
      <point x="341" y="117" type="curve" smooth="yes"/>
      <point x="341" y="177"/>
      <point x="363" y="246"/>
      <point x="435" y="246" type="curve" smooth="yes"/>
      <point x="507" y="246"/>
      <point x="529" y="177"/>
      <point x="529" y="117" type="curve" smooth="yes"/>
      <point x="529" y="57"/>
      <point x="507" y="-12"/>
    </contour>
    <contour>
      <point x="165" y="354" type="curve" smooth="yes"/>
      <point x="93" y="354"/>
      <point x="71" y="423"/>
      <point x="71" y="483" type="curve" smooth="yes"/>
      <point x="71" y="543"/>
      <point x="93" y="612"/>
      <point x="165" y="612" type="curve" smooth="yes"/>
      <point x="237" y="612"/>
      <point x="259" y="543"/>
      <point x="259" y="483" type="curve" smooth="yes"/>
      <point x="259" y="423"/>
      <point x="237" y="354"/>
    </contour>
    <contour>
      <point x="165" y="382" type="curve" smooth="yes"/>
      <point x="214" y="382"/>
      <point x="223" y="447"/>
      <point x="223" y="483" type="curve" smooth="yes"/>
      <point x="223" y="519"/>
      <point x="214" y="584"/>
      <point x="165" y="584" type="curve" smooth="yes"/>
      <point x="116" y="584"/>
      <point x="107" y="519"/>
      <point x="107" y="483" type="curve" smooth="yes"/>
      <point x="107" y="447"/>
      <point x="116" y="382"/>
    </contour>
  </outline>
</glyph>
<glyph name="ampersand" format="1">
  <advance width="600"/>
  <unicode hex="0026"/>
  <outline>
    <contour>
      <point x="373" y="95" type="curve"/>
      <point x="362" y="121" type="line" smooth="yes"/>
      <point x="345" y="160"/>
      <point x="333" y="196"/>
      <point x="307" y="230" type="curve" smooth="yes"/>
      <point x="243" y="315" type="line"/>
      <point x="185" y="295"/>
      <point x="158" y="240"/>
      <point x="158" y="180" type="curve" smooth="yes"/>
      <point x="158" y="112"/>
      <point x="195" y="44"/>
      <point x="270" y="44" type="curve" smooth="yes"/>
      <point x="311" y="44"/>
      <point x="346" y="64"/>
    </contour>
    <contour>
      <point x="539" y="247" type="line"/>
      <point x="489" y="247" type="line"/>
      <point x="484" y="191"/>
      <point x="470" y="137"/>
      <point x="442" y="88" type="curve"/>
      <point x="447" y="77"/>
      <point x="459" y="55"/>
      <point x="471" y="55" type="curve" smooth="yes"/>
      <point x="486" y="55"/>
      <point x="489" y="89"/>
      <point x="492" y="98" type="curve"/>
      <point x="540" y="70" type="line"/>
      <point x="535" y="31"/>
      <point x="516" y="-3"/>
      <point x="472" y="-3" type="curve" smooth="yes"/>
      <point x="436" y="-3"/>
      <point x="423" y="14"/>
      <point x="400" y="40" type="curve"/>
      <point x="365" y="5"/>
      <point x="313" y="-12"/>
      <point x="263" y="-12" type="curve" smooth="yes"/>
      <point x="158" y="-12"/>
      <point x="93" y="82"/>
      <point x="93" y="180" type="curve" smooth="yes"/>
      <point x="93" y="257"/>
      <point x="137" y="330"/>
      <point x="208" y="359" type="curve"/>
      <point x="180" y="398"/>
      <point x="157" y="447"/>
      <point x="157" y="496" type="curve" smooth="yes"/>
      <point x="157" y="566"/>
      <point x="221" y="612"/>
      <point x="286" y="612" type="curve" smooth="yes"/>
      <point x="335" y="612"/>
      <point x="375" y="585"/>
      <point x="404" y="547" type="curve"/>
      <point x="359" y="502" type="line"/>
      <point x="339" y="526"/>
      <point x="317" y="556"/>
      <point x="283" y="556" type="curve" smooth="yes"/>
      <point x="248" y="556"/>
      <point x="222" y="529"/>
      <point x="222" y="494" type="curve" smooth="yes"/>
      <point x="222" y="449"/>
      <point x="254" y="401"/>
      <point x="281" y="366" type="curve" smooth="yes"/>
      <point x="315" y="323" type="line" smooth="yes"/>
      <point x="355" y="273"/>
      <point x="389" y="221"/>
      <point x="412" y="160" type="curve"/>
      <point x="426" y="207"/>
      <point x="432" y="255"/>
      <point x="433" y="303" type="curve"/>
      <point x="539" y="303" type="line"/>
    </contour>
  </outline>
</glyph>
<glyph name="quotesingle" format="1">
  <advance width="600"/>
  <unicode hex="0027"/>
  <outline>
    <contour>
      <point x="326" y="315" type="line"/>
      <point x="274" y="315" type="line"/>
      <point x="246" y="498" type="line" smooth="yes"/>
      <point x="243" y="520"/>
      <point x="238" y="556"/>
      <point x="238" y="574" type="curve" smooth="yes"/>
      <point x="238" y="589"/>
      <point x="263" y="612"/>
      <point x="300" y="612" type="curve" smooth="yes"/>
      <point x="337" y="612"/>
      <point x="362" y="589"/>
      <point x="362" y="574" type="curve" smooth="yes"/>
      <point x="362" y="556"/>
      <point x="357" y="520"/>
      <point x="354" y="498" type="curve" smooth="yes"/>
    </contour>
  </outline>
</glyph>
<glyph name="parenleft" format="1">
  <advance width="600"/>
  <unicode hex="0028"/>
  <outline>
    <contour>
      <point x="473" y="-70" type="curve"/>
      <point x="434" y="-117" type="line"/>
      <point x="295" y="-15"/>
      <point x="238" y="124"/>
      <point x="238" y="293" type="curve" smooth="yes"/>
      <point x="238" y="462"/>
      <point x="295" y="601"/>
      <point x="434" y="703" type="curve"/>
      <point x="473" y="656" type="line"/>
      <point x="345" y="575"/>
      <point x="303" y="437"/>
      <point x="303" y="293" type="curve" smooth="yes"/>
      <point x="303" y="148"/>
      <point x="345" y="10"/>
    </contour>
  </outline>
</glyph>
<glyph name="parenright" format="1">
  <advance width="600"/>
  <unicode hex="0029"/>
  <outline>
    <contour>
      <point x="127" y="656" type="curve"/>
      <point x="166" y="703" type="line"/>
      <point x="305" y="601"/>
      <point x="362" y="462"/>
      <point x="362" y="293" type="curve" smooth="yes"/>
      <point x="362" y="124"/>
      <point x="305" y="-15"/>
      <point x="166" y="-117" type="curve"/>
      <point x="127" y="-70" type="line"/>
      <point x="255" y="11"/>
      <point x="297" y="149"/>
      <point x="297" y="293" type="curve" smooth="yes"/>
      <point x="297" y="438"/>
      <point x="255" y="576"/>
    </contour>
  </outline>
</glyph>
<glyph name="asterisk" format="1">
  <advance width="600"/>
  <unicode hex="002A"/>
  <outline>
    <contour>
      <point x="323" y="494" type="curve"/>
      <point x="330" y="487" type="line"/>
      <point x="350" y="501"/>
      <point x="384" y="533"/>
      <point x="410" y="533" type="curve" smooth="yes"/>
      <point x="433" y="533"/>
      <point x="456" y="516"/>
      <point x="456" y="491" type="curve" smooth="yes"/>
      <point x="456" y="436"/>
      <point x="374" y="447"/>
      <point x="340" y="442" type="curve"/>
      <point x="336" y="436" type="line"/>
      <point x="359" y="422" type="line" smooth="yes"/>
      <point x="380" y="409"/>
      <point x="410" y="392"/>
      <point x="410" y="363" type="curve" smooth="yes"/>
      <point x="410" y="340"/>
      <point x="391" y="320"/>
      <point x="368" y="320" type="curve" smooth="yes"/>
      <point x="324" y="320"/>
      <point x="310" y="380"/>
      <point x="304" y="414" type="curve"/>
      <point x="296" y="414" type="line"/>
      <point x="275" y="360" type="line" smooth="yes"/>
      <point x="266" y="337"/>
      <point x="252" y="318"/>
      <point x="224" y="318" type="curve" smooth="yes"/>
      <point x="200" y="318"/>
      <point x="184" y="340"/>
      <point x="184" y="362" type="curve" smooth="yes"/>
      <point x="184" y="380"/>
      <point x="198" y="393"/>
      <point x="211" y="403" type="curve" smooth="yes"/>
      <point x="258" y="437" type="line"/>
      <point x="256" y="446" type="line"/>
      <point x="248" y="446"/>
      <point x="235" y="447"/>
      <point x="221" y="449" type="curve" smooth="yes"/>
      <point x="195" y="452"/>
      <point x="144" y="452"/>
      <point x="144" y="498" type="curve" smooth="yes"/>
      <point x="144" y="519"/>
      <point x="165" y="537"/>
      <point x="185" y="537" type="curve" smooth="yes"/>
      <point x="216" y="537"/>
      <point x="243" y="509"/>
      <point x="267" y="489" type="curve"/>
      <point x="276" y="495" type="line"/>
      <point x="271" y="515"/>
      <point x="258" y="547"/>
      <point x="258" y="568" type="curve" smooth="yes"/>
      <point x="258" y="593"/>
      <point x="278" y="612"/>
      <point x="303" y="612" type="curve" smooth="yes"/>
      <point x="329" y="612"/>
      <point x="344" y="591"/>
      <point x="344" y="567" type="curve" smooth="yes"/>
      <point x="344" y="545"/>
      <point x="330" y="514"/>
    </contour>
  </outline>
</glyph>
<glyph name="plus" format="1">
  <advance width="600"/>
  <unicode hex="002B"/>
  <outline>
    <contour>
      <point x="575" y="393" type="line"/>
      <point x="575" y="327" type="line"/>
      <point x="335" y="327" type="line"/>
      <point x="335" y="90" type="line"/>
      <point x="265" y="90" type="line"/>
      <point x="265" y="327" type="line"/>
      <point x="25" y="327" type="line"/>
      <point x="25" y="393" type="line"/>
      <point x="265" y="393" type="line"/>
      <point x="265" y="630" type="line"/>
      <point x="335" y="630" type="line"/>
      <point x="335" y="393" type="line"/>
    </contour>
  </outline>
</glyph>
<glyph name="comma" format="1">
  <advance width="600"/>
  <unicode hex="002C"/>
  <outline>
    <contour>
      <point x="240" y="-98" type="curve"/>
      <point x="240" y="-40" type="line"/>
      <point x="262" y="-35"/>
      <point x="282" y="-26"/>
      <point x="298" y="-10" type="curve"/>
      <point x="265" y="-8"/>
      <point x="239" y="17"/>
      <point x="239" y="51" type="curve" smooth="yes"/>
      <point x="239" y="91"/>
      <point x="268" y="120"/>
      <point x="308" y="120" type="curve" smooth="yes"/>
      <point x="352" y="120"/>
      <point x="381" y="81"/>
      <point x="381" y="39" type="curve" smooth="yes"/>
      <point x="381" y="-34"/>
      <point x="305" y="-84"/>
    </contour>
  </outline>
</glyph>
<glyph name="hyphen" format="1">
  <advance width="600"/>
  <unicode hex="002D"/>
  <outline>
    <contour>
      <point x="428" y="272" type="line"/>
      <point x="170" y="272" type="line"/>
      <point x="170" y="328" type="line"/>
      <point x="428" y="328" type="line"/>
    </contour>
  </outline>
</glyph>
<glyph name="period" format="1">
  <advance width="600"/>
  <unicode hex="002E"/>
  <outline>
    <contour>
      <point x="230" y="57" type="curve" smooth="yes"/>
      <point x="230" y="95"/>
      <point x="262" y="126"/>
      <point x="300" y="126" type="curve" smooth="yes"/>
      <point x="338" y="126"/>
      <point x="370" y="95"/>
      <point x="370" y="57" type="curve" smooth="yes"/>
      <point x="370" y="18"/>
      <point x="338" y="-12"/>
      <point x="300" y="-12" type="curve" smooth="yes"/>
      <point x="262" y="-12"/>
      <point x="230" y="18"/>
    </contour>
  </outline>
</glyph>
<glyph name="slash" format="1">
  <advance width="600"/>
  <unicode hex="002F"/>
  <outline>
    <contour>
      <point x="187" y="-27" type="line"/>
      <point x="112" y="-27" type="line"/>
      <point x="413" y="747" type="line"/>
      <point x="488" y="747" type="line"/>
    </contour>
  </outline>
</glyph>
<glyph name="zero" format="1">
  <advance width="600"/>
  <unicode hex="0030"/>
  <outline>
    <contour>
      <point x="300" y="-12" type="curve" smooth="yes"/>
      <point x="196" y="-12"/>
      <point x="93" y="71"/>
      <point x="93" y="300" type="curve" smooth="yes"/>
      <point x="93" y="529"/>
      <point x="196" y="612"/>
      <point x="300" y="612" type="curve" smooth="yes"/>
      <point x="404" y="612"/>
      <point x="507" y="529"/>
      <point x="507" y="300" type="curve" smooth="yes"/>
      <point x="507" y="71"/>
      <point x="404" y="-12"/>
    </contour>
    <contour>
      <point x="300" y="556" type="curve" smooth="yes"/>
      <point x="176" y="556"/>
      <point x="158" y="392"/>
      <point x="158" y="300" type="curve" smooth="yes"/>
      <point x="158" y="208"/>
      <point x="176" y="44"/>
      <point x="300" y="44" type="curve" smooth="yes"/>
      <point x="424" y="44"/>
      <point x="442" y="208"/>
      <point x="442" y="300" type="curve" smooth="yes"/>
      <point x="442" y="392"/>
      <point x="424" y="556"/>
    </contour>
  </outline>
</glyph>
<glyph name="one" format="1">
  <advance width="600"/>
  <unicode hex="0031"/>
  <outline>
    <contour>
      <point x="341" y="560" type="curve" smooth="yes"/>
      <point x="341" y="56" type="line"/>
      <point x="475" y="56" type="line"/>
      <point x="475" y="0" type="line"/>
      <point x="136" y="0" type="line"/>
      <point x="136" y="56" type="line"/>
      <point x="279" y="56" type="line"/>
      <point x="279" y="525" type="line"/>
      <point x="245" y="519"/>
      <point x="211" y="513"/>
      <point x="176" y="515" type="curve" smooth="yes"/>
      <point x="148" y="517" type="line"/>
      <point x="138" y="572" type="line"/>
      <point x="172" y="569" type="line" smooth="yes"/>
      <point x="188" y="569"/>
      <point x="210" y="569"/>
      <point x="231" y="573" type="curve" smooth="yes"/>
      <point x="253" y="577"/>
      <point x="273" y="584"/>
      <point x="284" y="597" type="curve" smooth="yes"/>
      <point x="292" y="606"/>
      <point x="298" y="612"/>
      <point x="311" y="612" type="curve" smooth="yes"/>
      <point x="342" y="612"/>
      <point x="341" y="582"/>
    </contour>
  </outline>
</glyph>
<glyph name="two" format="1">
  <advance width="600"/>
  <unicode hex="0032"/>
  <outline>
    <contour>
      <point x="444" y="122" type="line"/>
      <point x="500" y="108" type="line"/>
      <point x="449" y="0" type="line"/>
      <point x="106" y="0" type="line"/>
      <point x="106" y="55" type="line"/>
      <point x="296" y="258" type="line" smooth="yes"/>
      <point x="341" y="306"/>
      <point x="397" y="384"/>
      <point x="397" y="454" type="curve" smooth="yes"/>
      <point x="397" y="514"/>
      <point x="345" y="556"/>
      <point x="288" y="556" type="curve" smooth="yes"/>
      <point x="254" y="556"/>
      <point x="220" y="544"/>
      <point x="198" y="517" type="curve"/>
      <point x="199" y="476"/>
      <point x="182" y="438"/>
      <point x="146" y="438" type="curve" smooth="yes"/>
      <point x="126" y="438"/>
      <point x="119" y="454"/>
      <point x="119" y="471" type="curve" smooth="yes"/>
      <point x="119" y="557"/>
      <point x="212" y="612"/>
      <point x="290" y="612" type="curve" smooth="yes"/>
      <point x="379" y="612"/>
      <point x="462" y="550"/>
      <point x="462" y="456" type="curve" smooth="yes"/>
      <point x="462" y="378"/>
      <point x="419" y="308"/>
      <point x="369" y="253" type="curve" smooth="yes"/>
      <point x="206" y="75" type="line"/>
      <point x="187" y="56" type="line"/>
      <point x="409" y="56" type="line"/>
    </contour>
  </outline>
</glyph>
<glyph name="three" format="1">
  <advance width="600"/>
  <unicode hex="0033"/>
  <outline>
    <contour>
      <point x="281" y="299" type="curve"/>
      <point x="230" y="294" type="line"/>
      <point x="230" y="355" type="line"/>
      <point x="242" y="353"/>
      <point x="254" y="351"/>
      <point x="266" y="351" type="curve" smooth="yes"/>
      <point x="326" y="351"/>
      <point x="379" y="374"/>
      <point x="379" y="443" type="curve" smooth="yes"/>
      <point x="379" y="509"/>
      <point x="342" y="556"/>
      <point x="274" y="556" type="curve" smooth="yes"/>
      <point x="249" y="556"/>
      <point x="224" y="548"/>
      <point x="205" y="532" type="curve"/>
      <point x="203" y="501"/>
      <point x="181" y="460"/>
      <point x="146" y="460" type="curve" smooth="yes"/>
      <point x="127" y="460"/>
      <point x="117" y="475"/>
      <point x="117" y="493" type="curve" smooth="yes"/>
      <point x="117" y="525"/>
      <point x="141" y="554"/>
      <point x="165" y="573" type="curve" smooth="yes"/>
      <point x="198" y="599"/>
      <point x="240" y="612"/>
      <point x="283" y="612" type="curve" smooth="yes"/>
      <point x="375" y="612"/>
      <point x="444" y="541"/>
      <point x="444" y="450" type="curve" smooth="yes"/>
      <point x="444" y="391"/>
      <point x="424" y="367"/>
      <point x="383" y="329" type="curve"/>
      <point x="383" y="328" type="line"/>
      <point x="443" y="283"/>
      <point x="474" y="255"/>
      <point x="474" y="174" type="curve" smooth="yes"/>
      <point x="474" y="57"/>
      <point x="380" y="-12"/>
      <point x="269" y="-12" type="curve" smooth="yes"/>
      <point x="205" y="-12"/>
      <point x="136" y="2"/>
      <point x="80" y="36" type="curve"/>
      <point x="105" y="86" type="line"/>
      <point x="152" y="58"/>
      <point x="210" y="44"/>
      <point x="264" y="44" type="curve" smooth="yes"/>
      <point x="343" y="44"/>
      <point x="409" y="84"/>
      <point x="409" y="171" type="curve" smooth="yes"/>
      <point x="409" y="252"/>
      <point x="361" y="299"/>
    </contour>
  </outline>
</glyph>
<glyph name="four" format="1">
  <advance width="600"/>
  <unicode hex="0034"/>
  <outline>
    <contour>
      <point x="375" y="421" type="line"/>
      <point x="437" y="421" type="line"/>
      <point x="437" y="212" type="line"/>
      <point x="523" y="212" type="line"/>
      <point x="523" y="156" type="line"/>
      <point x="437" y="156" type="line"/>
      <point x="437" y="56" type="line"/>
      <point x="523" y="56" type="line"/>
      <point x="523" y="0" type="line"/>
      <point x="275" y="0" type="line"/>
      <point x="275" y="56" type="line"/>
      <point x="375" y="56" type="line"/>
      <point x="375" y="156" type="line"/>
      <point x="82" y="156" type="line"/>
      <point x="82" y="210" type="line"/>
      <point x="164" y="347"/>
      <point x="242" y="490"/>
      <point x="281" y="646" type="curve"/>
      <point x="343" y="629" type="line"/>
      <point x="304" y="479"/>
      <point x="226" y="343"/>
      <point x="145" y="212" type="curve"/>
      <point x="375" y="212" type="line"/>
    </contour>
  </outline>
</glyph>
<glyph name="five" format="1">
  <advance width="600"/>
  <unicode hex="0035"/>
  <outline>
    <contour>
      <point x="440" y="600" type="line"/>
      <point x="440" y="544" type="line"/>
      <point x="210" y="544" type="line"/>
      <point x="198" y="407" type="line"/>
      <point x="255" y="412" type="line"/>
      <point x="376" y="412"/>
      <point x="467" y="341"/>
      <point x="467" y="214" type="curve" smooth="yes"/>
      <point x="467" y="75"/>
      <point x="355" y="-12"/>
      <point x="222" y="-12" type="curve" smooth="yes"/>
      <point x="170" y="-12"/>
      <point x="124" y="-1"/>
      <point x="76" y="17" type="curve"/>
      <point x="92" y="71" type="line"/>
      <point x="135" y="54"/>
      <point x="171" y="44"/>
      <point x="219" y="44" type="curve" smooth="yes"/>
      <point x="320" y="44"/>
      <point x="402" y="105"/>
      <point x="402" y="212" type="curve" smooth="yes"/>
      <point x="402" y="300"/>
      <point x="343" y="356"/>
      <point x="256" y="356" type="curve" smooth="yes"/>
      <point x="214" y="356"/>
      <point x="173" y="348"/>
      <point x="133" y="336" type="curve"/>
      <point x="154" y="600" type="line"/>
    </contour>
  </outline>
</glyph>
<glyph name="six" format="1">
  <advance width="600"/>
  <unicode hex="0036"/>
  <outline>
    <contour>
      <point x="433" y="612" type="curve"/>
      <point x="433" y="556" type="line"/>
      <point x="284" y="557"/>
      <point x="212" y="473"/>
      <point x="180" y="335" type="curve"/>
      <point x="222" y="370"/>
      <point x="259" y="391"/>
      <point x="316" y="391" type="curve" smooth="yes"/>
      <point x="428" y="391"/>
      <point x="505" y="301"/>
      <point x="505" y="192" type="curve" smooth="yes"/>
      <point x="505" y="83"/>
      <point x="426" y="-12"/>
      <point x="312" y="-12" type="curve" smooth="yes"/>
      <point x="230" y="-12"/>
      <point x="110" y="41"/>
      <point x="110" y="246" type="curve" smooth="yes"/>
      <point x="110" y="449"/>
      <point x="214" y="616"/>
    </contour>
    <contour>
      <point x="440" y="190" type="curve" smooth="yes"/>
      <point x="440" y="263"/>
      <point x="395" y="335"/>
      <point x="315" y="335" type="curve" smooth="yes"/>
      <point x="239" y="335"/>
      <point x="175" y="278"/>
      <point x="175" y="200" type="curve" smooth="yes"/>
      <point x="175" y="125"/>
      <point x="226" y="44"/>
      <point x="309" y="44" type="curve" smooth="yes"/>
      <point x="388" y="44"/>
      <point x="440" y="115"/>
    </contour>
  </outline>
</glyph>
<glyph name="seven" format="1">
  <advance width="600"/>
  <unicode hex="0037"/>
  <outline>
    <contour>
      <point x="106" y="600" type="line"/>
      <point x="483" y="600" type="line"/>
      <point x="231" y="-12" type="line"/>
      <point x="164" y="-12" type="line"/>
      <point x="397" y="544" type="line"/>
      <point x="106" y="544" type="line"/>
    </contour>
  </outline>
</glyph>
<glyph name="eight" format="1">
  <advance width="600"/>
  <unicode hex="0038"/>
  <outline>
    <contour>
      <point x="439" y="166" type="curve" smooth="yes"/>
      <point x="439" y="243"/>
      <point x="366" y="276"/>
      <point x="300" y="284" type="curve"/>
      <point x="234" y="276"/>
      <point x="161" y="243"/>
      <point x="161" y="166" type="curve" smooth="yes"/>
      <point x="161" y="95"/>
      <point x="233" y="44"/>
      <point x="300" y="44" type="curve" smooth="yes"/>
      <point x="367" y="44"/>
      <point x="439" y="95"/>
    </contour>
    <contour>
      <point x="300" y="-12" type="curve" smooth="yes"/>
      <point x="196" y="-12"/>
      <point x="96" y="59"/>
      <point x="96" y="166" type="curve" smooth="yes"/>
      <point x="96" y="240"/>
      <point x="149" y="295"/>
      <point x="220" y="318" type="curve"/>
      <point x="162" y="347"/>
      <point x="118" y="402"/>
      <point x="118" y="469" type="curve" smooth="yes"/>
      <point x="118" y="528"/>
      <point x="165" y="612"/>
      <point x="300" y="612" type="curve" smooth="yes"/>
      <point x="435" y="612"/>
      <point x="482" y="528"/>
      <point x="482" y="469" type="curve" smooth="yes"/>
      <point x="482" y="402"/>
      <point x="438" y="347"/>
      <point x="380" y="318" type="curve"/>
      <point x="451" y="295"/>
      <point x="504" y="240"/>
      <point x="504" y="166" type="curve" smooth="yes"/>
      <point x="504" y="59"/>
      <point x="404" y="-12"/>
    </contour>
    <contour>
      <point x="300" y="556" type="curve" smooth="yes"/>
      <point x="245" y="556"/>
      <point x="183" y="532"/>
      <point x="183" y="468" type="curve" smooth="yes"/>
      <point x="183" y="396"/>
      <point x="239" y="368"/>
      <point x="300" y="341" type="curve"/>
      <point x="361" y="368"/>
      <point x="417" y="396"/>
      <point x="417" y="468" type="curve" smooth="yes"/>
      <point x="417" y="532"/>
      <point x="355" y="556"/>
    </contour>
  </outline>
</glyph>
<glyph name="nine" format="1">
  <advance width="600"/>
  <unicode hex="0039"/>
  <outline>
    <contour>
      <point x="147" y="-9" type="curve"/>
      <point x="147" y="47" type="line"/>
      <point x="198" y="42" type="line" smooth="yes"/>
      <point x="328" y="29"/>
      <point x="409" y="149"/>
      <point x="430" y="269" type="curve"/>
      <point x="389" y="233"/>
      <point x="350" y="210"/>
      <point x="294" y="210" type="curve" smooth="yes"/>
      <point x="184" y="210"/>
      <point x="105" y="297"/>
      <point x="105" y="405" type="curve" smooth="yes"/>
      <point x="105" y="516"/>
      <point x="181" y="612"/>
      <point x="297" y="612" type="curve" smooth="yes"/>
      <point x="377" y="612"/>
      <point x="495" y="556"/>
      <point x="495" y="356" type="curve" smooth="yes"/>
      <point x="495" y="171"/>
      <point x="403" y="-12"/>
      <point x="196" y="-12" type="curve" smooth="yes"/>
      <point x="180" y="-12"/>
      <point x="163" y="-10"/>
    </contour>
    <contour>
      <point x="300" y="556" type="curve" smooth="yes"/>
      <point x="222" y="556"/>
      <point x="170" y="486"/>
      <point x="170" y="412" type="curve" smooth="yes"/>
      <point x="170" y="339"/>
      <point x="214" y="266"/>
      <point x="300" y="266" type="curve" smooth="yes"/>
      <point x="386" y="266"/>
      <point x="430" y="339"/>
      <point x="430" y="412" type="curve" smooth="yes"/>
      <point x="430" y="486"/>
      <point x="378" y="556"/>
    </contour>
  </outline>
</glyph>
<glyph name="colon" format="1">
  <advance width="600"/>
  <unicode hex="003A"/>
  <outline>
    <contour>
      <point x="230" y="57" type="curve" smooth="yes"/>
      <point x="230" y="95"/>
      <point x="262" y="126"/>
      <point x="300" y="126" type="curve" smooth="yes"/>
      <point x="338" y="126"/>
      <point x="370" y="95"/>
      <point x="370" y="57" type="curve" smooth="yes"/>
      <point x="370" y="18"/>
      <point x="338" y="-12"/>
      <point x="300" y="-12" type="curve" smooth="yes"/>
      <point x="262" y="-12"/>
      <point x="230" y="18"/>
    </contour>
    <contour>
      <point x="230" y="357" type="curve" smooth="yes"/>
      <point x="230" y="395"/>
      <point x="262" y="426"/>
      <point x="300" y="426" type="curve" smooth="yes"/>
      <point x="338" y="426"/>
      <point x="370" y="395"/>
      <point x="370" y="357" type="curve" smooth="yes"/>
      <point x="370" y="318"/>
      <point x="338" y="288"/>
      <point x="300" y="288" type="curve" smooth="yes"/>
      <point x="262" y="288"/>
      <point x="230" y="318"/>
    </contour>
  </outline>
</glyph>
<glyph name="semicolon" format="1">
  <advance width="600"/>
  <unicode hex="003B"/>
  <outline>
    <contour>
      <point x="240" y="-98" type="curve"/>
      <point x="240" y="-40" type="line"/>
      <point x="262" y="-35"/>
      <point x="282" y="-26"/>
      <point x="298" y="-10" type="curve"/>
      <point x="265" y="-8"/>
      <point x="239" y="17"/>
      <point x="239" y="51" type="curve" smooth="yes"/>
      <point x="239" y="91"/>
      <point x="268" y="120"/>
      <point x="308" y="120" type="curve" smooth="yes"/>
      <point x="352" y="120"/>
      <point x="381" y="81"/>
      <point x="381" y="39" type="curve" smooth="yes"/>
      <point x="381" y="-34"/>
      <point x="305" y="-84"/>
    </contour>
    <contour>
      <point x="239" y="357" type="curve" smooth="yes"/>
      <point x="239" y="395"/>
      <point x="271" y="426"/>
      <point x="309" y="426" type="curve" smooth="yes"/>
      <point x="347" y="426"/>
      <point x="379" y="395"/>
      <point x="379" y="357" type="curve" smooth="yes"/>
      <point x="379" y="318"/>
      <point x="347" y="288"/>
      <point x="309" y="288" type="curve" smooth="yes"/>
      <point x="271" y="288"/>
      <point x="239" y="318"/>
    </contour>
  </outline>
</glyph>
<glyph name="less" format="1">
  <advance width="600"/>
  <unicode hex="003C"/>
  <outline>
    <contour>
      <point x="475" y="720" type="line"/>
      <point x="517" y="668" type="line"/>
      <point x="184" y="360" type="line"/>
      <point x="517" y="52" type="line"/>
      <point x="475" y="0" type="line"/>
      <point x="82" y="360" type="line"/>
    </contour>
  </outline>
</glyph>
<glyph name="equal" format="1">
  <advance width="600"/>
  <unicode hex="003D"/>
  <outline>
    <contour>
      <point x="575" y="452" type="line"/>
      <point x="575" y="386" type="line"/>
      <point x="25" y="386" type="line"/>
      <point x="25" y="452" type="line"/>
    </contour>
    <contour>
      <point x="575" y="334" type="line"/>
      <point x="575" y="268" type="line"/>
      <point x="25" y="268" type="line"/>
      <point x="25" y="334" type="line"/>
    </contour>
  </outline>
</glyph>
<glyph name="question" format="1">
  <advance width="600"/>
  <unicode hex="003F"/>
  <outline>
    <contour>
      <point x="300" y="154" type="line"/>
      <point x="240" y="154" type="line"/>
      <point x="240" y="189" type="line" smooth="yes"/>
      <point x="240" y="330"/>
      <point x="369" y="368"/>
      <point x="369" y="464" type="curve" smooth="yes"/>
      <point x="369" y="513"/>
      <point x="335" y="556"/>
      <point x="284" y="556" type="curve" smooth="yes"/>
      <point x="236" y="556"/>
      <point x="192" y="528"/>
      <point x="185" y="479" type="curve"/>
      <point x="189" y="469"/>
      <point x="191" y="458"/>
      <point x="191" y="447" type="curve" smooth="yes"/>
      <point x="191" y="428"/>
      <point x="180" y="406"/>
      <point x="158" y="406" type="curve" smooth="yes"/>
      <point x="125" y="406"/>
      <point x="118" y="434"/>
      <point x="118" y="461" type="curve" smooth="yes"/>
      <point x="118" y="542"/>
      <point x="189" y="612"/>
      <point x="284" y="612" type="curve" smooth="yes"/>
      <point x="360" y="612"/>
      <point x="433" y="554"/>
      <point x="433" y="471" type="curve" smooth="yes"/>
      <point x="433" y="330"/>
      <point x="300" y="321"/>
      <point x="300" y="181" type="curve" smooth="yes"/>
    </contour>
    <contour>
      <point x="211" y="45" type="curve" smooth="yes"/>
      <point x="211" y="77"/>
      <point x="239" y="102"/>
      <point x="270" y="102" type="curve" smooth="yes"/>
      <point x="301" y="102"/>
      <point x="329" y="77"/>
      <point x="329" y="45" type="curve" smooth="yes"/>
      <point x="329" y="13"/>
      <point x="302" y="-12"/>
      <point x="270" y="-12" type="curve" smooth="yes"/>
      <point x="238" y="-12"/>
      <point x="211" y="13"/>
    </contour>
  </outline>
</glyph>
<glyph name="at" format="1">
  <advance width="600"/>
  <unicode hex="0040"/>
  <outline>
    <contour>
      <point x="489" y="115" type="curve"/>
      <point x="512" y="59" type="line"/>
      <point x="444" y="16"/>
      <point x="363" y="-12"/>
      <point x="281" y="-12" type="curve" smooth="yes"/>
      <point x="150" y="-12"/>
      <point x="36" y="80"/>
      <point x="36" y="250" type="curve" smooth="yes"/>
      <point x="36" y="415"/>
      <point x="131" y="612"/>
      <point x="319" y="612" type="curve" smooth="yes"/>
      <point x="463" y="612"/>
      <point x="563" y="502"/>
      <point x="563" y="360" type="curve" smooth="yes"/>
      <point x="563" y="275"/>
      <point x="525" y="149"/>
      <point x="420" y="149" type="curve" smooth="yes"/>
      <point x="382" y="149"/>
      <point x="369" y="163"/>
      <point x="343" y="190" type="curve"/>
      <point x="315" y="165"/>
      <point x="295" y="149"/>
      <point x="257" y="149" type="curve" smooth="yes"/>
      <point x="207" y="149"/>
      <point x="171" y="184"/>
      <point x="171" y="239" type="curve" smooth="yes"/>
      <point x="171" y="359"/>
      <point x="261" y="433"/>
      <point x="345" y="433" type="curve" smooth="yes"/>
      <point x="419" y="433" type="line"/>
      <point x="397" y="296" type="line" smooth="yes"/>
      <point x="395" y="284"/>
      <point x="389" y="258"/>
      <point x="389" y="246" type="curve" smooth="yes"/>
      <point x="389" y="225"/>
      <point x="399" y="205"/>
      <point x="421" y="205" type="curve" smooth="yes"/>
      <point x="482" y="205"/>
      <point x="498" y="309"/>
      <point x="498" y="354" type="curve" smooth="yes"/>
      <point x="498" y="479"/>
      <point x="414" y="556"/>
      <point x="318" y="556" type="curve" smooth="yes"/>
      <point x="245" y="556"/>
      <point x="101" y="484"/>
      <point x="101" y="250" type="curve" smooth="yes"/>
      <point x="101" y="127"/>
      <point x="163" y="44"/>
      <point x="286" y="44" type="curve" smooth="yes"/>
      <point x="362" y="44"/>
      <point x="426" y="76"/>
    </contour>
    <contour>
      <point x="334" y="308" type="curve" smooth="yes"/>
      <point x="348" y="374" type="line"/>
      <point x="323" y="369"/>
      <point x="295" y="368"/>
      <point x="278" y="348" type="curve" smooth="yes"/>
      <point x="257" y="323"/>
      <point x="236" y="272"/>
      <point x="236" y="239" type="curve" smooth="yes"/>
      <point x="236" y="223"/>
      <point x="243" y="205"/>
      <point x="261" y="205" type="curve" smooth="yes"/>
      <point x="295" y="205"/>
      <point x="321" y="247"/>
    </contour>
  </outline>
</glyph>
<glyph name="B" format="1">
  <advance width="600"/>
  <unicode hex="0042"/>
  <outline>
    <contour>
      <point x="224" y="295" type="line"/>
      <point x="224" y="58" type="line"/>
      <point x="343" y="46" type="line" smooth="yes"/>
      <point x="424" y="38"/>
      <point x="477" y="92"/>
      <point x="477" y="167" type="curve" smooth="yes"/>
      <point x="477" y="232"/>
      <point x="439" y="295"/>
      <point x="303" y="295" type="curve" smooth="yes"/>
    </contour>
    <contour>
      <point x="71" y="-11" type="curve"/>
      <point x="57" y="36" type="line"/>
      <point x="162" y="56" type="line"/>
      <point x="162" y="532" type="line"/>
      <point x="58" y="539" type="line"/>
      <point x="58" y="600" type="line"/>
      <point x="95" y="596"/>
      <point x="133" y="588"/>
      <point x="170" y="588" type="curve" smooth="yes"/>
      <point x="226" y="588"/>
      <point x="281" y="600"/>
      <point x="337" y="600" type="curve" smooth="yes"/>
      <point x="416" y="600"/>
      <point x="492" y="552"/>
      <point x="492" y="466" type="curve" smooth="yes"/>
      <point x="492" y="414"/>
      <point x="458" y="361"/>
      <point x="412" y="335" type="curve"/>
      <point x="493" y="309"/>
      <point x="542" y="253"/>
      <point x="542" y="166" type="curve" smooth="yes"/>
      <point x="542" y="54"/>
      <point x="467" y="0"/>
      <point x="370" y="0" type="curve" smooth="yes"/>
      <point x="315" y="0"/>
      <point x="259" y="12"/>
      <point x="204" y="12" type="curve" smooth="yes"/>
      <point x="157" y="12"/>
      <point x="109" y="-1"/>
    </contour>
    <contour>
      <point x="224" y="533" type="curve"/>
      <point x="224" y="351" type="line"/>
      <point x="268" y="351" type="line" smooth="yes"/>
      <point x="391" y="351"/>
      <point x="427" y="409"/>
      <point x="427" y="463" type="curve" smooth="yes"/>
      <point x="427" y="519"/>
      <point x="385" y="544"/>
      <point x="332" y="544" type="curve" smooth="yes"/>
      <point x="296" y="544"/>
      <point x="259" y="539"/>
    </contour>
  </outline>
</glyph>
<glyph name="C" format="1">
  <advance width="600"/>
  <unicode hex="0043"/>
  <outline>
    <contour>
      <point x="464" y="578" type="curve"/>
      <point x="477" y="612" type="line"/>
      <point x="533" y="594" type="line"/>
      <point x="519" y="561"/>
      <point x="513" y="525"/>
      <point x="515" y="489" type="curve" smooth="yes"/>
      <point x="520" y="413" type="line"/>
      <point x="461" y="403" type="line"/>
      <point x="457" y="495"/>
      <point x="434" y="556"/>
      <point x="330" y="556" type="curve" smooth="yes"/>
      <point x="191" y="556"/>
      <point x="144" y="417"/>
      <point x="144" y="301" type="curve" smooth="yes"/>
      <point x="144" y="188"/>
      <point x="194" y="44"/>
      <point x="328" y="44" type="curve" smooth="yes"/>
      <point x="430" y="44"/>
      <point x="468" y="112"/>
      <point x="468" y="206" type="curve"/>
      <point x="530" y="206" type="line"/>
      <point x="530" y="78" type="line"/>
      <point x="474" y="24"/>
      <point x="404" y="-12"/>
      <point x="325" y="-12" type="curve" smooth="yes"/>
      <point x="217" y="-12"/>
      <point x="79" y="71"/>
      <point x="79" y="306" type="curve" smooth="yes"/>
      <point x="79" y="535"/>
      <point x="217" y="612"/>
      <point x="327" y="612" type="curve" smooth="yes"/>
      <point x="374" y="612"/>
      <point x="423" y="599"/>
    </contour>
  </outline>
</glyph>
<glyph name="D" format="1">
  <advance width="600"/>
  <unicode hex="0044"/>
  <outline>
    <contour>
      <point x="186" y="536" type="line"/>
      <point x="186" y="56" type="line"/>
      <point x="286" y="56" type="line" smooth="yes"/>
      <point x="394" y="56"/>
      <point x="467" y="116"/>
      <point x="467" y="284" type="curve" smooth="yes"/>
      <point x="467" y="484"/>
      <point x="346" y="554"/>
      <point x="258" y="544" type="curve" smooth="yes"/>
    </contour>
    <contour>
      <point x="154" y="4" type="curve" smooth="yes"/>
      <point x="51" y="-8" type="line"/>
      <point x="42" y="48" type="line"/>
      <point x="124" y="56" type="line"/>
      <point x="124" y="536" type="line"/>
      <point x="45" y="553" type="line"/>
      <point x="47" y="600" type="line"/>
      <point x="79" y="596"/>
      <point x="110" y="588"/>
      <point x="142" y="588" type="curve" smooth="yes"/>
      <point x="181" y="588"/>
      <point x="219" y="600"/>
      <point x="265" y="600" type="curve" smooth="yes"/>
      <point x="410" y="600"/>
      <point x="532" y="506"/>
      <point x="532" y="296" type="curve" smooth="yes"/>
      <point x="532" y="76"/>
      <point x="422" y="0"/>
      <point x="288" y="0" type="curve" smooth="yes"/>
      <point x="243" y="0"/>
      <point x="198" y="9"/>
    </contour>
  </outline>
</glyph>
<glyph name="F" format="1">
  <advance width="600"/>
  <unicode hex="0046"/>
  <outline>
    <contour>
      <point x="55" y="600" type="line"/>
      <point x="528" y="600" type="line"/>
      <point x="528" y="426" type="line"/>
      <point x="466" y="426" type="line"/>
      <point x="466" y="452" type="line" smooth="yes"/>
      <point x="466" y="532"/>
      <point x="462" y="544"/>
      <point x="383" y="544" type="curve" smooth="yes"/>
      <point x="215" y="544" type="line"/>
      <point x="215" y="339" type="line"/>
      <point x="352" y="339" type="line"/>
      <point x="352" y="424" type="line"/>
      <point x="414" y="424" type="line"/>
      <point x="414" y="189" type="line"/>
      <point x="352" y="189" type="line"/>
      <point x="352" y="283" type="line"/>
      <point x="215" y="283" type="line"/>
      <point x="215" y="56" type="line"/>
      <point x="391" y="56" type="line"/>
      <point x="391" y="0" type="line"/>
      <point x="55" y="0" type="line"/>
      <point x="55" y="56" type="line"/>
      <point x="153" y="56" type="line"/>
      <point x="153" y="544" type="line"/>
      <point x="55" y="544" type="line"/>
    </contour>
  </outline>
</glyph>
<glyph name="G" format="1">
  <advance width="600"/>
  <unicode hex="0047"/>
  <outline>
    <contour>
      <point x="453" y="574" type="curve"/>
      <point x="467" y="613" type="line"/>
      <point x="519" y="597" type="line"/>
      <point x="509" y="564"/>
      <point x="503" y="530"/>
      <point x="503" y="496" type="curve" smooth="yes"/>
      <point x="503" y="467"/>
      <point x="507" y="439"/>
      <point x="512" y="411" type="curve"/>
      <point x="449" y="402" type="line"/>
      <point x="442" y="493"/>
      <point x="422" y="556"/>
      <point x="315" y="556" type="curve" smooth="yes"/>
      <point x="243" y="556"/>
      <point x="125" y="510"/>
      <point x="125" y="311" type="curve" smooth="yes"/>
      <point x="125" y="124"/>
      <point x="220" y="44"/>
      <point x="302" y="44" type="curve" smooth="yes"/>
      <point x="347" y="44"/>
      <point x="414" y="61"/>
      <point x="441" y="99" type="curve" smooth="yes"/>
      <point x="457" y="121"/>
      <point x="454" y="157"/>
      <point x="454" y="184" type="curve" smooth="yes"/>
      <point x="454" y="205" type="line"/>
      <point x="321" y="205" type="line"/>
      <point x="321" y="261" type="line"/>
      <point x="577" y="261" type="line"/>
      <point x="577" y="205" type="line"/>
      <point x="516" y="205" type="line"/>
      <point x="516" y="79" type="line"/>
      <point x="463" y="27"/>
      <point x="386" y="-12"/>
      <point x="311" y="-12" type="curve" smooth="yes"/>
      <point x="140" y="-12"/>
      <point x="60" y="149"/>
      <point x="60" y="300" type="curve" smooth="yes"/>
      <point x="60" y="528"/>
      <point x="195" y="612"/>
      <point x="315" y="612" type="curve" smooth="yes"/>
      <point x="370" y="612"/>
      <point x="405" y="598"/>
    </contour>
  </outline>
</glyph>
<glyph name="H" format="1">
  <advance width="600"/>
  <unicode hex="0048"/>
  <outline>
    <contour>
      <point x="33" y="600" type="line"/>
      <point x="261" y="600" type="line"/>
      <point x="261" y="544" type="line"/>
      <point x="178" y="544" type="line"/>
      <point x="178" y="336" type="line"/>
      <point x="422" y="336" type="line"/>
      <point x="422" y="544" type="line"/>
      <point x="339" y="544" type="line"/>
      <point x="339" y="600" type="line"/>
      <point x="567" y="600" type="line"/>
      <point x="567" y="544" type="line"/>
      <point x="484" y="544" type="line"/>
      <point x="484" y="56" type="line"/>
      <point x="567" y="56" type="line"/>
      <point x="567" y="0" type="line"/>
      <point x="339" y="0" type="line"/>
      <point x="339" y="56" type="line"/>
      <point x="422" y="56" type="line"/>
      <point x="422" y="280" type="line"/>
      <point x="178" y="280" type="line"/>
      <point x="178" y="56" type="line"/>
      <point x="261" y="56" type="line"/>
      <point x="261" y="0" type="line"/>
      <point x="33" y="0" type="line"/>
      <point x="33" y="56" type="line"/>
      <point x="116" y="56" type="line"/>
      <point x="116" y="544" type="line"/>
      <point x="33" y="544" type="line"/>
    </contour>
  </outline>
</glyph>
<glyph name="I" format="1">
  <advance width="600"/>
  <unicode hex="0049"/>
  <outline>
    <contour>
      <point x="109" y="600" type="line"/>
      <point x="491" y="600" type="line"/>
      <point x="491" y="544" type="line"/>
      <point x="331" y="544" type="line"/>
      <point x="331" y="56" type="line"/>
      <point x="491" y="56" type="line"/>
      <point x="491" y="0" type="line"/>
      <point x="109" y="0" type="line"/>
      <point x="109" y="56" type="line"/>
      <point x="269" y="56" type="line"/>
      <point x="269" y="544" type="line"/>
      <point x="109" y="544" type="line"/>
    </contour>
  </outline>
</glyph>
<glyph name="J" format="1">
  <advance width="600"/>
  <unicode hex="004A"/>
  <outline>
    <contour>
      <point x="252" y="600" type="line"/>
      <point x="541" y="600" type="line"/>
      <point x="541" y="544" type="line"/>
      <point x="439" y="544" type="line"/>
      <point x="439" y="139" type="line" smooth="yes"/>
      <point x="439" y="28"/>
      <point x="395" y="-12"/>
      <point x="262" y="-12" type="curve" smooth="yes"/>
      <point x="200" y="-12"/>
      <point x="134" y="5"/>
      <point x="70" y="43" type="curve"/>
      <point x="70" y="201" type="line"/>
      <point x="132" y="201" type="line"/>
      <point x="132" y="176" type="line" smooth="yes"/>
      <point x="132" y="105"/>
      <point x="134" y="44"/>
      <point x="273" y="44" type="curve" smooth="yes"/>
      <point x="372" y="44"/>
      <point x="377" y="80"/>
      <point x="377" y="163" type="curve" smooth="yes"/>
      <point x="377" y="544" type="line"/>
      <point x="252" y="544" type="line"/>
    </contour>
  </outline>
</glyph>
<glyph name="K" format="1">
  <advance width="600"/>
  <unicode hex="004B"/>
  <outline>
    <contour>
      <point x="33" y="600" type="line"/>
      <point x="257" y="600" type="line"/>
      <point x="257" y="544" type="line"/>
      <point x="176" y="544" type="line"/>
      <point x="176" y="324" type="line"/>
      <point x="239" y="335"/>
      <point x="335" y="423"/>
      <point x="412" y="544" type="curve"/>
      <point x="339" y="544" type="line"/>
      <point x="339" y="600" type="line"/>
      <point x="562" y="600" type="line"/>
      <point x="562" y="544" type="line"/>
      <point x="482" y="544" type="line"/>
      <point x="431" y="460"/>
      <point x="370" y="377"/>
      <point x="290" y="318" type="curve"/>
      <point x="501" y="56" type="line"/>
      <point x="590" y="56" type="line"/>
      <point x="590" y="0" type="line"/>
      <point x="361" y="0" type="line"/>
      <point x="361" y="56" type="line"/>
      <point x="421" y="56" type="line"/>
      <point x="235" y="287" type="line"/>
      <point x="217" y="277"/>
      <point x="197" y="271"/>
      <point x="176" y="268" type="curve"/>
      <point x="176" y="56" type="line"/>
      <point x="257" y="56" type="line"/>
      <point x="257" y="0" type="line"/>
      <point x="33" y="0" type="line"/>
      <point x="33" y="56" type="line"/>
      <point x="114" y="56" type="line"/>
      <point x="114" y="544" type="line"/>
      <point x="33" y="544" type="line"/>
    </contour>
  </outline>
</glyph>
<glyph name="L" format="1">
  <advance width="600"/>
  <unicode hex="004C"/>
  <outline>
    <contour>
      <point x="44" y="600" type="line"/>
      <point x="327" y="600" type="line"/>
      <point x="327" y="544" type="line"/>
      <point x="214" y="544" type="line"/>
      <point x="214" y="56" type="line"/>
      <point x="372" y="56" type="line" smooth="yes"/>
      <point x="482" y="56"/>
      <point x="479" y="75"/>
      <point x="479" y="182" type="curve" smooth="yes"/>
      <point x="479" y="210" type="line"/>
      <point x="541" y="210" type="line"/>
      <point x="541" y="0" type="line"/>
      <point x="44" y="0" type="line"/>
      <point x="44" y="56" type="line"/>
      <point x="152" y="56" type="line"/>
      <point x="152" y="544" type="line"/>
      <point x="44" y="544" type="line"/>
    </contour>
  </outline>
</glyph>
<glyph name="M" format="1">
  <advance width="600"/>
  <unicode hex="004D"/>
  <outline>
    <contour>
      <point x="20" y="600" type="line"/>
      <point x="163" y="600" type="line"/>
      <point x="300" y="301" type="line"/>
      <point x="437" y="600" type="line"/>
      <point x="580" y="600" type="line"/>
      <point x="580" y="544" type="line"/>
      <point x="510" y="544" type="line"/>
      <point x="510" y="56" type="line"/>
      <point x="580" y="56" type="line"/>
      <point x="580" y="0" type="line"/>
      <point x="366" y="0" type="line"/>
      <point x="366" y="56" type="line"/>
      <point x="448" y="56" type="line"/>
      <point x="448" y="482" type="line"/>
      <point x="446" y="482" type="line"/>
      <point x="300" y="161" type="line"/>
      <point x="154" y="482" type="line"/>
      <point x="152" y="482" type="line"/>
      <point x="152" y="56" type="line"/>
      <point x="235" y="56" type="line"/>
      <point x="235" y="0" type="line"/>
      <point x="20" y="0" type="line"/>
      <point x="20" y="56" type="line"/>
      <point x="90" y="56" type="line"/>
      <point x="90" y="544" type="line"/>
      <point x="20" y="544" type="line"/>
    </contour>
  </outline>
</glyph>
<glyph name="N" format="1">
  <advance width="600"/>
  <unicode hex="004E"/>
  <outline>
    <contour>
      <point x="26" y="600" type="line"/>
      <point x="169" y="600" type="line"/>
      <point x="446" y="115" type="line"/>
      <point x="448" y="115" type="line"/>
      <point x="448" y="544" type="line"/>
      <point x="354" y="544" type="line"/>
      <point x="354" y="600" type="line"/>
      <point x="573" y="600" type="line"/>
      <point x="573" y="544" type="line"/>
      <point x="510" y="544" type="line"/>
      <point x="510" y="0" type="line"/>
      <point x="446" y="0" type="line"/>
      <point x="162" y="491" type="line"/>
      <point x="162" y="56" type="line"/>
      <point x="254" y="56" type="line"/>
      <point x="254" y="0" type="line"/>
      <point x="26" y="0" type="line"/>
      <point x="26" y="56" type="line"/>
      <point x="100" y="56" type="line"/>
      <point x="100" y="544" type="line"/>
      <point x="26" y="544" type="line"/>
    </contour>
  </outline>
</glyph>
<glyph name="P" format="1">
  <advance width="600"/>
  <unicode hex="0050"/>
  <outline>
    <contour>
      <point x="72" y="552" type="line"/>
      <point x="72" y="600" type="line"/>
      <point x="107" y="596"/>
      <point x="141" y="588"/>
      <point x="176" y="588" type="curve" smooth="yes"/>
      <point x="233" y="588"/>
      <point x="290" y="600"/>
      <point x="347" y="600" type="curve" smooth="yes"/>
      <point x="442" y="600"/>
      <point x="523" y="555"/>
      <point x="523" y="443" type="curve" smooth="yes"/>
      <point x="523" y="330"/>
      <point x="448" y="252"/>
      <point x="302" y="255" type="curve" smooth="yes"/>
      <point x="217" y="257" type="line"/>
      <point x="217" y="56" type="line"/>
      <point x="367" y="56" type="line"/>
      <point x="367" y="0" type="line"/>
      <point x="72" y="0" type="line"/>
      <point x="72" y="56" type="line"/>
      <point x="155" y="56" type="line"/>
      <point x="155" y="542" type="line"/>
    </contour>
    <contour>
      <point x="217" y="313" type="line"/>
      <point x="300" y="311" type="line" smooth="yes"/>
      <point x="407" y="308"/>
      <point x="458" y="358"/>
      <point x="458" y="442" type="curve" smooth="yes"/>
      <point x="458" y="517"/>
      <point x="405" y="554"/>
      <point x="335" y="554" type="curve" smooth="yes"/>
      <point x="295" y="554"/>
      <point x="256" y="546"/>
      <point x="217" y="542" type="curve"/>
    </contour>
  </outline>
</glyph>
<glyph name="Q" format="1">
  <advance width="600"/>
  <unicode hex="0051"/>
  <outline>
    <contour>
      <point x="367" y="60" type="curve"/>
      <point x="286" y="181" type="line"/>
      <point x="333" y="219" type="line"/>
      <point x="415" y="97" type="line"/>
      <point x="460" y="161"/>
      <point x="475" y="223"/>
      <point x="475" y="300" type="curve" smooth="yes"/>
      <point x="475" y="414"/>
      <point x="429" y="556"/>
      <point x="300" y="556" type="curve" smooth="yes"/>
      <point x="171" y="556"/>
      <point x="125" y="414"/>
      <point x="125" y="300" type="curve" smooth="yes"/>
      <point x="125" y="186"/>
      <point x="171" y="44"/>
      <point x="300" y="44" type="curve" smooth="yes"/>
      <point x="324" y="44"/>
      <point x="344" y="49"/>
    </contour>
    <contour>
      <point x="465" y="-87" type="line"/>
      <point x="399" y="12" type="line"/>
      <point x="366" y="-4"/>
      <point x="329" y="-12"/>
      <point x="300" y="-12" type="curve" smooth="yes"/>
      <point x="134" y="-12"/>
      <point x="60" y="148"/>
      <point x="60" y="300" type="curve" smooth="yes"/>
      <point x="60" y="452"/>
      <point x="134" y="612"/>
      <point x="300" y="612" type="curve" smooth="yes"/>
      <point x="466" y="612"/>
      <point x="540" y="452"/>
      <point x="540" y="300" type="curve" smooth="yes"/>
      <point x="540" y="205"/>
      <point x="519" y="130"/>
      <point x="450" y="47" type="curve"/>
      <point x="503" y="-31" type="line"/>
      <point x="575" y="-31" type="line"/>
      <point x="575" y="-87" type="line"/>
    </contour>
  </outline>
</glyph>
<glyph name="R" format="1">
  <advance width="600"/>
  <unicode hex="0052"/>
  <outline>
    <contour>
      <point x="188" y="537" type="curve"/>
      <point x="188" y="327" type="line"/>
      <point x="240" y="326" type="line" smooth="yes"/>
      <point x="367" y="324"/>
      <point x="416" y="373"/>
      <point x="416" y="438" type="curve" smooth="yes"/>
      <point x="416" y="514"/>
      <point x="361" y="544"/>
      <point x="291" y="544" type="curve" smooth="yes"/>
      <point x="258" y="544"/>
      <point x="224" y="541"/>
    </contour>
    <contour>
      <point x="351" y="283" type="curve"/>
      <point x="505" y="56" type="line"/>
      <point x="577" y="56" type="line"/>
      <point x="577" y="0" type="line"/>
      <point x="467" y="0" type="line"/>
      <point x="285" y="273" type="line"/>
      <point x="188" y="273" type="line"/>
      <point x="188" y="56" type="line"/>
      <point x="283" y="56" type="line"/>
      <point x="283" y="0" type="line"/>
      <point x="44" y="0" type="line"/>
      <point x="44" y="56" type="line"/>
      <point x="126" y="56" type="line"/>
      <point x="126" y="537" type="line"/>
      <point x="44" y="547" type="line"/>
      <point x="44" y="600" type="line"/>
      <point x="75" y="593"/>
      <point x="102" y="588"/>
      <point x="136" y="588" type="curve" smooth="yes"/>
      <point x="187" y="588"/>
      <point x="239" y="600"/>
      <point x="290" y="600" type="curve" smooth="yes"/>
      <point x="389" y="600"/>
      <point x="481" y="555"/>
      <point x="481" y="445" type="curve" smooth="yes"/>
      <point x="481" y="360"/>
      <point x="430" y="306"/>
    </contour>
  </outline>
</glyph>
<glyph name="T" format="1">
  <advance width="600"/>
  <unicode hex="0054"/>
  <outline>
    <contour>
      <point x="51" y="600" type="line"/>
      <point x="549" y="600" type="line"/>
      <point x="549" y="389" type="line"/>
      <point x="487" y="389" type="line"/>
      <point x="487" y="465" type="line" smooth="yes"/>
      <point x="487" y="535"/>
      <point x="481" y="544"/>
      <point x="412" y="544" type="curve" smooth="yes"/>
      <point x="331" y="544" type="line"/>
      <point x="331" y="56" type="line"/>
      <point x="462" y="56" type="line"/>
      <point x="462" y="0" type="line"/>
      <point x="138" y="0" type="line"/>
      <point x="138" y="56" type="line"/>
      <point x="269" y="56" type="line"/>
      <point x="269" y="544" type="line"/>
      <point x="188" y="544" type="line" smooth="yes"/>
      <point x="119" y="544"/>
      <point x="113" y="535"/>
      <point x="113" y="465" type="curve" smooth="yes"/>
      <point x="113" y="389" type="line"/>
      <point x="51" y="389" type="line"/>
    </contour>
  </outline>
</glyph>
<glyph name="V" format="1">
  <advance width="600"/>
  <unicode hex="0056"/>
  <outline>
    <contour>
      <point x="28" y="600" type="line"/>
      <point x="237" y="600" type="line"/>
      <point x="237" y="544" type="line"/>
      <point x="154" y="544" type="line"/>
      <point x="300" y="76" type="line"/>
      <point x="445" y="544" type="line"/>
      <point x="363" y="544" type="line"/>
      <point x="363" y="600" type="line"/>
      <point x="572" y="600" type="line"/>
      <point x="572" y="544" type="line"/>
      <point x="508" y="544" type="line"/>
      <point x="337" y="-12" type="line"/>
      <point x="262" y="-12" type="line"/>
      <point x="92" y="544" type="line"/>
      <point x="28" y="544" type="line"/>
    </contour>
  </outline>
</glyph>
<glyph name="W" format="1">
  <advance width="600"/>
  <unicode hex="0057"/>
  <outline>
    <contour>
      <point x="21" y="600" type="line"/>
      <point x="202" y="600" type="line"/>
      <point x="202" y="544" type="line"/>
      <point x="124" y="544" type="line"/>
      <point x="187" y="110" type="line"/>
      <point x="189" y="110" type="line"/>
      <point x="300" y="421" type="line"/>
      <point x="411" y="110" type="line"/>
      <point x="413" y="110" type="line"/>
      <point x="476" y="544" type="line"/>
      <point x="398" y="544" type="line"/>
      <point x="398" y="600" type="line"/>
      <point x="579" y="600" type="line"/>
      <point x="579" y="544" type="line"/>
      <point x="536" y="544" type="line"/>
      <point x="455" y="-12" type="line"/>
      <point x="395" y="-12" type="line"/>
      <point x="300" y="249" type="line"/>
      <point x="205" y="-12" type="line"/>
      <point x="145" y="-12" type="line"/>
      <point x="64" y="544" type="line"/>
      <point x="21" y="544" type="line"/>
    </contour>
  </outline>
</glyph>
<glyph name="X" format="1">
  <advance width="600"/>
  <unicode hex="0058"/>
  <outline>
    <contour>
      <point x="300" y="359" type="line"/>
      <point x="420" y="544" type="line"/>
      <point x="348" y="544" type="line"/>
      <point x="348" y="600" type="line"/>
      <point x="547" y="600" type="line"/>
      <point x="547" y="544" type="line"/>
      <point x="487" y="544" type="line"/>
      <point x="336" y="310" type="line"/>
      <point x="506" y="56" type="line"/>
      <point x="571" y="56" type="line"/>
      <point x="571" y="0" type="line"/>
      <point x="347" y="0" type="line"/>
      <point x="347" y="56" type="line"/>
      <point x="436" y="56" type="line"/>
      <point x="300" y="258" type="line"/>
      <point x="164" y="56" type="line"/>
      <point x="253" y="56" type="line"/>
      <point x="253" y="0" type="line"/>
      <point x="29" y="0" type="line"/>
      <point x="29" y="56" type="line"/>
      <point x="94" y="56" type="line"/>
      <point x="264" y="310" type="line"/>
      <point x="113" y="544" type="line"/>
      <point x="53" y="544" type="line"/>
      <point x="53" y="600" type="line"/>
      <point x="253" y="600" type="line"/>
      <point x="253" y="544" type="line"/>
      <point x="181" y="544" type="line"/>
    </contour>
  </outline>
</glyph>
<glyph name="Z" format="1">
  <advance width="600"/>
  <unicode hex="005A"/>
  <outline>
    <contour>
      <point x="491" y="600" type="line"/>
      <point x="491" y="552" type="line"/>
      <point x="152" y="56" type="line"/>
      <point x="381" y="56" type="line" smooth="yes"/>
      <point x="455" y="56"/>
      <point x="463" y="65"/>
      <point x="463" y="168" type="curve" smooth="yes"/>
      <point x="463" y="195" type="line"/>
      <point x="525" y="195" type="line"/>
      <point x="525" y="0" type="line"/>
      <point x="76" y="0" type="line"/>
      <point x="76" y="48" type="line"/>
      <point x="416" y="544" type="line"/>
      <point x="233" y="544" type="line" smooth="yes"/>
      <point x="159" y="544"/>
      <point x="151" y="533"/>
      <point x="151" y="432" type="curve" smooth="yes"/>
      <point x="151" y="405" type="line"/>
      <point x="89" y="405" type="line"/>
      <point x="89" y="600" type="line"/>
    </contour>
  </outline>
</glyph>
<glyph name="bracketleft" format="1">
  <advance width="600"/>
  <unicode hex="005B"/>
  <outline>
    <contour>
      <point x="489" y="703" type="line"/>
      <point x="489" y="647" type="line"/>
      <point x="344" y="647" type="line"/>
      <point x="344" y="-53" type="line"/>
      <point x="489" y="-53" type="line"/>
      <point x="489" y="-109" type="line"/>
      <point x="282" y="-109" type="line"/>
      <point x="282" y="703" type="line"/>
    </contour>
  </outline>
</glyph>
<glyph name="backslash" format="1">
  <advance width="600"/>
  <unicode hex="005C"/>
  <outline>
    <contour>
      <point x="413" y="-27" type="line"/>
      <point x="112" y="747" type="line"/>
      <point x="187" y="747" type="line"/>
      <point x="488" y="-27" type="line"/>
    </contour>
  </outline>
</glyph>
<glyph name="bracketright" format="1">
  <advance width="600"/>
  <unicode hex="005D"/>
  <outline>
    <contour>
      <point x="111" y="647" type="line"/>
      <point x="111" y="703" type="line"/>
      <point x="318" y="703" type="line"/>
      <point x="318" y="-109" type="line"/>
      <point x="111" y="-109" type="line"/>
      <point x="111" y="-53" type="line"/>
      <point x="256" y="-53" type="line"/>
      <point x="256" y="647" type="line"/>
    </contour>
  </outline>
</glyph>
<glyph name="asciicircum" format="1">
  <advance width="600"/>
  <unicode hex="005E"/>
  <outline>
    <contour>
      <point x="177" y="357" type="line"/>
      <point x="103" y="357" type="line"/>
      <point x="267" y="680" type="line"/>
      <point x="333" y="680" type="line"/>
      <point x="497" y="357" type="line"/>
      <point x="423" y="357" type="line"/>
      <point x="300" y="599" type="line"/>
    </contour>
  </outline>
</glyph>
<glyph name="underscore" format="1">
  <advance width="600"/>
  <unicode hex="005F"/>
  <outline>
    <contour>
      <point x="600" y="-108" type="line"/>
      <point x="0" y="-108" type="line"/>
      <point x="0" y="-72" type="line"/>
      <point x="600" y="-72" type="line"/>
    </contour>
  </outline>
</glyph>
<glyph name="grave" format="1">
  <advance width="600"/>
  <unicode hex="0060"/>
  <outline>
    <contour>
      <point x="194" y="660" type="line"/>
      <point x="382" y="509" type="line"/>
      <point x="346" y="465" type="line"/>
      <point x="143" y="599" type="line"/>
    </contour>
  </outline>
</glyph>
<glyph name="b" format="1">
  <advance width="600"/>
  <unicode hex="0062"/>
  <outline>
    <contour>
      <point x="188" y="327" type="curve"/>
      <point x="188" y="86" type="line"/>
      <point x="214" y="57"/>
      <point x="257" y="44"/>
      <point x="295" y="44" type="curve" smooth="yes"/>
      <point x="392" y="44"/>
      <point x="447" y="113"/>
      <point x="447" y="207" type="curve" smooth="yes"/>
      <point x="447" y="289"/>
      <point x="401" y="370"/>
      <point x="310" y="370" type="curve" smooth="yes"/>
      <point x="264" y="370"/>
      <point x="224" y="356"/>
    </contour>
    <contour>
      <point x="188" y="606" type="curve" smooth="yes"/>
      <point x="188" y="395" type="line"/>
      <point x="231" y="414"/>
      <point x="263" y="426"/>
      <point x="310" y="426" type="curve" smooth="yes"/>
      <point x="434" y="426"/>
      <point x="512" y="331"/>
      <point x="512" y="212" type="curve" smooth="yes"/>
      <point x="512" y="85"/>
      <point x="428" y="-12"/>
      <point x="298" y="-12" type="curve" smooth="yes"/>
      <point x="254" y="-12"/>
      <point x="216" y="1"/>
      <point x="180" y="24" type="curve"/>
      <point x="172" y="6"/>
      <point x="160" y="-10"/>
      <point x="148" y="-26" type="curve"/>
      <point x="96" y="0" type="line"/>
      <point x="121" y="35"/>
      <point x="126" y="36"/>
      <point x="126" y="78" type="curve" smooth="yes"/>
      <point x="126" y="571" type="line"/>
      <point x="36" y="559" type="line"/>
      <point x="27" y="610" type="line"/>
      <point x="59" y="616"/>
      <point x="109" y="612"/>
      <point x="132" y="639" type="curve" smooth="yes"/>
      <point x="140" y="648"/>
      <point x="146" y="656"/>
      <point x="159" y="656" type="curve" smooth="yes"/>
      <point x="188" y="656"/>
      <point x="188" y="628"/>
    </contour>
  </outline>
</glyph>
<glyph name="c" format="1">
  <advance width="600"/>
  <unicode hex="0063"/>
  <outline>
    <contour>
      <point x="487" y="88" type="curve"/>
      <point x="509" y="37" type="line"/>
      <point x="452" y="6"/>
      <point x="379" y="-12"/>
      <point x="315" y="-12" type="curve" smooth="yes"/>
      <point x="188" y="-12"/>
      <point x="86" y="72"/>
      <point x="86" y="203" type="curve" smooth="yes"/>
      <point x="86" y="335"/>
      <point x="185" y="426"/>
      <point x="315" y="426" type="curve" smooth="yes"/>
      <point x="370" y="426"/>
      <point x="440" y="409"/>
      <point x="468" y="356" type="curve"/>
      <point x="466" y="306" type="line"/>
      <point x="469" y="255" type="line"/>
      <point x="405" y="255" type="line"/>
      <point x="406" y="283" type="line" smooth="yes"/>
      <point x="408" y="348"/>
      <point x="373" y="370"/>
      <point x="310" y="370" type="curve" smooth="yes"/>
      <point x="217" y="370"/>
      <point x="151" y="303"/>
      <point x="151" y="210" type="curve" smooth="yes"/>
      <point x="151" y="111"/>
      <point x="218" y="44"/>
      <point x="317" y="44" type="curve" smooth="yes"/>
      <point x="374" y="44"/>
      <point x="436" y="62"/>
    </contour>
  </outline>
</glyph>
<glyph name="d" format="1">
  <advance width="600"/>
  <unicode hex="0064"/>
  <outline>
    <contour>
      <point x="393" y="80" type="curve"/>
      <point x="393" y="342" type="line"/>
      <point x="364" y="359"/>
      <point x="331" y="370"/>
      <point x="297" y="370" type="curve" smooth="yes"/>
      <point x="201" y="370"/>
      <point x="145" y="294"/>
      <point x="145" y="203" type="curve" smooth="yes"/>
      <point x="145" y="122"/>
      <point x="201" y="44"/>
      <point x="287" y="44" type="curve" smooth="yes"/>
      <point x="325" y="44"/>
      <point x="363" y="58"/>
    </contour>
    <contour>
      <point x="393" y="0" type="line"/>
      <point x="393" y="16" type="line"/>
      <point x="355" y="0"/>
      <point x="325" y="-12"/>
      <point x="283" y="-12" type="curve" smooth="yes"/>
      <point x="165" y="-12"/>
      <point x="80" y="90"/>
      <point x="80" y="204" type="curve" smooth="yes"/>
      <point x="80" y="318"/>
      <point x="163" y="426"/>
      <point x="283" y="426" type="curve" smooth="yes"/>
      <point x="318" y="426"/>
      <point x="359" y="415"/>
      <point x="393" y="405" type="curve"/>
      <point x="393" y="571" type="line"/>
      <point x="303" y="559" type="line"/>
      <point x="294" y="610" type="line"/>
      <point x="326" y="616"/>
      <point x="376" y="612"/>
      <point x="399" y="639" type="curve" smooth="yes"/>
      <point x="407" y="648"/>
      <point x="413" y="656"/>
      <point x="426" y="656" type="curve" smooth="yes"/>
      <point x="455" y="656"/>
      <point x="455" y="628"/>
      <point x="455" y="606" type="curve" smooth="yes"/>
      <point x="455" y="56" type="line"/>
      <point x="533" y="56" type="line"/>
      <point x="533" y="0" type="line"/>
    </contour>
  </outline>
</glyph>
<glyph name="e" format="1">
  <advance width="600"/>
  <unicode hex="0065"/>
  <outline>
    <contour>
      <point x="510" y="183" type="curve"/>
      <point x="152" y="183" type="line"/>
      <point x="158" y="96"/>
      <point x="226" y="44"/>
      <point x="333" y="44" type="curve" smooth="yes"/>
      <point x="396" y="44"/>
      <point x="456" y="64"/>
      <point x="518" y="91" type="curve"/>
      <point x="536" y="40" type="line"/>
      <point x="473" y="9"/>
      <point x="395" y="-12"/>
      <point x="325" y="-12" type="curve" smooth="yes"/>
      <point x="144" y="-12"/>
      <point x="87" y="108"/>
      <point x="87" y="198" type="curve" smooth="yes"/>
      <point x="87" y="326"/>
      <point x="181" y="426"/>
      <point x="310" y="426" type="curve" smooth="yes"/>
      <point x="433" y="426"/>
      <point x="514" y="349"/>
      <point x="514" y="225" type="curve" smooth="yes"/>
      <point x="514" y="211"/>
      <point x="513" y="197"/>
    </contour>
    <contour>
      <point x="152" y="239" type="curve"/>
      <point x="451" y="239" type="line"/>
      <point x="451" y="317"/>
      <point x="386" y="370"/>
      <point x="311" y="370" type="curve" smooth="yes"/>
      <point x="235" y="370"/>
      <point x="167" y="314"/>
    </contour>
  </outline>
</glyph>
<glyph name="f" format="1">
  <advance width="600"/>
  <unicode hex="0066"/>
  <outline>
    <contour>
      <point x="487" y="414" type="line"/>
      <point x="487" y="358" type="line"/>
      <point x="288" y="358" type="line"/>
      <point x="288" y="56" type="line"/>
      <point x="465" y="56" type="line"/>
      <point x="465" y="0" type="line"/>
      <point x="109" y="0" type="line"/>
      <point x="109" y="56" type="line"/>
      <point x="226" y="56" type="line"/>
      <point x="226" y="358" type="line"/>
      <point x="79" y="358" type="line"/>
      <point x="79" y="414" type="line"/>
      <point x="226" y="414" type="line"/>
      <point x="226" y="473" type="line" smooth="yes"/>
      <point x="226" y="585"/>
      <point x="267" y="623"/>
      <point x="359" y="623" type="curve" smooth="yes"/>
      <point x="429" y="623"/>
      <point x="511" y="600"/>
      <point x="569" y="562" type="curve"/>
      <point x="530" y="513" type="line"/>
      <point x="480" y="549"/>
      <point x="417" y="567"/>
      <point x="358" y="567" type="curve" smooth="yes"/>
      <point x="290" y="567"/>
      <point x="288" y="521"/>
      <point x="288" y="469" type="curve" smooth="yes"/>
      <point x="288" y="414" type="line"/>
    </contour>
  </outline>
</glyph>
<glyph name="g" format="1">
  <advance width="600"/>
  <unicode hex="0067"/>
  <outline>
    <contour>
      <point x="347" y="414" type="curve"/>
      <point x="491" y="414" type="line"/>
      <point x="491" y="358" type="line"/>
      <point x="418" y="358" type="line"/>
      <point x="438" y="327"/>
      <point x="448" y="304"/>
      <point x="448" y="266" type="curve" smooth="yes"/>
      <point x="448" y="167"/>
      <point x="379" y="110"/>
      <point x="283" y="110" type="curve"/>
      <point x="249" y="113" type="line"/>
      <point x="237" y="107"/>
      <point x="199" y="75"/>
      <point x="199" y="63" type="curve" smooth="yes"/>
      <point x="199" y="56"/>
      <point x="234" y="56"/>
      <point x="249" y="56" type="curve" smooth="yes"/>
      <point x="402" y="56" type="line" smooth="yes"/>
      <point x="491" y="56"/>
      <point x="544" y="21"/>
      <point x="544" y="-52" type="curve" smooth="yes"/>
      <point x="544" y="-179"/>
      <point x="397" y="-208"/>
      <point x="297" y="-208" type="curve" smooth="yes"/>
      <point x="219" y="-208"/>
      <point x="88" y="-197"/>
      <point x="88" y="-92" type="curve" smooth="yes"/>
      <point x="88" y="-48"/>
      <point x="118" y="-7"/>
      <point x="155" y="16" type="curve"/>
      <point x="145" y="23"/>
      <point x="134" y="36"/>
      <point x="134" y="58" type="curve" smooth="yes"/>
      <point x="134" y="86"/>
      <point x="164" y="111"/>
      <point x="188" y="133" type="curve"/>
      <point x="136" y="164"/>
      <point x="108" y="203"/>
      <point x="108" y="265" type="curve" smooth="yes"/>
      <point x="108" y="351"/>
      <point x="181" y="426"/>
      <point x="267" y="426" type="curve" smooth="yes"/>
      <point x="294" y="426"/>
      <point x="321" y="421"/>
    </contour>
    <contour>
      <point x="383" y="265" type="curve" smooth="yes"/>
      <point x="383" y="326"/>
      <point x="344" y="370"/>
      <point x="282" y="370" type="curve" smooth="yes"/>
      <point x="223" y="370"/>
      <point x="173" y="331"/>
      <point x="173" y="270" type="curve" smooth="yes"/>
      <point x="173" y="202"/>
      <point x="219" y="166"/>
      <point x="285" y="166" type="curve" smooth="yes"/>
      <point x="352" y="166"/>
      <point x="383" y="208"/>
    </contour>
    <contour>
      <point x="392" y="0" type="curve" smooth="yes"/>
      <point x="223" y="0" type="line"/>
      <point x="191" y="-22"/>
      <point x="152" y="-46"/>
      <point x="152" y="-89" type="curve" smooth="yes"/>
      <point x="152" y="-150"/>
      <point x="247" y="-152"/>
      <point x="291" y="-152" type="curve" smooth="yes"/>
      <point x="357" y="-152"/>
      <point x="479" y="-140"/>
      <point x="479" y="-59" type="curve" smooth="yes"/>
      <point x="479" y="-4"/>
      <point x="436" y="0"/>
    </contour>
  </outline>
</glyph>
<glyph name="h" format="1">
  <advance width="600"/>
  <unicode hex="0068"/>
  <outline>
    <contour>
      <point x="182" y="606" type="curve" smooth="yes"/>
      <point x="182" y="378" type="line"/>
      <point x="233" y="402"/>
      <point x="283" y="426"/>
      <point x="341" y="426" type="curve" smooth="yes"/>
      <point x="389" y="426"/>
      <point x="441" y="408"/>
      <point x="464" y="363" type="curve" smooth="yes"/>
      <point x="482" y="328"/>
      <point x="481" y="282"/>
      <point x="481" y="243" type="curve" smooth="yes"/>
      <point x="481" y="56" type="line"/>
      <point x="549" y="56" type="line"/>
      <point x="549" y="0" type="line"/>
      <point x="351" y="0" type="line"/>
      <point x="351" y="56" type="line"/>
      <point x="419" y="56" type="line"/>
      <point x="419" y="241" type="line" smooth="yes"/>
      <point x="419" y="302"/>
      <point x="423" y="370"/>
      <point x="341" y="370" type="curve" smooth="yes"/>
      <point x="284" y="370"/>
      <point x="229" y="343"/>
      <point x="182" y="314" type="curve"/>
      <point x="182" y="56" type="line"/>
      <point x="250" y="56" type="line"/>
      <point x="250" y="0" type="line"/>
      <point x="52" y="0" type="line"/>
      <point x="52" y="56" type="line"/>
      <point x="120" y="56" type="line"/>
      <point x="120" y="571" type="line"/>
      <point x="30" y="559" type="line"/>
      <point x="21" y="610" type="line"/>
      <point x="53" y="616"/>
      <point x="103" y="612"/>
      <point x="126" y="639" type="curve" smooth="yes"/>
      <point x="134" y="648"/>
      <point x="140" y="656"/>
      <point x="153" y="656" type="curve" smooth="yes"/>
      <point x="182" y="656"/>
      <point x="182" y="628"/>
    </contour>
  </outline>
</glyph>
<glyph name="i" format="1">
  <advance width="600"/>
  <unicode hex="0069"/>
  <outline>
    <contour>
      <point x="102" y="0" type="line"/>
      <point x="102" y="56" type="line"/>
      <point x="301" y="56" type="line"/>
      <point x="301" y="356" type="line"/>
      <point x="267" y="350"/>
      <point x="233" y="344"/>
      <point x="198" y="346" type="curve" smooth="yes"/>
      <point x="113" y="351" type="line"/>
      <point x="103" y="406" type="line"/>
      <point x="194" y="400" type="line" smooth="yes"/>
      <point x="225" y="398"/>
      <point x="284" y="402"/>
      <point x="306" y="428" type="curve" smooth="yes"/>
      <point x="314" y="437"/>
      <point x="320" y="443"/>
      <point x="333" y="443" type="curve" smooth="yes"/>
      <point x="364" y="443"/>
      <point x="363" y="413"/>
      <point x="363" y="391" type="curve" smooth="yes"/>
      <point x="363" y="56" type="line"/>
      <point x="539" y="56" type="line"/>
      <point x="539" y="0" type="line"/>
    </contour>
    <contour>
      <point x="386" y="579" type="curve" smooth="yes"/>
      <point x="386" y="544"/>
      <point x="356" y="517"/>
      <point x="322" y="517" type="curve" smooth="yes"/>
      <point x="287" y="517"/>
      <point x="257" y="544"/>
      <point x="257" y="579" type="curve" smooth="yes"/>
      <point x="257" y="615"/>
      <point x="287" y="642"/>
      <point x="322" y="642" type="curve" smooth="yes"/>
      <point x="356" y="642"/>
      <point x="386" y="615"/>
    </contour>
  </outline>
</glyph>
<glyph name="j" format="1">
  <advance width="600"/>
  <unicode hex="006A"/>
  <outline>
    <contour>
      <point x="404" y="391" type="curve" smooth="yes"/>
      <point x="404" y="3" type="line" smooth="yes"/>
      <point x="404" y="-40"/>
      <point x="406" y="-90"/>
      <point x="393" y="-131" type="curve" smooth="yes"/>
      <point x="376" y="-186"/>
      <point x="325" y="-208"/>
      <point x="270" y="-208" type="curve" smooth="yes"/>
      <point x="199" y="-208"/>
      <point x="120" y="-188"/>
      <point x="60" y="-148" type="curve"/>
      <point x="100" y="-98" type="line"/>
      <point x="149" y="-131"/>
      <point x="207" y="-152"/>
      <point x="266" y="-152" type="curve" smooth="yes"/>
      <point x="350" y="-152"/>
      <point x="342" y="-80"/>
      <point x="342" y="-19" type="curve" smooth="yes"/>
      <point x="342" y="356" type="line"/>
      <point x="308" y="350"/>
      <point x="274" y="344"/>
      <point x="239" y="346" type="curve" smooth="yes"/>
      <point x="154" y="351" type="line"/>
      <point x="144" y="406" type="line"/>
      <point x="235" y="400" type="line" smooth="yes"/>
      <point x="266" y="398"/>
      <point x="325" y="402"/>
      <point x="347" y="428" type="curve" smooth="yes"/>
      <point x="355" y="437"/>
      <point x="361" y="443"/>
      <point x="374" y="443" type="curve" smooth="yes"/>
      <point x="405" y="443"/>
      <point x="404" y="413"/>
    </contour>
    <contour>
      <point x="439" y="579" type="curve" smooth="yes"/>
      <point x="439" y="544"/>
      <point x="409" y="517"/>
      <point x="375" y="517" type="curve" smooth="yes"/>
      <point x="340" y="517"/>
      <point x="310" y="544"/>
      <point x="310" y="579" type="curve" smooth="yes"/>
      <point x="310" y="615"/>
      <point x="340" y="642"/>
      <point x="375" y="642" type="curve" smooth="yes"/>
      <point x="409" y="642"/>
      <point x="439" y="615"/>
    </contour>
  </outline>
</glyph>
<glyph name="k" format="1">
  <advance width="600"/>
  <unicode hex="006B"/>
  <outline>
    <contour>
      <point x="191" y="606" type="curve" smooth="yes"/>
      <point x="191" y="203" type="line"/>
      <point x="360" y="358" type="line"/>
      <point x="318" y="358" type="line"/>
      <point x="318" y="414" type="line"/>
      <point x="512" y="414" type="line"/>
      <point x="512" y="358" type="line"/>
      <point x="441" y="358" type="line"/>
      <point x="327" y="250" type="line"/>
      <point x="483" y="56" type="line"/>
      <point x="560" y="56" type="line"/>
      <point x="560" y="0" type="line"/>
      <point x="364" y="0" type="line"/>
      <point x="364" y="56" type="line"/>
      <point x="409" y="56" type="line"/>
      <point x="284" y="212" type="line"/>
      <point x="191" y="133" type="line"/>
      <point x="191" y="56" type="line"/>
      <point x="266" y="56" type="line"/>
      <point x="266" y="0" type="line"/>
      <point x="34" y="0" type="line"/>
      <point x="34" y="56" type="line"/>
      <point x="129" y="56" type="line"/>
      <point x="129" y="571" type="line"/>
      <point x="39" y="559" type="line"/>
      <point x="30" y="610" type="line"/>
      <point x="62" y="616"/>
      <point x="112" y="612"/>
      <point x="135" y="639" type="curve" smooth="yes"/>
      <point x="143" y="648"/>
      <point x="149" y="656"/>
      <point x="162" y="656" type="curve" smooth="yes"/>
      <point x="191" y="656"/>
      <point x="191" y="628"/>
    </contour>
  </outline>
</glyph>
<glyph name="m" format="1">
  <advance width="600"/>
  <unicode hex="006D"/>
  <outline>
    <contour>
      <point x="153" y="328" type="curve"/>
      <point x="153" y="56" type="line"/>
      <point x="194" y="56" type="line"/>
      <point x="194" y="0" type="line"/>
      <point x="31" y="0" type="line"/>
      <point x="31" y="56" type="line"/>
      <point x="91" y="56" type="line"/>
      <point x="91" y="358" type="line"/>
      <point x="18" y="348" type="line"/>
      <point x="9" y="399" type="line"/>
      <point x="41" y="401"/>
      <point x="74" y="405"/>
      <point x="97" y="426" type="curve" smooth="yes"/>
      <point x="105" y="435"/>
      <point x="111" y="443"/>
      <point x="124" y="443" type="curve" smooth="yes"/>
      <point x="153" y="443"/>
      <point x="153" y="415"/>
      <point x="153" y="393" type="curve"/>
      <point x="181" y="411"/>
      <point x="211" y="426"/>
      <point x="245" y="426" type="curve" smooth="yes"/>
      <point x="276" y="426"/>
      <point x="305" y="412"/>
      <point x="320" y="385" type="curve"/>
      <point x="353" y="410"/>
      <point x="393" y="426"/>
      <point x="435" y="426" type="curve" smooth="yes"/>
      <point x="474" y="426"/>
      <point x="510" y="405"/>
      <point x="520" y="366" type="curve" smooth="yes"/>
      <point x="527" y="341"/>
      <point x="527" y="314"/>
      <point x="527" y="288" type="curve" smooth="yes"/>
      <point x="527" y="56" type="line"/>
      <point x="587" y="56" type="line"/>
      <point x="587" y="0" type="line"/>
      <point x="424" y="0" type="line"/>
      <point x="424" y="56" type="line"/>
      <point x="465" y="56" type="line"/>
      <point x="465" y="288" type="line" smooth="yes"/>
      <point x="465" y="318"/>
      <point x="471" y="370"/>
      <point x="428" y="370" type="curve" smooth="yes"/>
      <point x="397" y="370"/>
      <point x="363" y="348"/>
      <point x="340" y="328" type="curve"/>
      <point x="340" y="56" type="line"/>
      <point x="381" y="56" type="line"/>
      <point x="381" y="0" type="line"/>
      <point x="237" y="0" type="line"/>
      <point x="237" y="56" type="line"/>
      <point x="278" y="56" type="line"/>
      <point x="278" y="288" type="line" smooth="yes"/>
      <point x="278" y="314"/>
      <point x="281" y="370"/>
      <point x="243" y="370" type="curve" smooth="yes"/>
      <point x="210" y="370"/>
      <point x="178" y="347"/>
    </contour>
  </outline>
</glyph>
<glyph name="n" format="1">
  <advance width="600"/>
  <unicode hex="006E"/>
  <outline>
    <contour>
      <point x="182" y="314" type="curve"/>
      <point x="182" y="56" type="line"/>
      <point x="250" y="56" type="line"/>
      <point x="250" y="0" type="line"/>
      <point x="52" y="0" type="line"/>
      <point x="52" y="56" type="line"/>
      <point x="120" y="56" type="line"/>
      <point x="120" y="358" type="line"/>
      <point x="47" y="348" type="line"/>
      <point x="38" y="399" type="line"/>
      <point x="70" y="401"/>
      <point x="103" y="405"/>
      <point x="126" y="426" type="curve" smooth="yes"/>
      <point x="134" y="435"/>
      <point x="140" y="443"/>
      <point x="153" y="443" type="curve" smooth="yes"/>
      <point x="182" y="443"/>
      <point x="182" y="415"/>
      <point x="182" y="393" type="curve" smooth="yes"/>
      <point x="182" y="378" type="line"/>
      <point x="233" y="402"/>
      <point x="283" y="426"/>
      <point x="341" y="426" type="curve" smooth="yes"/>
      <point x="389" y="426"/>
      <point x="441" y="408"/>
      <point x="464" y="363" type="curve" smooth="yes"/>
      <point x="482" y="328"/>
      <point x="481" y="282"/>
      <point x="481" y="243" type="curve" smooth="yes"/>
      <point x="481" y="56" type="line"/>
      <point x="549" y="56" type="line"/>
      <point x="549" y="0" type="line"/>
      <point x="351" y="0" type="line"/>
      <point x="351" y="56" type="line"/>
      <point x="419" y="56" type="line"/>
      <point x="419" y="241" type="line" smooth="yes"/>
      <point x="419" y="302"/>
      <point x="423" y="370"/>
      <point x="341" y="370" type="curve" smooth="yes"/>
      <point x="284" y="370"/>
      <point x="229" y="343"/>
    </contour>
  </outline>
</glyph>
<glyph name="o" format="1">
  <advance width="600"/>
  <unicode hex="006F"/>
  <outline>
    <contour>
      <point x="300" y="-12" type="curve" smooth="yes"/>
      <point x="176" y="-12"/>
      <point x="82" y="84"/>
      <point x="82" y="207" type="curve" smooth="yes"/>
      <point x="82" y="331"/>
      <point x="176" y="426"/>
      <point x="300" y="426" type="curve" smooth="yes"/>
      <point x="424" y="426"/>
      <point x="518" y="331"/>
      <point x="518" y="207" type="curve" smooth="yes"/>
      <point x="518" y="84"/>
      <point x="424" y="-12"/>
    </contour>
    <contour>
      <point x="300" y="44" type="curve" smooth="yes"/>
      <point x="392" y="44"/>
      <point x="453" y="119"/>
      <point x="453" y="207" type="curve" smooth="yes"/>
      <point x="453" y="296"/>
      <point x="392" y="370"/>
      <point x="300" y="370" type="curve" smooth="yes"/>
      <point x="208" y="370"/>
      <point x="147" y="296"/>
      <point x="147" y="207" type="curve" smooth="yes"/>
      <point x="147" y="119"/>
      <point x="208" y="44"/>
    </contour>
  </outline>
</glyph>
<glyph name="p" format="1">
  <advance width="600"/>
  <unicode hex="0070"/>
  <outline>
    <contour>
      <point x="204" y="304" type="curve"/>
      <point x="204" y="69" type="line"/>
      <point x="234" y="52"/>
      <point x="265" y="44"/>
      <point x="299" y="44" type="curve" smooth="yes"/>
      <point x="391" y="44"/>
      <point x="452" y="121"/>
      <point x="452" y="209" type="curve" smooth="yes"/>
      <point x="452" y="286"/>
      <point x="408" y="370"/>
      <point x="322" y="370" type="curve" smooth="yes"/>
      <point x="277" y="370"/>
      <point x="229" y="341"/>
    </contour>
    <contour>
      <point x="204" y="7" type="curve"/>
      <point x="204" y="-141" type="line"/>
      <point x="300" y="-141" type="line"/>
      <point x="300" y="-197" type="line"/>
      <point x="82" y="-197" type="line"/>
      <point x="82" y="-141" type="line"/>
      <point x="142" y="-141" type="line"/>
      <point x="142" y="358" type="line"/>
      <point x="69" y="348" type="line"/>
      <point x="60" y="399" type="line"/>
      <point x="92" y="401"/>
      <point x="125" y="405"/>
      <point x="148" y="426" type="curve" smooth="yes"/>
      <point x="156" y="435"/>
      <point x="162" y="443"/>
      <point x="175" y="443" type="curve" smooth="yes"/>
      <point x="204" y="443"/>
      <point x="204" y="415"/>
      <point x="204" y="393" type="curve" smooth="yes"/>
      <point x="204" y="382" type="line"/>
      <point x="244" y="408"/>
      <point x="273" y="426"/>
      <point x="323" y="426" type="curve" smooth="yes"/>
      <point x="445" y="426"/>
      <point x="517" y="323"/>
      <point x="517" y="209" type="curve" smooth="yes"/>
      <point x="517" y="41"/>
      <point x="372" y="-12"/>
      <point x="314" y="-12" type="curve" smooth="yes"/>
      <point x="276" y="-12"/>
      <point x="240" y="-3"/>
    </contour>
  </outline>
</glyph>
<glyph name="q" format="1">
  <advance width="600"/>
  <unicode hex="0071"/>
  <outline>
    <contour>
      <point x="463" y="340" type="curve" smooth="yes"/>
      <point x="463" y="-141" type="line"/>
      <point x="551" y="-141" type="line"/>
      <point x="551" y="-197" type="line"/>
      <point x="291" y="-197" type="line"/>
      <point x="291" y="-141" type="line"/>
      <point x="401" y="-141" type="line"/>
      <point x="401" y="-6" type="line"/>
      <point x="385" y="-7"/>
      <point x="369" y="-9"/>
      <point x="353" y="-10" type="curve" smooth="yes"/>
      <point x="336" y="-12"/>
      <point x="320" y="-12"/>
      <point x="304" y="-12" type="curve" smooth="yes"/>
      <point x="173" y="-12"/>
      <point x="92" y="72"/>
      <point x="92" y="203" type="curve" smooth="yes"/>
      <point x="92" y="375"/>
      <point x="232" y="426"/>
      <point x="299" y="426" type="curve" smooth="yes"/>
      <point x="344" y="426"/>
      <point x="371" y="416"/>
      <point x="410" y="397" type="curve"/>
      <point x="431" y="451" type="line"/>
      <point x="485" y="429" type="line"/>
      <point x="469" y="393"/>
      <point x="463" y="380"/>
    </contour>
    <contour>
      <point x="401" y="50" type="curve"/>
      <point x="401" y="341" type="line"/>
      <point x="374" y="359"/>
      <point x="334" y="370"/>
      <point x="301" y="370" type="curve" smooth="yes"/>
      <point x="206" y="370"/>
      <point x="157" y="285"/>
      <point x="157" y="198" type="curve" smooth="yes"/>
      <point x="157" y="90"/>
      <point x="221" y="44"/>
      <point x="323" y="44" type="curve" smooth="yes"/>
      <point x="349" y="44"/>
      <point x="375" y="45"/>
    </contour>
  </outline>
</glyph>
<glyph name="r" format="1">
  <advance width="600"/>
  <unicode hex="0072"/>
  <outline>
    <contour>
      <point x="251" y="264" type="curve"/>
      <point x="251" y="56" type="line"/>
      <point x="432" y="56" type="line"/>
      <point x="432" y="0" type="line"/>
      <point x="102" y="0" type="line"/>
      <point x="102" y="56" type="line"/>
      <point x="189" y="56" type="line"/>
      <point x="189" y="357" type="line"/>
      <point x="116" y="347" type="line"/>
      <point x="107" y="398" type="line"/>
      <point x="139" y="400"/>
      <point x="172" y="404"/>
      <point x="195" y="425" type="curve" smooth="yes"/>
      <point x="203" y="434"/>
      <point x="209" y="442"/>
      <point x="222" y="442" type="curve" smooth="yes"/>
      <point x="251" y="442"/>
      <point x="251" y="414"/>
      <point x="251" y="392" type="curve" smooth="yes"/>
      <point x="251" y="339" type="line"/>
      <point x="306" y="379"/>
      <point x="359" y="426"/>
      <point x="431" y="426" type="curve" smooth="yes"/>
      <point x="483" y="426"/>
      <point x="516" y="391"/>
      <point x="532" y="345" type="curve"/>
      <point x="470" y="320" type="line"/>
      <point x="462" y="341"/>
      <point x="452" y="370"/>
      <point x="425" y="370" type="curve" smooth="yes"/>
      <point x="374" y="370"/>
      <point x="290" y="299"/>
    </contour>
  </outline>
</glyph>
<glyph name="s" format="1">
  <advance width="600"/>
  <unicode hex="0073"/>
  <outline>
    <contour>
      <point x="430" y="403" type="curve"/>
      <point x="440" y="447" type="line"/>
      <point x="495" y="436" type="line"/>
      <point x="487" y="404"/>
      <point x="481" y="372"/>
      <point x="481" y="339" type="curve" smooth="yes"/>
      <point x="481" y="317"/>
      <point x="483" y="296"/>
      <point x="488" y="275" type="curve"/>
      <point x="428" y="270" type="line"/>
      <point x="425" y="292" type="line" smooth="yes"/>
      <point x="418" y="341"/>
      <point x="403" y="370"/>
      <point x="304" y="370" type="curve" smooth="yes"/>
      <point x="257" y="370"/>
      <point x="188" y="356"/>
      <point x="188" y="296" type="curve" smooth="yes"/>
      <point x="188" y="190"/>
      <point x="500" y="281"/>
      <point x="500" y="109" type="curve" smooth="yes"/>
      <point x="500" y="13"/>
      <point x="385" y="-12"/>
      <point x="307" y="-12" type="curve" smooth="yes"/>
      <point x="251" y="-12"/>
      <point x="215" y="-2"/>
      <point x="164" y="20" type="curve"/>
      <point x="154" y="-16" type="line"/>
      <point x="101" y="0" type="line"/>
      <point x="109" y="26"/>
      <point x="113" y="53"/>
      <point x="113" y="80" type="curve" smooth="yes"/>
      <point x="113" y="105"/>
      <point x="110" y="131"/>
      <point x="100" y="154" type="curve"/>
      <point x="162" y="162" type="line"/>
      <point x="174" y="79"/>
      <point x="192" y="44"/>
      <point x="312" y="44" type="curve" smooth="yes"/>
      <point x="349" y="44"/>
      <point x="435" y="55"/>
      <point x="435" y="110" type="curve" smooth="yes"/>
      <point x="435" y="221"/>
      <point x="123" y="122"/>
      <point x="123" y="292" type="curve" smooth="yes"/>
      <point x="123" y="384"/>
      <point x="215" y="426"/>
      <point x="302" y="426" type="curve" smooth="yes"/>
      <point x="346" y="426"/>
      <point x="388" y="417"/>
    </contour>
  </outline>
</glyph>
<glyph name="v" format="1">
  <advance width="600"/>
  <unicode hex="0076"/>
  <outline>
    <contour>
      <point x="44" y="414" type="line"/>
      <point x="233" y="414" type="line"/>
      <point x="233" y="358" type="line"/>
      <point x="172" y="358" type="line"/>
      <point x="300" y="57" type="line"/>
      <point x="428" y="358" type="line"/>
      <point x="367" y="358" type="line"/>
      <point x="367" y="414" type="line"/>
      <point x="556" y="414" type="line"/>
      <point x="556" y="358" type="line"/>
      <point x="489" y="358" type="line"/>
      <point x="330" y="-12" type="line"/>
      <point x="270" y="-12" type="line"/>
      <point x="111" y="358" type="line"/>
      <point x="44" y="358" type="line"/>
    </contour>
  </outline>
</glyph>
<glyph name="w" format="1">
  <advance width="600"/>
  <unicode hex="0077"/>
  <outline>
    <contour>
      <point x="5" y="414" type="line"/>
      <point x="201" y="414" type="line"/>
      <point x="201" y="358" type="line"/>
      <point x="130" y="358" type="line"/>
      <point x="212" y="70" type="line"/>
      <point x="289" y="305" type="line"/>
      <point x="327" y="305" type="line"/>
      <point x="407" y="70" type="line"/>
      <point x="487" y="358" type="line"/>
      <point x="412" y="358" type="line"/>
      <point x="412" y="414" type="line"/>
      <point x="595" y="414" type="line"/>
      <point x="595" y="358" type="line"/>
      <point x="543" y="358" type="line"/>
      <point x="444" y="-12" type="line"/>
      <point x="375" y="-12" type="line"/>
      <point x="308" y="183" type="line"/>
      <point x="245" y="-12" type="line"/>
      <point x="174" y="-12" type="line"/>
      <point x="72" y="358" type="line"/>
      <point x="5" y="358" type="line"/>
    </contour>
  </outline>
</glyph>
<glyph name="x" format="1">
  <advance width="600"/>
  <unicode hex="0078"/>
  <outline>
    <contour>
      <point x="44" y="414" type="line"/>
      <point x="266" y="414" type="line"/>
      <point x="266" y="358" type="line"/>
      <point x="193" y="358" type="line"/>
      <point x="290" y="262" type="line"/>
      <point x="382" y="358" type="line"/>
      <point x="320" y="358" type="line"/>
      <point x="320" y="414" type="line"/>
      <point x="534" y="414" type="line"/>
      <point x="534" y="358" type="line"/>
      <point x="461" y="358" type="line"/>
      <point x="331" y="220" type="line"/>
      <point x="495" y="56" type="line"/>
      <point x="567" y="56" type="line"/>
      <point x="567" y="0" type="line"/>
      <point x="328" y="0" type="line"/>
      <point x="328" y="56" type="line"/>
      <point x="412" y="56" type="line"/>
      <point x="290" y="178" type="line"/>
      <point x="175" y="56" type="line"/>
      <point x="266" y="56" type="line"/>
      <point x="266" y="0" type="line"/>
      <point x="34" y="0" type="line"/>
      <point x="34" y="56" type="line"/>
      <point x="96" y="56" type="line"/>
      <point x="249" y="219" type="line"/>
      <point x="109" y="358" type="line"/>
      <point x="44" y="358" type="line"/>
    </contour>
  </outline>
</glyph>
<glyph name="z" format="1">
  <advance width="600"/>
  <unicode hex="007A"/>
  <outline>
    <contour>
      <point x="489" y="414" type="line"/>
      <point x="489" y="366" type="line"/>
      <point x="179" y="56" type="line"/>
      <point x="382" y="56" type="line" smooth="yes"/>
      <point x="429" y="56"/>
      <point x="431" y="52"/>
      <point x="439" y="93" type="curve" smooth="yes"/>
      <point x="446" y="131" type="line"/>
      <point x="449" y="151" type="line"/>
      <point x="507" y="151" type="line"/>
      <point x="488" y="0" type="line"/>
      <point x="93" y="0" type="line"/>
      <point x="93" y="54" type="line"/>
      <point x="398" y="358" type="line"/>
      <point x="234" y="358" type="line" smooth="yes"/>
      <point x="166" y="358"/>
      <point x="176" y="355"/>
      <point x="166" y="285" type="curve" smooth="yes"/>
      <point x="163" y="265" type="line"/>
      <point x="103" y="265" type="line"/>
      <point x="123" y="414" type="line"/>
    </contour>
  </outline>
</glyph>
<glyph name="braceleft" format="1">
  <advance width="600"/>
  <unicode hex="007B"/>
  <outline>
    <contour>
      <point x="457" y="4" type="curve"/>
      <point x="457" y="-52" type="line"/>
      <point x="445" y="-52" type="line" smooth="yes"/>
      <point x="333" y="-52"/>
      <point x="261" y="-47"/>
      <point x="261" y="82" type="curve" smooth="yes"/>
      <point x="261" y="206" type="line" smooth="yes"/>
      <point x="261" y="286"/>
      <point x="238" y="282"/>
      <point x="162" y="301" type="curve"/>
      <point x="162" y="303" type="line"/>
      <point x="238" y="322"/>
      <point x="261" y="318"/>
      <point x="261" y="398" type="curve" smooth="yes"/>
      <point x="261" y="522" type="line" smooth="yes"/>
      <point x="261" y="651"/>
      <point x="333" y="656"/>
      <point x="445" y="656" type="curve" smooth="yes"/>
      <point x="457" y="656" type="line"/>
      <point x="457" y="600" type="line"/>
      <point x="367" y="600"/>
      <point x="323" y="596"/>
      <point x="323" y="503" type="curve" smooth="yes"/>
      <point x="323" y="404" type="line" smooth="yes"/>
      <point x="323" y="361"/>
      <point x="325" y="325"/>
      <point x="282" y="302" type="curve"/>
      <point x="325" y="279"/>
      <point x="323" y="243"/>
      <point x="323" y="200" type="curve" smooth="yes"/>
      <point x="323" y="101" type="line" smooth="yes"/>
      <point x="323" y="8"/>
      <point x="367" y="4"/>
    </contour>
  </outline>
</glyph>
<glyph name="braceright" format="1">
  <advance width="600"/>
  <unicode hex="007D"/>
  <outline>
    <contour>
      <point x="145" y="600" type="curve"/>
      <point x="145" y="656" type="line"/>
      <point x="157" y="656" type="line" smooth="yes"/>
      <point x="269" y="656"/>
      <point x="341" y="651"/>
      <point x="341" y="522" type="curve" smooth="yes"/>
      <point x="341" y="398" type="line" smooth="yes"/>
      <point x="341" y="318"/>
      <point x="364" y="322"/>
      <point x="440" y="303" type="curve"/>
      <point x="440" y="301" type="line"/>
      <point x="364" y="282"/>
      <point x="341" y="286"/>
      <point x="341" y="206" type="curve" smooth="yes"/>
      <point x="341" y="82" type="line" smooth="yes"/>
      <point x="341" y="-47"/>
      <point x="269" y="-52"/>
      <point x="157" y="-52" type="curve" smooth="yes"/>
      <point x="145" y="-52" type="line"/>
      <point x="145" y="4" type="line"/>
      <point x="235" y="4"/>
      <point x="279" y="8"/>
      <point x="279" y="101" type="curve" smooth="yes"/>
      <point x="279" y="200" type="line" smooth="yes"/>
      <point x="279" y="243"/>
      <point x="277" y="279"/>
      <point x="320" y="302" type="curve"/>
      <point x="277" y="325"/>
      <point x="279" y="361"/>
      <point x="279" y="404" type="curve" smooth="yes"/>
      <point x="279" y="503" type="line" smooth="yes"/>
      <point x="279" y="596"/>
      <point x="235" y="600"/>
    </contour>
  </outline>
</glyph>
<glyph name="asciitilde" format="1">
  <advance width="600"/>
  <unicode hex="007E"/>
  <outline>
    <contour>
      <point x="183" y="434" type="curve" smooth="yes"/>
      <point x="220" y="434"/>
      <point x="267" y="416"/>
      <point x="310" y="397" type="curve" smooth="yes"/>
      <point x="353" y="378"/>
      <point x="393" y="360"/>
      <point x="417" y="360" type="curve" smooth="yes"/>
      <point x="468" y="360"/>
      <point x="510" y="417"/>
      <point x="529" y="458" type="curve"/>
      <point x="581" y="420" type="line"/>
      <point x="550" y="359"/>
      <point x="492" y="294"/>
      <point x="418" y="294" type="curve" smooth="yes"/>
      <point x="378" y="294"/>
      <point x="312" y="324"/>
      <point x="274" y="339" type="curve" smooth="yes"/>
      <point x="248" y="350"/>
      <point x="211" y="368"/>
      <point x="183" y="368" type="curve" smooth="yes"/>
      <point x="124" y="368"/>
      <point x="97" y="305"/>
      <point x="70" y="262" type="curve"/>
      <point x="18" y="301" type="line"/>
      <point x="56" y="366"/>
      <point x="99" y="434"/>
    </contour>
  </outline>
</glyph>
<glyph name="exclamdown" format="1">
  <advance width="600"/>
  <unicode hex="00A1"/>
  <outline>
    <contour>
      <point x="275" y="261" type="line"/>
      <point x="325" y="261" type="line"/>
      <point x="360" y="-143" type="line" smooth="yes"/>
      <point x="363" y="-175"/>
      <point x="331" y="-197"/>
      <point x="300" y="-197" type="curve" smooth="yes"/>
      <point x="269" y="-197"/>
      <point x="237" y="-175"/>
      <point x="240" y="-143" type="curve" smooth="yes"/>
    </contour>
    <contour>
      <point x="241" y="369" type="curve" smooth="yes"/>
      <point x="241" y="401"/>
      <point x="269" y="426"/>
      <point x="300" y="426" type="curve" smooth="yes"/>
      <point x="331" y="426"/>
      <point x="359" y="401"/>
      <point x="359" y="369" type="curve" smooth="yes"/>
      <point x="359" y="337"/>
      <point x="332" y="312"/>
      <point x="300" y="312" type="curve" smooth="yes"/>
      <point x="268" y="312"/>
      <point x="241" y="337"/>
    </contour>
  </outline>
</glyph>
<glyph name="cent" format="1">
  <advance width="600"/>
  <unicode hex="00A2"/>
  <outline>
    <contour>
      <point x="283" y="635" type="line"/>
      <point x="345" y="635" type="line"/>
      <point x="345" y="527" type="line"/>
      <point x="398" y="523"/>
      <point x="456" y="508"/>
      <point x="486" y="461" type="curve"/>
      <point x="483" y="421" type="line"/>
      <point x="486" y="358" type="line"/>
      <point x="423" y="358" type="line"/>
      <point x="423" y="387" type="line" smooth="yes"/>
      <point x="423" y="449"/>
      <point x="391" y="471"/>
      <point x="322" y="471" type="curve" smooth="yes"/>
      <point x="232" y="471"/>
      <point x="169" y="399"/>
      <point x="169" y="312" type="curve" smooth="yes"/>
      <point x="169" y="221"/>
      <point x="231" y="143"/>
      <point x="326" y="143" type="curve" smooth="yes"/>
      <point x="387" y="143"/>
      <point x="448" y="164"/>
      <point x="502" y="189" type="curve"/>
      <point x="524" y="137" type="line"/>
      <point x="468" y="108"/>
      <point x="407" y="91"/>
      <point x="345" y="87" type="curve"/>
      <point x="345" y="-42" type="line"/>
      <point x="283" y="-42" type="line"/>
      <point x="283" y="87" type="line"/>
      <point x="175" y="109"/>
      <point x="104" y="200"/>
      <point x="104" y="308" type="curve" smooth="yes"/>
      <point x="104" y="436"/>
      <point x="175" y="498"/>
      <point x="283" y="527" type="curve"/>
    </contour>
  </outline>
</glyph>
<glyph name="sterling" format="1">
  <advance width="600"/>
  <unicode hex="00A3"/>
  <outline>
    <contour>
      <point x="245" y="106" type="curve"/>
      <point x="227" y="126"/>
      <point x="210" y="144"/>
      <point x="181" y="144" type="curve" smooth="yes"/>
      <point x="149" y="144"/>
      <point x="132" y="124"/>
      <point x="132" y="93" type="curve" smooth="yes"/>
      <point x="132" y="66"/>
      <point x="151" y="44"/>
      <point x="178" y="44" type="curve" smooth="yes"/>
      <point x="210" y="44"/>
      <point x="240" y="76"/>
    </contour>
    <contour>
      <point x="257" y="337" type="curve"/>
      <point x="406" y="337" type="line"/>
      <point x="406" y="281" type="line"/>
      <point x="274" y="281" type="line"/>
      <point x="289" y="235"/>
      <point x="309" y="189"/>
      <point x="306" y="139" type="curve" smooth="yes"/>
      <point x="305" y="124" type="line"/>
      <point x="326" y="95"/>
      <point x="374" y="44"/>
      <point x="409" y="44" type="curve" smooth="yes"/>
      <point x="459" y="44"/>
      <point x="473" y="101"/>
      <point x="472" y="141" type="curve"/>
      <point x="529" y="132" type="line"/>
      <point x="530" y="61"/>
      <point x="491" y="-12"/>
      <point x="411" y="-12" type="curve" smooth="yes"/>
      <point x="361" y="-12"/>
      <point x="319" y="23"/>
      <point x="287" y="58" type="curve"/>
      <point x="254" y="17"/>
      <point x="232" y="-12"/>
      <point x="175" y="-12" type="curve" smooth="yes"/>
      <point x="118" y="-12"/>
      <point x="67" y="34"/>
      <point x="67" y="93" type="curve" smooth="yes"/>
      <point x="67" y="146"/>
      <point x="102" y="200"/>
      <point x="165" y="200" type="curve" smooth="yes"/>
      <point x="192" y="200"/>
      <point x="217" y="191"/>
      <point x="242" y="183" type="curve"/>
      <point x="211" y="281" type="line"/>
      <point x="84" y="281" type="line"/>
      <point x="84" y="337" type="line"/>
      <point x="192" y="337" type="line"/>
      <point x="181" y="370"/>
      <point x="173" y="402"/>
      <point x="173" y="438" type="curve" smooth="yes"/>
      <point x="173" y="542"/>
      <point x="237" y="612"/>
      <point x="342" y="612" type="curve" smooth="yes"/>
      <point x="428" y="612"/>
      <point x="513" y="553"/>
      <point x="513" y="465" type="curve" smooth="yes"/>
      <point x="513" y="439"/>
      <point x="501" y="395"/>
      <point x="468" y="395" type="curve" smooth="yes"/>
      <point x="443" y="395"/>
      <point x="431" y="418"/>
      <point x="431" y="441" type="curve" smooth="yes"/>
      <point x="431" y="459"/>
      <point x="437" y="472"/>
      <point x="448" y="485" type="curve"/>
      <point x="440" y="531"/>
      <point x="385" y="556"/>
      <point x="343" y="556" type="curve" smooth="yes"/>
      <point x="273" y="556"/>
      <point x="238" y="507"/>
      <point x="238" y="440" type="curve" smooth="yes"/>
      <point x="238" y="402"/>
      <point x="244" y="372"/>
    </contour>
  </outline>
</glyph>
<glyph name="yen" format="1">
  <advance width="600"/>
  <unicode hex="00A5"/>
  <outline>
    <contour>
      <point x="360" y="306" type="line"/>
      <point x="475" y="306" type="line"/>
      <point x="475" y="250" type="line"/>
      <point x="332" y="250" type="line"/>
      <point x="332" y="56" type="line"/>
      <point x="463" y="56" type="line"/>
      <point x="463" y="0" type="line"/>
      <point x="139" y="0" type="line"/>
      <point x="139" y="56" type="line"/>
      <point x="270" y="56" type="line"/>
      <point x="270" y="250" type="line"/>
      <point x="128" y="250" type="line"/>
      <point x="128" y="306" type="line"/>
      <point x="242" y="306" type="line"/>
      <point x="94" y="544" type="line"/>
      <point x="32" y="544" type="line"/>
      <point x="32" y="600" type="line"/>
      <point x="244" y="600" type="line"/>
      <point x="244" y="544" type="line"/>
      <point x="162" y="544" type="line"/>
      <point x="301" y="318" type="line"/>
      <point x="440" y="544" type="line"/>
      <point x="358" y="544" type="line"/>
      <point x="358" y="600" type="line"/>
      <point x="569" y="600" type="line"/>
      <point x="569" y="544" type="line"/>
      <point x="508" y="544" type="line"/>
    </contour>
  </outline>
</glyph>
<glyph name="brokenbar" format="1">
  <advance width="600"/>
  <unicode hex="00A6"/>
  <outline>
    <contour>
      <point x="267" y="432" type="line"/>
      <point x="267" y="792" type="line"/>
      <point x="333" y="792" type="line"/>
      <point x="333" y="432" type="line"/>
    </contour>
    <contour>
      <point x="267" y="-288" type="line"/>
      <point x="267" y="72" type="line"/>
      <point x="333" y="72" type="line"/>
      <point x="333" y="-288" type="line"/>
    </contour>
  </outline>
</glyph>
<glyph name="section" format="1">
  <advance width="600"/>
  <unicode hex="00A7"/>
  <outline>
    <contour>
      <point x="252" y="220" type="curve" smooth="yes"/>
      <point x="376" y="127" type="line"/>
      <point x="398" y="139"/>
      <point x="412" y="162"/>
      <point x="412" y="187" type="curve" smooth="yes"/>
      <point x="412" y="222"/>
      <point x="384" y="246"/>
      <point x="358" y="266" type="curve" smooth="yes"/>
      <point x="222" y="369" type="line"/>
      <point x="204" y="352"/>
      <point x="188" y="337"/>
      <point x="188" y="310" type="curve" smooth="yes"/>
      <point x="188" y="269"/>
      <point x="222" y="242"/>
    </contour>
    <contour>
      <point x="286" y="392" type="curve" smooth="yes"/>
      <point x="378" y="323" type="line" smooth="yes"/>
      <point x="422" y="290"/>
      <point x="477" y="250"/>
      <point x="477" y="188" type="curve" smooth="yes"/>
      <point x="477" y="143"/>
      <point x="451" y="113"/>
      <point x="415" y="89" type="curve"/>
      <point x="439" y="63"/>
      <point x="451" y="37"/>
      <point x="451" y="1" type="curve" smooth="yes"/>
      <point x="451" y="-75"/>
      <point x="373" y="-116"/>
      <point x="305" y="-116" type="curve" smooth="yes"/>
      <point x="233" y="-116"/>
      <point x="154" y="-69"/>
      <point x="154" y="12" type="curve" smooth="yes"/>
      <point x="154" y="35"/>
      <point x="161" y="64"/>
      <point x="189" y="64" type="curve" smooth="yes"/>
      <point x="212" y="64"/>
      <point x="224" y="39"/>
      <point x="224" y="19" type="curve" smooth="yes"/>
      <point x="224" y="9"/>
      <point x="221" y="2"/>
      <point x="217" y="-8" type="curve"/>
      <point x="232" y="-45"/>
      <point x="264" y="-60"/>
      <point x="303" y="-60" type="curve" smooth="yes"/>
      <point x="345" y="-60"/>
      <point x="386" y="-39"/>
      <point x="386" y="8" type="curve" smooth="yes"/>
      <point x="386" y="54"/>
      <point x="334" y="85"/>
      <point x="301" y="110" type="curve" smooth="yes"/>
      <point x="200" y="188" type="line" smooth="yes"/>
      <point x="158" y="220"/>
      <point x="123" y="257"/>
      <point x="123" y="313" type="curve" smooth="yes"/>
      <point x="123" y="356"/>
      <point x="151" y="380"/>
      <point x="180" y="406" type="curve"/>
      <point x="162" y="426"/>
      <point x="152" y="457"/>
      <point x="152" y="483" type="curve" smooth="yes"/>
      <point x="152" y="565"/>
      <point x="221" y="612"/>
      <point x="297" y="612" type="curve" smooth="yes"/>
      <point x="368" y="612"/>
      <point x="446" y="568"/>
      <point x="446" y="489" type="curve" smooth="yes"/>
      <point x="446" y="469"/>
      <point x="439" y="439"/>
      <point x="413" y="439" type="curve" smooth="yes"/>
      <point x="392" y="439"/>
      <point x="379" y="454"/>
      <point x="379" y="475" type="curve" smooth="yes"/>
      <point x="379" y="486"/>
      <point x="382" y="496"/>
      <point x="386" y="506" type="curve"/>
      <point x="380" y="541"/>
      <point x="330" y="556"/>
      <point x="300" y="556" type="curve" smooth="yes"/>
      <point x="256" y="556"/>
      <point x="217" y="532"/>
      <point x="217" y="484" type="curve" smooth="yes"/>
      <point x="217" y="443"/>
      <point x="256" y="414"/>
    </contour>
  </outline>
</glyph>
<glyph name="dieresis" format="1">
  <advance width="600"/>
  <unicode hex="00A8"/>
  <outline>
    <contour>
      <point x="134" y="562" type="curve" smooth="yes"/>
      <point x="134" y="595"/>
      <point x="162" y="620"/>
      <point x="194" y="620" type="curve" smooth="yes"/>
      <point x="226" y="620"/>
      <point x="254" y="595"/>
      <point x="254" y="562" type="curve" smooth="yes"/>
      <point x="254" y="529"/>
      <point x="226" y="504"/>
      <point x="194" y="504" type="curve" smooth="yes"/>
      <point x="162" y="504"/>
      <point x="134" y="529"/>
    </contour>
    <contour>
      <point x="346" y="562" type="curve" smooth="yes"/>
      <point x="346" y="595"/>
      <point x="374" y="620"/>
      <point x="406" y="620" type="curve" smooth="yes"/>
      <point x="438" y="620"/>
      <point x="466" y="595"/>
      <point x="466" y="562" type="curve" smooth="yes"/>
      <point x="466" y="529"/>
      <point x="438" y="504"/>
      <point x="406" y="504" type="curve" smooth="yes"/>
      <point x="374" y="504"/>
      <point x="346" y="529"/>
    </contour>
  </outline>
</glyph>
<glyph name="copyright" format="1">
  <advance width="600"/>
  <unicode hex="00A9"/>
  <outline>
    <contour>
      <point x="300" y="-12" type="curve" smooth="yes"/>
      <point x="182" y="-12"/>
      <point x="30" y="66"/>
      <point x="30" y="300" type="curve" smooth="yes"/>
      <point x="30" y="534"/>
      <point x="182" y="612"/>
      <point x="300" y="612" type="curve" smooth="yes"/>
      <point x="418" y="612"/>
      <point x="570" y="534"/>
      <point x="570" y="300" type="curve" smooth="yes"/>
      <point x="570" y="66"/>
      <point x="418" y="-12"/>
    </contour>
    <contour>
      <point x="300" y="44" type="curve" smooth="yes"/>
      <point x="390" y="44"/>
      <point x="505" y="108"/>
      <point x="505" y="300" type="curve" smooth="yes"/>
      <point x="505" y="492"/>
      <point x="390" y="556"/>
      <point x="300" y="556" type="curve" smooth="yes"/>
      <point x="210" y="556"/>
      <point x="95" y="492"/>
      <point x="95" y="300" type="curve" smooth="yes"/>
      <point x="95" y="108"/>
      <point x="210" y="44"/>
    </contour>
    <contour>
      <point x="366" y="448" type="curve"/>
      <point x="373" y="466" type="line"/>
      <point x="407" y="451" type="line"/>
      <point x="400" y="434"/>
      <point x="397" y="416"/>
      <point x="398" y="397" type="curve" smooth="yes"/>
      <point x="401" y="358" type="line"/>
      <point x="366" y="353" type="line"/>
      <point x="364" y="401"/>
      <point x="350" y="429"/>
      <point x="303" y="429" type="curve" smooth="yes"/>
      <point x="242" y="429"/>
      <point x="223" y="360"/>
      <point x="223" y="301" type="curve" smooth="yes"/>
      <point x="223" y="243"/>
      <point x="244" y="172"/>
      <point x="302" y="172" type="curve" smooth="yes"/>
      <point x="347" y="172"/>
      <point x="373" y="203"/>
      <point x="372" y="252" type="curve"/>
      <point x="409" y="252" type="line"/>
      <point x="409" y="185" type="line"/>
      <point x="377" y="158"/>
      <point x="343" y="136"/>
      <point x="300" y="136" type="curve" smooth="yes"/>
      <point x="239" y="136"/>
      <point x="171" y="182"/>
      <point x="171" y="303" type="curve" smooth="yes"/>
      <point x="171" y="421"/>
      <point x="239" y="465"/>
      <point x="301" y="465" type="curve" smooth="yes"/>
      <point x="326" y="465"/>
      <point x="348" y="456"/>
    </contour>
  </outline>
</glyph>
<glyph name="ordfeminine" format="1">
  <advance width="600"/>
  <unicode hex="00AA"/>
  <outline>
    <contour>
      <point x="456" y="262" type="line"/>
      <point x="456" y="220" type="line"/>
      <point x="156" y="220" type="line"/>
      <point x="156" y="262" type="line"/>
    </contour>
    <contour>
      <point x="355" y="509" type="curve"/>
      <point x="355" y="522" type="line" smooth="yes"/>
      <point x="355" y="555"/>
      <point x="362" y="574"/>
      <point x="318" y="574" type="curve" smooth="yes"/>
      <point x="288" y="574"/>
      <point x="259" y="568"/>
      <point x="233" y="553" type="curve"/>
      <point x="233" y="528" type="line"/>
      <point x="183" y="528" type="line"/>
      <point x="183" y="577" type="line"/>
      <point x="219" y="597"/>
      <point x="268" y="612"/>
      <point x="310" y="612" type="curve" smooth="yes"/>
      <point x="334" y="612"/>
      <point x="367" y="609"/>
      <point x="386" y="595" type="curve" smooth="yes"/>
      <point x="406" y="579"/>
      <point x="405" y="553"/>
      <point x="405" y="531" type="curve" smooth="yes"/>
      <point x="405" y="395" type="line"/>
      <point x="458" y="395" type="line"/>
      <point x="458" y="357" type="line"/>
      <point x="355" y="357" type="line"/>
      <point x="355" y="373" type="line"/>
      <point x="321" y="360"/>
      <point x="284" y="350"/>
      <point x="247" y="350" type="curve" smooth="yes"/>
      <point x="202" y="350"/>
      <point x="150" y="367"/>
      <point x="150" y="421" type="curve" smooth="yes"/>
      <point x="150" y="508"/>
      <point x="295" y="505"/>
    </contour>
    <contour>
      <point x="355" y="416" type="curve"/>
      <point x="355" y="472" type="line"/>
      <point x="318" y="472"/>
      <point x="279" y="470"/>
      <point x="242" y="459" type="curve" smooth="yes"/>
      <point x="221" y="453"/>
      <point x="200" y="445"/>
      <point x="200" y="420" type="curve" smooth="yes"/>
      <point x="200" y="394"/>
      <point x="224" y="388"/>
      <point x="246" y="388" type="curve" smooth="yes"/>
      <point x="285" y="388"/>
      <point x="321" y="402"/>
    </contour>
  </outline>
</glyph>
<glyph name="guillemotleft" format="1">
  <advance width="600"/>
  <unicode hex="00AB"/>
  <outline>
    <contour>
      <point x="287" y="554" type="line"/>
      <point x="328" y="514" type="line"/>
      <point x="92" y="300" type="line"/>
      <point x="328" y="86" type="line"/>
      <point x="287" y="46" type="line"/>
      <point x="9" y="300" type="line"/>
    </contour>
    <contour>
      <point x="496" y="554" type="line"/>
      <point x="537" y="514" type="line"/>
      <point x="301" y="300" type="line"/>
      <point x="537" y="86" type="line"/>
      <point x="496" y="46" type="line"/>
      <point x="218" y="300" type="line"/>
    </contour>
  </outline>
</glyph>
<glyph name="logicalnot" format="1">
  <advance width="600"/>
  <unicode hex="00AC"/>
  <outline>
    <contour>
      <point x="505" y="161" type="line"/>
      <point x="505" y="386" type="line"/>
      <point x="25" y="386" type="line"/>
      <point x="25" y="452" type="line"/>
      <point x="575" y="452" type="line"/>
      <point x="575" y="161" type="line"/>
    </contour>
  </outline>
</glyph>
<glyph name="registered" format="1">
  <advance width="600"/>
  <unicode hex="00AE"/>
  <outline>
    <contour>
      <point x="169" y="417" type="line"/>
      <point x="169" y="453" type="line"/>
      <point x="291" y="453" type="line" smooth="yes"/>
      <point x="341" y="453"/>
      <point x="391" y="432"/>
      <point x="391" y="373" type="curve" smooth="yes"/>
      <point x="391" y="327"/>
      <point x="361" y="304"/>
      <point x="324" y="293" type="curve"/>
      <point x="397" y="184" type="line"/>
      <point x="430" y="184" type="line"/>
      <point x="430" y="148" type="line"/>
      <point x="372" y="148" type="line"/>
      <point x="284" y="281" type="line"/>
      <point x="245" y="281" type="line"/>
      <point x="245" y="184" type="line"/>
      <point x="278" y="184" type="line"/>
      <point x="278" y="148" type="line"/>
      <point x="169" y="148" type="line"/>
      <point x="169" y="184" type="line"/>
      <point x="202" y="184" type="line"/>
      <point x="202" y="417" type="line"/>
    </contour>
    <contour>
      <point x="245" y="417" type="line"/>
      <point x="245" y="317" type="line"/>
      <point x="267" y="317" type="line" smooth="yes"/>
      <point x="325" y="317"/>
      <point x="348" y="340"/>
      <point x="348" y="369" type="curve" smooth="yes"/>
      <point x="348" y="403"/>
      <point x="323" y="417"/>
      <point x="288" y="417" type="curve" smooth="yes"/>
    </contour>
    <contour>
      <point x="300" y="-12" type="curve" smooth="yes"/>
      <point x="182" y="-12"/>
      <point x="30" y="66"/>
      <point x="30" y="300" type="curve" smooth="yes"/>
      <point x="30" y="534"/>
      <point x="182" y="612"/>
      <point x="300" y="612" type="curve" smooth="yes"/>
      <point x="418" y="612"/>
      <point x="570" y="534"/>
      <point x="570" y="300" type="curve" smooth="yes"/>
      <point x="570" y="66"/>
      <point x="418" y="-12"/>
    </contour>
    <contour>
      <point x="300" y="44" type="curve" smooth="yes"/>
      <point x="390" y="44"/>
      <point x="505" y="108"/>
      <point x="505" y="300" type="curve" smooth="yes"/>
      <point x="505" y="492"/>
      <point x="390" y="556"/>
      <point x="300" y="556" type="curve" smooth="yes"/>
      <point x="210" y="556"/>
      <point x="95" y="492"/>
      <point x="95" y="300" type="curve" smooth="yes"/>
      <point x="95" y="108"/>
      <point x="210" y="44"/>
    </contour>
  </outline>
</glyph>
<glyph name="degree" format="1">
  <advance width="600"/>
  <unicode hex="00B0"/>
  <outline>
    <contour>
      <point x="87" y="556" type="curve" smooth="yes"/>
      <point x="87" y="674"/>
      <point x="185" y="765"/>
      <point x="300" y="765" type="curve" smooth="yes"/>
      <point x="416" y="765"/>
      <point x="513" y="674"/>
      <point x="513" y="556" type="curve" smooth="yes"/>
      <point x="513" y="439"/>
      <point x="416" y="348"/>
      <point x="300" y="348" type="curve" smooth="yes"/>
      <point x="185" y="348"/>
      <point x="87" y="439"/>
    </contour>
    <contour>
      <point x="167" y="556" type="curve" smooth="yes"/>
      <point x="167" y="483"/>
      <point x="227" y="424"/>
      <point x="300" y="424" type="curve" smooth="yes"/>
      <point x="373" y="424"/>
      <point x="433" y="483"/>
      <point x="433" y="556" type="curve" smooth="yes"/>
      <point x="433" y="630"/>
      <point x="373" y="689"/>
      <point x="300" y="689" type="curve" smooth="yes"/>
      <point x="227" y="689"/>
      <point x="167" y="630"/>
    </contour>
  </outline>
</glyph>
<glyph name="plusminus" format="1">
  <advance width="600"/>
  <unicode hex="00B1"/>
  <outline>
    <contour>
      <point x="575" y="444" type="line"/>
      <point x="575" y="378" type="line"/>
      <point x="335" y="378" type="line"/>
      <point x="335" y="141" type="line"/>
      <point x="265" y="141" type="line"/>
      <point x="265" y="378" type="line"/>
      <point x="25" y="378" type="line"/>
      <point x="25" y="444" type="line"/>
      <point x="265" y="444" type="line"/>
      <point x="265" y="681" type="line"/>
      <point x="335" y="681" type="line"/>
      <point x="335" y="444" type="line"/>
    </contour>
    <contour>
      <point x="575" y="105" type="line"/>
      <point x="575" y="39" type="line"/>
      <point x="25" y="39" type="line"/>
      <point x="25" y="105" type="line"/>
    </contour>
  </outline>
</glyph>
<glyph name="uni00B2" format="1">
  <advance width="600"/>
  <unicode hex="00B2"/>
  <outline>
    <contour>
      <point x="366" y="356" type="line"/>
      <point x="405" y="347" type="line"/>
      <point x="375" y="285" type="line"/>
      <point x="191" y="285" type="line"/>
      <point x="191" y="318" type="line"/>
      <point x="204" y="331" type="line" smooth="yes"/>
      <point x="247" y="374"/>
      <point x="349" y="467"/>
      <point x="349" y="526" type="curve" smooth="yes"/>
      <point x="349" y="556"/>
      <point x="322" y="576"/>
      <point x="294" y="576" type="curve" smooth="yes"/>
      <point x="274" y="576"/>
      <point x="264" y="572"/>
      <point x="250" y="559" type="curve"/>
      <point x="250" y="536"/>
      <point x="240" y="515"/>
      <point x="217" y="515" type="curve" smooth="yes"/>
      <point x="204" y="515"/>
      <point x="198" y="524"/>
      <point x="198" y="536" type="curve" smooth="yes"/>
      <point x="198" y="584"/>
      <point x="252" y="612"/>
      <point x="294" y="612" type="curve" smooth="yes"/>
      <point x="342" y="612"/>
      <point x="392" y="581"/>
      <point x="392" y="529" type="curve" smooth="yes"/>
      <point x="392" y="489"/>
      <point x="371" y="457"/>
      <point x="347" y="426" type="curve" smooth="yes"/>
      <point x="256" y="329" type="line"/>
      <point x="248" y="321" type="line"/>
      <point x="346" y="321" type="line"/>
    </contour>
  </outline>
</glyph>
<glyph name="uni00B3" format="1">
  <advance width="600"/>
  <unicode hex="00B3"/>
  <outline>
    <contour>
      <point x="290" y="442" type="curve" smooth="yes"/>
      <point x="257" y="439" type="line"/>
      <point x="257" y="479" type="line"/>
      <point x="266" y="477"/>
      <point x="274" y="476"/>
      <point x="282" y="476" type="curve" smooth="yes"/>
      <point x="312" y="476"/>
      <point x="340" y="486"/>
      <point x="340" y="521" type="curve" smooth="yes"/>
      <point x="340" y="550"/>
      <point x="321" y="576"/>
      <point x="289" y="576" type="curve" smooth="yes"/>
      <point x="278" y="576"/>
      <point x="261" y="575"/>
      <point x="253" y="565" type="curve"/>
      <point x="251" y="546"/>
      <point x="238" y="526"/>
      <point x="216" y="526" type="curve" smooth="yes"/>
      <point x="205" y="526"/>
      <point x="196" y="535"/>
      <point x="196" y="546" type="curve" smooth="yes"/>
      <point x="196" y="586"/>
      <point x="254" y="612"/>
      <point x="287" y="612" type="curve" smooth="yes"/>
      <point x="341" y="612"/>
      <point x="383" y="578"/>
      <point x="383" y="523" type="curve" smooth="yes"/>
      <point x="383" y="494"/>
      <point x="371" y="479"/>
      <point x="351" y="461" type="curve"/>
      <point x="382" y="439"/>
      <point x="399" y="420"/>
      <point x="399" y="380" type="curve" smooth="yes"/>
      <point x="399" y="312"/>
      <point x="341" y="279"/>
      <point x="280" y="279" type="curve" smooth="yes"/>
      <point x="244" y="279"/>
      <point x="206" y="288"/>
      <point x="176" y="306" type="curve"/>
      <point x="193" y="339" type="line"/>
      <point x="219" y="323"/>
      <point x="249" y="315"/>
      <point x="280" y="315" type="curve" smooth="yes"/>
      <point x="320" y="315"/>
      <point x="356" y="334"/>
      <point x="356" y="378" type="curve" smooth="yes"/>
      <point x="356" y="419"/>
      <point x="330" y="442"/>
    </contour>
  </outline>
</glyph>
<glyph name="acute" format="1">
  <advance width="600"/>
  <unicode hex="00B4"/>
  <outline>
    <contour>
      <point x="406" y="660" type="line"/>
      <point x="457" y="599" type="line"/>
      <point x="255" y="465" type="line"/>
      <point x="218" y="509" type="line"/>
    </contour>
  </outline>
</glyph>
<glyph name="paragraph" format="1">
  <advance width="600"/>
  <unicode hex="00B6"/>
  <outline>
    <contour>
      <point x="269" y="-91" type="line"/>
      <point x="269" y="268" type="line"/>
      <point x="173" y="265"/>
      <point x="90" y="331"/>
      <point x="90" y="433" type="curve" smooth="yes"/>
      <point x="90" y="495"/>
      <point x="121" y="600"/>
      <point x="280" y="600" type="curve" smooth="yes"/>
      <point x="510" y="600" type="line"/>
      <point x="510" y="554" type="line"/>
      <point x="474" y="554" type="line"/>
      <point x="474" y="-91" type="line"/>
      <point x="412" y="-91" type="line"/>
      <point x="412" y="554" type="line"/>
      <point x="331" y="554" type="line"/>
      <point x="331" y="-91" type="line"/>
    </contour>
  </outline>
</glyph>
<glyph name="periodcentered" format="1">
  <advance width="600"/>
  <unicode hex="00B7"/>
  <outline>
    <contour>
      <point x="220" y="360" type="curve" smooth="yes"/>
      <point x="220" y="403"/>
      <point x="257" y="440"/>
      <point x="300" y="440" type="curve" smooth="yes"/>
      <point x="343" y="440"/>
      <point x="380" y="403"/>
      <point x="380" y="360" type="curve" smooth="yes"/>
      <point x="380" y="317"/>
      <point x="343" y="280"/>
      <point x="300" y="280" type="curve" smooth="yes"/>
      <point x="257" y="280"/>
      <point x="220" y="317"/>
    </contour>
  </outline>
</glyph>
<glyph name="cedilla" format="1">
  <advance width="600"/>
  <unicode hex="00B8"/>
  <outline>
    <contour>
      <point x="341" y="30" type="line"/>
      <point x="326" y="-24" type="line"/>
      <point x="380" y="-23"/>
      <point x="435" y="-49"/>
      <point x="435" y="-110" type="curve" smooth="yes"/>
      <point x="435" y="-179"/>
      <point x="366" y="-206"/>
      <point x="307" y="-206" type="curve" smooth="yes"/>
      <point x="268" y="-206"/>
      <point x="227" y="-197"/>
      <point x="193" y="-178" type="curve"/>
      <point x="193" y="-119" type="line"/>
      <point x="228" y="-135"/>
      <point x="265" y="-150"/>
      <point x="304" y="-150" type="curve" smooth="yes"/>
      <point x="329" y="-150"/>
      <point x="370" y="-141"/>
      <point x="370" y="-110" type="curve" smooth="yes"/>
      <point x="370" y="-83"/>
      <point x="332" y="-80"/>
      <point x="312" y="-80" type="curve" smooth="yes"/>
      <point x="251" y="-86" type="line"/>
      <point x="280" y="30" type="line"/>
    </contour>
  </outline>
</glyph>
<glyph name="uni00B9" format="1">
  <advance width="600"/>
  <unicode hex="00B9"/>
  <outline>
    <contour>
      <point x="327" y="578" type="curve" smooth="yes"/>
      <point x="327" y="321" type="line"/>
      <point x="390" y="321" type="line"/>
      <point x="390" y="285" type="line"/>
      <point x="215" y="285" type="line"/>
      <point x="215" y="321" type="line"/>
      <point x="284" y="321" type="line"/>
      <point x="284" y="560" type="line"/>
      <point x="267" y="556"/>
      <point x="250" y="554"/>
      <point x="234" y="555" type="curve" smooth="yes"/>
      <point x="213" y="556" type="line"/>
      <point x="207" y="590" type="line"/>
      <point x="226" y="590" type="line" smooth="yes"/>
      <point x="239" y="590"/>
      <point x="277" y="591"/>
      <point x="285" y="600" type="curve" smooth="yes"/>
      <point x="292" y="607"/>
      <point x="295" y="612"/>
      <point x="306" y="612" type="curve" smooth="yes"/>
      <point x="328" y="612"/>
      <point x="327" y="594"/>
    </contour>
  </outline>
</glyph>
<glyph name="ordmasculine" format="1">
  <advance width="600"/>
  <unicode hex="00BA"/>
  <outline>
    <contour>
      <point x="450" y="262" type="line"/>
      <point x="450" y="220" type="line"/>
      <point x="150" y="220" type="line"/>
      <point x="150" y="262" type="line"/>
    </contour>
    <contour>
      <point x="300" y="350" type="curve" smooth="yes"/>
      <point x="225" y="350"/>
      <point x="156" y="402"/>
      <point x="156" y="481" type="curve" smooth="yes"/>
      <point x="156" y="561"/>
      <point x="225" y="612"/>
      <point x="300" y="612" type="curve" smooth="yes"/>
      <point x="375" y="612"/>
      <point x="444" y="561"/>
      <point x="444" y="481" type="curve" smooth="yes"/>
      <point x="444" y="402"/>
      <point x="375" y="350"/>
    </contour>
    <contour>
      <point x="300" y="574" type="curve" smooth="yes"/>
      <point x="247" y="574"/>
      <point x="206" y="534"/>
      <point x="206" y="481" type="curve" smooth="yes"/>
      <point x="206" y="428"/>
      <point x="247" y="388"/>
      <point x="300" y="388" type="curve" smooth="yes"/>
      <point x="353" y="388"/>
      <point x="394" y="428"/>
      <point x="394" y="481" type="curve" smooth="yes"/>
      <point x="394" y="534"/>
      <point x="353" y="574"/>
    </contour>
  </outline>
</glyph>
<glyph name="guillemotright" format="1">
  <advance width="600"/>
  <unicode hex="00BB"/>
  <outline>
    <contour>
      <point x="63" y="514" type="line"/>
      <point x="104" y="554" type="line"/>
      <point x="382" y="300" type="line"/>
      <point x="104" y="46" type="line"/>
      <point x="63" y="86" type="line"/>
      <point x="299" y="300" type="line"/>
    </contour>
    <contour>
      <point x="272" y="514" type="line"/>
      <point x="313" y="554" type="line"/>
      <point x="591" y="300" type="line"/>
      <point x="313" y="46" type="line"/>
      <point x="272" y="86" type="line"/>
      <point x="508" y="300" type="line"/>
    </contour>
  </outline>
</glyph>
<glyph name="onequarter" format="1">
  <advance width="600"/>
  <unicode hex="00BC"/>
  <outline>
    <contour>
      <point x="434" y="633" type="line"/>
      <point x="474" y="610" type="line"/>
      <point x="196" y="-28" type="line"/>
      <point x="156" y="-4" type="line"/>
    </contour>
    <contour>
      <point x="496" y="226" type="line"/>
      <point x="539" y="226" type="line"/>
      <point x="539" y="118" type="line"/>
      <point x="585" y="118" type="line"/>
      <point x="585" y="82" type="line"/>
      <point x="539" y="82" type="line"/>
      <point x="539" y="36" type="line"/>
      <point x="585" y="36" type="line"/>
      <point x="585" y="0" type="line"/>
      <point x="442" y="0" type="line"/>
      <point x="442" y="36" type="line"/>
      <point x="496" y="36" type="line"/>
      <point x="496" y="82" type="line"/>
      <point x="337" y="82" type="line"/>
      <point x="337" y="113" type="line"/>
      <point x="382" y="186"/>
      <point x="425" y="262"/>
      <point x="446" y="346" type="curve"/>
      <point x="489" y="334" type="line"/>
      <point x="468" y="256"/>
      <point x="426" y="185"/>
      <point x="383" y="118" type="curve"/>
      <point x="496" y="118" type="line"/>
    </contour>
    <contour>
      <point x="167" y="578" type="curve" smooth="yes"/>
      <point x="167" y="321" type="line"/>
      <point x="230" y="321" type="line"/>
      <point x="230" y="285" type="line"/>
      <point x="55" y="285" type="line"/>
      <point x="55" y="321" type="line"/>
      <point x="124" y="321" type="line"/>
      <point x="124" y="560" type="line"/>
      <point x="107" y="556"/>
      <point x="90" y="554"/>
      <point x="74" y="555" type="curve" smooth="yes"/>
      <point x="53" y="556" type="line"/>
      <point x="47" y="590" type="line"/>
      <point x="66" y="590" type="line" smooth="yes"/>
      <point x="79" y="590"/>
      <point x="117" y="591"/>
      <point x="125" y="600" type="curve" smooth="yes"/>
      <point x="132" y="607"/>
      <point x="135" y="612"/>
      <point x="146" y="612" type="curve" smooth="yes"/>
      <point x="168" y="612"/>
      <point x="167" y="594"/>
    </contour>
  </outline>
</glyph>
<glyph name="onehalf" format="1">
  <advance width="600"/>
  <unicode hex="00BD"/>
  <outline>
    <contour>
      <point x="425" y="633" type="line"/>
      <point x="465" y="610" type="line"/>
      <point x="187" y="-28" type="line"/>
      <point x="147" y="-4" type="line"/>
    </contour>
    <contour>
      <point x="535" y="71" type="line"/>
      <point x="574" y="62" type="line"/>
      <point x="544" y="0" type="line"/>
      <point x="351" y="0" type="line"/>
      <point x="351" y="32" type="line"/>
      <point x="364" y="46" type="line" smooth="yes"/>
      <point x="405" y="90"/>
      <point x="509" y="181"/>
      <point x="509" y="241" type="curve" smooth="yes"/>
      <point x="509" y="271"/>
      <point x="482" y="291"/>
      <point x="454" y="291" type="curve" smooth="yes"/>
      <point x="434" y="291"/>
      <point x="424" y="286"/>
      <point x="410" y="271" type="curve"/>
      <point x="410" y="250"/>
      <point x="400" y="229"/>
      <point x="377" y="229" type="curve" smooth="yes"/>
      <point x="364" y="229"/>
      <point x="358" y="238"/>
      <point x="358" y="250" type="curve" smooth="yes"/>
      <point x="358" y="298"/>
      <point x="412" y="327"/>
      <point x="454" y="327" type="curve" smooth="yes"/>
      <point x="502" y="327"/>
      <point x="552" y="295"/>
      <point x="552" y="243" type="curve" smooth="yes"/>
      <point x="552" y="203"/>
      <point x="533" y="169"/>
      <point x="507" y="141" type="curve" smooth="yes"/>
      <point x="416" y="44" type="line"/>
      <point x="408" y="36" type="line"/>
      <point x="515" y="36" type="line"/>
    </contour>
    <contour>
      <point x="167" y="578" type="curve" smooth="yes"/>
      <point x="167" y="321" type="line"/>
      <point x="230" y="321" type="line"/>
      <point x="230" y="285" type="line"/>
      <point x="55" y="285" type="line"/>
      <point x="55" y="321" type="line"/>
      <point x="124" y="321" type="line"/>
      <point x="124" y="560" type="line"/>
      <point x="107" y="556"/>
      <point x="90" y="554"/>
      <point x="74" y="555" type="curve" smooth="yes"/>
      <point x="53" y="556" type="line"/>
      <point x="47" y="590" type="line"/>
      <point x="66" y="590" type="line" smooth="yes"/>
      <point x="79" y="590"/>
      <point x="117" y="591"/>
      <point x="125" y="600" type="curve" smooth="yes"/>
      <point x="132" y="607"/>
      <point x="135" y="612"/>
      <point x="146" y="612" type="curve" smooth="yes"/>
      <point x="168" y="612"/>
      <point x="167" y="594"/>
    </contour>
  </outline>
</glyph>
<glyph name="threequarters" format="1">
  <advance width="600"/>
  <unicode hex="00BE"/>
  <outline>
    <contour>
      <point x="426" y="633" type="line"/>
      <point x="466" y="610" type="line"/>
      <point x="188" y="-28" type="line"/>
      <point x="148" y="-4" type="line"/>
    </contour>
    <contour>
      <point x="496" y="226" type="line"/>
      <point x="539" y="226" type="line"/>
      <point x="539" y="118" type="line"/>
      <point x="585" y="118" type="line"/>
      <point x="585" y="82" type="line"/>
      <point x="539" y="82" type="line"/>
      <point x="539" y="36" type="line"/>
      <point x="585" y="36" type="line"/>
      <point x="585" y="0" type="line"/>
      <point x="442" y="0" type="line"/>
      <point x="442" y="36" type="line"/>
      <point x="496" y="36" type="line"/>
      <point x="496" y="82" type="line"/>
      <point x="337" y="82" type="line"/>
      <point x="337" y="113" type="line"/>
      <point x="382" y="186"/>
      <point x="425" y="262"/>
      <point x="446" y="346" type="curve"/>
      <point x="489" y="334" type="line"/>
      <point x="468" y="256"/>
      <point x="426" y="185"/>
      <point x="383" y="118" type="curve"/>
      <point x="496" y="118" type="line"/>
    </contour>
    <contour>
      <point x="130" y="442" type="curve" smooth="yes"/>
      <point x="97" y="439" type="line"/>
      <point x="97" y="479" type="line"/>
      <point x="106" y="477"/>
      <point x="114" y="476"/>
      <point x="122" y="476" type="curve" smooth="yes"/>
      <point x="152" y="476"/>
      <point x="180" y="486"/>
      <point x="180" y="521" type="curve" smooth="yes"/>
      <point x="180" y="550"/>
      <point x="161" y="576"/>
      <point x="129" y="576" type="curve" smooth="yes"/>
      <point x="118" y="576"/>
      <point x="101" y="575"/>
      <point x="93" y="565" type="curve"/>
      <point x="91" y="546"/>
      <point x="78" y="526"/>
      <point x="56" y="526" type="curve" smooth="yes"/>
      <point x="45" y="526"/>
      <point x="36" y="535"/>
      <point x="36" y="546" type="curve" smooth="yes"/>
      <point x="36" y="586"/>
      <point x="94" y="612"/>
      <point x="127" y="612" type="curve" smooth="yes"/>
      <point x="181" y="612"/>
      <point x="223" y="578"/>
      <point x="223" y="523" type="curve" smooth="yes"/>
      <point x="223" y="494"/>
      <point x="211" y="479"/>
      <point x="191" y="461" type="curve"/>
      <point x="222" y="439"/>
      <point x="239" y="420"/>
      <point x="239" y="380" type="curve" smooth="yes"/>
      <point x="239" y="312"/>
      <point x="181" y="279"/>
      <point x="120" y="279" type="curve" smooth="yes"/>
      <point x="84" y="279"/>
      <point x="46" y="288"/>
      <point x="16" y="306" type="curve"/>
      <point x="33" y="339" type="line"/>
      <point x="59" y="323"/>
      <point x="89" y="315"/>
      <point x="120" y="315" type="curve" smooth="yes"/>
      <point x="160" y="315"/>
      <point x="196" y="334"/>
      <point x="196" y="378" type="curve" smooth="yes"/>
      <point x="196" y="419"/>
      <point x="170" y="442"/>
    </contour>
  </outline>
</glyph>
<glyph name="questiondown" format="1">
  <advance width="600"/>
  <unicode hex="00BF"/>
  <outline>
    <contour>
      <point x="300" y="261" type="line"/>
      <point x="360" y="261" type="line"/>
      <point x="360" y="226" type="line" smooth="yes"/>
      <point x="360" y="85"/>
      <point x="231" y="47"/>
      <point x="231" y="-49" type="curve" smooth="yes"/>
      <point x="231" y="-98"/>
      <point x="265" y="-141"/>
      <point x="316" y="-141" type="curve" smooth="yes"/>
      <point x="364" y="-141"/>
      <point x="408" y="-113"/>
      <point x="415" y="-64" type="curve"/>
      <point x="411" y="-54"/>
      <point x="409" y="-43"/>
      <point x="409" y="-32" type="curve" smooth="yes"/>
      <point x="409" y="-13"/>
      <point x="420" y="9"/>
      <point x="442" y="9" type="curve" smooth="yes"/>
      <point x="475" y="9"/>
      <point x="482" y="-19"/>
      <point x="482" y="-46" type="curve" smooth="yes"/>
      <point x="482" y="-127"/>
      <point x="411" y="-197"/>
      <point x="316" y="-197" type="curve" smooth="yes"/>
      <point x="240" y="-197"/>
      <point x="167" y="-139"/>
      <point x="167" y="-56" type="curve" smooth="yes"/>
      <point x="167" y="85"/>
      <point x="300" y="94"/>
      <point x="300" y="234" type="curve" smooth="yes"/>
    </contour>
    <contour>
      <point x="271" y="369" type="curve" smooth="yes"/>
      <point x="271" y="401"/>
      <point x="299" y="426"/>
      <point x="330" y="426" type="curve" smooth="yes"/>
      <point x="361" y="426"/>
      <point x="389" y="401"/>
      <point x="389" y="369" type="curve" smooth="yes"/>
      <point x="389" y="337"/>
      <point x="362" y="312"/>
      <point x="330" y="312" type="curve" smooth="yes"/>
      <point x="298" y="312"/>
      <point x="271" y="337"/>
    </contour>
  </outline>
</glyph>
<glyph name="Aacute" format="1">
  <advance width="600"/>
  <unicode hex="00C1"/>
  <outline>
    <contour>
      <point x="296" y="656" type="line"/>
      <point x="531" y="56" type="line"/>
      <point x="581" y="56" type="line"/>
      <point x="581" y="0" type="line"/>
      <point x="379" y="0" type="line"/>
      <point x="379" y="56" type="line"/>
      <point x="465" y="56" type="line"/>
      <point x="417" y="185" type="line"/>
      <point x="179" y="185" type="line"/>
      <point x="132" y="56" type="line"/>
      <point x="219" y="56" type="line"/>
      <point x="219" y="0" type="line"/>
      <point x="19" y="0" type="line"/>
      <point x="19" y="56" type="line"/>
      <point x="69" y="56" type="line"/>
    </contour>
    <contour>
      <point x="397" y="241" type="line"/>
      <point x="296" y="516" type="line"/>
      <point x="198" y="241" type="line"/>
    </contour>
    <contour>
      <point x="394" y="846" type="line"/>
      <point x="445" y="785" type="line"/>
      <point x="243" y="651" type="line"/>
      <point x="206" y="695" type="line"/>
    </contour>
  </outline>
</glyph>
<glyph name="Atilde" format="1">
  <advance width="600"/>
  <unicode hex="00C3"/>
  <outline>
    <contour>
      <point x="296" y="656" type="line"/>
      <point x="531" y="56" type="line"/>
      <point x="581" y="56" type="line"/>
      <point x="581" y="0" type="line"/>
      <point x="379" y="0" type="line"/>
      <point x="379" y="56" type="line"/>
      <point x="465" y="56" type="line"/>
      <point x="417" y="185" type="line"/>
      <point x="179" y="185" type="line"/>
      <point x="132" y="56" type="line"/>
      <point x="219" y="56" type="line"/>
      <point x="219" y="0" type="line"/>
      <point x="19" y="0" type="line"/>
      <point x="19" y="56" type="line"/>
      <point x="69" y="56" type="line"/>
    </contour>
    <contour>
      <point x="397" y="241" type="line"/>
      <point x="296" y="516" type="line"/>
      <point x="198" y="241" type="line"/>
    </contour>
    <contour>
      <point x="204" y="692" type="curve"/>
      <point x="140" y="692" type="line"/>
      <point x="138" y="722"/>
      <point x="143" y="751"/>
      <point x="157" y="773" type="curve" smooth="yes"/>
      <point x="171" y="795"/>
      <point x="194" y="809"/>
      <point x="228" y="809" type="curve" smooth="yes"/>
      <point x="257" y="809"/>
      <point x="284" y="796"/>
      <point x="308" y="782" type="curve" smooth="yes"/>
      <point x="332" y="768"/>
      <point x="353" y="754"/>
      <point x="368" y="754" type="curve" smooth="yes"/>
      <point x="396" y="754"/>
      <point x="394" y="793"/>
      <point x="396" y="812" type="curve"/>
      <point x="460" y="812" type="line"/>
      <point x="463" y="782"/>
      <point x="457" y="753"/>
      <point x="443" y="731" type="curve" smooth="yes"/>
      <point x="429" y="709"/>
      <point x="405" y="695"/>
      <point x="369" y="695" type="curve" smooth="yes"/>
      <point x="340" y="695"/>
      <point x="312" y="711"/>
      <point x="287" y="725" type="curve" smooth="yes"/>
      <point x="273" y="733"/>
      <point x="249" y="749"/>
      <point x="232" y="749" type="curve" smooth="yes"/>
      <point x="203" y="749"/>
      <point x="203" y="712"/>
    </contour>
  </outline>
</glyph>
<glyph name="Adieresis" format="1">
  <advance width="600"/>
  <unicode hex="00C4"/>
  <outline>
    <contour>
      <point x="296" y="656" type="line"/>
      <point x="531" y="56" type="line"/>
      <point x="581" y="56" type="line"/>
      <point x="581" y="0" type="line"/>
      <point x="379" y="0" type="line"/>
      <point x="379" y="56" type="line"/>
      <point x="465" y="56" type="line"/>
      <point x="417" y="185" type="line"/>
      <point x="179" y="185" type="line"/>
      <point x="132" y="56" type="line"/>
      <point x="219" y="56" type="line"/>
      <point x="219" y="0" type="line"/>
      <point x="19" y="0" type="line"/>
      <point x="19" y="56" type="line"/>
      <point x="69" y="56" type="line"/>
    </contour>
    <contour>
      <point x="397" y="241" type="line"/>
      <point x="296" y="516" type="line"/>
      <point x="198" y="241" type="line"/>
    </contour>
    <contour>
      <point x="134" y="748" type="curve" smooth="yes"/>
      <point x="134" y="781"/>
      <point x="162" y="806"/>
      <point x="194" y="806" type="curve" smooth="yes"/>
      <point x="226" y="806"/>
      <point x="254" y="781"/>
      <point x="254" y="748" type="curve" smooth="yes"/>
      <point x="254" y="715"/>
      <point x="226" y="690"/>
      <point x="194" y="690" type="curve" smooth="yes"/>
      <point x="162" y="690"/>
      <point x="134" y="715"/>
    </contour>
    <contour>
      <point x="346" y="748" type="curve" smooth="yes"/>
      <point x="346" y="781"/>
      <point x="374" y="806"/>
      <point x="406" y="806" type="curve" smooth="yes"/>
      <point x="438" y="806"/>
      <point x="466" y="781"/>
      <point x="466" y="748" type="curve" smooth="yes"/>
      <point x="466" y="715"/>
      <point x="438" y="690"/>
      <point x="406" y="690" type="curve" smooth="yes"/>
      <point x="374" y="690"/>
      <point x="346" y="715"/>
    </contour>
  </outline>
</glyph>
<glyph name="Aring" format="1">
  <advance width="600"/>
  <unicode hex="00C5"/>
  <outline>
    <contour>
      <point x="296" y="656" type="line"/>
      <point x="531" y="56" type="line"/>
      <point x="581" y="56" type="line"/>
      <point x="581" y="0" type="line"/>
      <point x="379" y="0" type="line"/>
      <point x="379" y="56" type="line"/>
      <point x="465" y="56" type="line"/>
      <point x="417" y="185" type="line"/>
      <point x="179" y="185" type="line"/>
      <point x="132" y="56" type="line"/>
      <point x="219" y="56" type="line"/>
      <point x="219" y="0" type="line"/>
      <point x="19" y="0" type="line"/>
      <point x="19" y="56" type="line"/>
      <point x="69" y="56" type="line"/>
    </contour>
    <contour>
      <point x="397" y="241" type="line"/>
      <point x="296" y="516" type="line"/>
      <point x="198" y="241" type="line"/>
    </contour>
    <contour>
      <point x="208" y="748" type="curve" smooth="yes"/>
      <point x="208" y="798"/>
      <point x="251" y="837"/>
      <point x="300" y="837" type="curve" smooth="yes"/>
      <point x="350" y="837"/>
      <point x="392" y="799"/>
      <point x="392" y="748" type="curve" smooth="yes"/>
      <point x="392" y="698"/>
      <point x="350" y="659"/>
      <point x="300" y="659" type="curve" smooth="yes"/>
      <point x="250" y="659"/>
      <point x="208" y="698"/>
    </contour>
    <contour>
      <point x="267" y="748" type="curve" smooth="yes"/>
      <point x="267" y="729"/>
      <point x="279" y="708"/>
      <point x="300" y="708" type="curve" smooth="yes"/>
      <point x="321" y="708"/>
      <point x="333" y="729"/>
      <point x="333" y="748" type="curve" smooth="yes"/>
      <point x="333" y="767"/>
      <point x="321" y="788"/>
      <point x="300" y="788" type="curve" smooth="yes"/>
      <point x="279" y="788"/>
      <point x="267" y="767"/>
    </contour>
  </outline>
</glyph>
<glyph name="AE" format="1">
  <advance width="600"/>
  <unicode hex="00C6"/>
  <outline>
    <contour>
      <point x="300" y="242" type="line"/>
      <point x="300" y="544" type="line"/>
      <point x="278" y="544" type="line"/>
      <point x="174" y="242" type="line"/>
    </contour>
    <contour>
      <point x="430" y="544" type="curve" smooth="yes"/>
      <point x="362" y="544" type="line"/>
      <point x="362" y="354" type="line"/>
      <point x="421" y="354" type="line"/>
      <point x="421" y="421" type="line"/>
      <point x="483" y="421" type="line"/>
      <point x="483" y="234" type="line"/>
      <point x="421" y="234" type="line"/>
      <point x="421" y="298" type="line"/>
      <point x="362" y="298" type="line"/>
      <point x="362" y="56" type="line"/>
      <point x="425" y="56" type="line" smooth="yes"/>
      <point x="498" y="56"/>
      <point x="509" y="59"/>
      <point x="509" y="135" type="curve" smooth="yes"/>
      <point x="509" y="191" type="line"/>
      <point x="571" y="191" type="line"/>
      <point x="571" y="0" type="line"/>
      <point x="254" y="0" type="line"/>
      <point x="254" y="56" type="line"/>
      <point x="300" y="56" type="line"/>
      <point x="300" y="186" type="line"/>
      <point x="155" y="186" type="line"/>
      <point x="110" y="56" type="line"/>
      <point x="192" y="56" type="line"/>
      <point x="192" y="0" type="line"/>
      <point x="17" y="0" type="line"/>
      <point x="17" y="56" type="line"/>
      <point x="48" y="56" type="line"/>
      <point x="237" y="600" type="line"/>
      <point x="571" y="600" type="line"/>
      <point x="571" y="433" type="line"/>
      <point x="509" y="433" type="line"/>
      <point x="509" y="451" type="line" smooth="yes"/>
      <point x="509" y="542"/>
      <point x="496" y="544"/>
    </contour>
  </outline>
</glyph>
<glyph name="Ccedilla" format="1">
  <advance width="600"/>
  <unicode hex="00C7"/>
  <outline>
    <contour>
      <point x="464" y="578" type="curve"/>
      <point x="477" y="612" type="line"/>
      <point x="533" y="594" type="line"/>
      <point x="519" y="561"/>
      <point x="513" y="525"/>
      <point x="515" y="489" type="curve" smooth="yes"/>
      <point x="520" y="413" type="line"/>
      <point x="461" y="403" type="line"/>
      <point x="457" y="495"/>
      <point x="434" y="556"/>
      <point x="330" y="556" type="curve" smooth="yes"/>
      <point x="191" y="556"/>
      <point x="144" y="417"/>
      <point x="144" y="301" type="curve" smooth="yes"/>
      <point x="144" y="188"/>
      <point x="194" y="44"/>
      <point x="328" y="44" type="curve" smooth="yes"/>
      <point x="430" y="44"/>
      <point x="468" y="112"/>
      <point x="468" y="206" type="curve"/>
      <point x="530" y="206" type="line"/>
      <point x="530" y="78" type="line"/>
      <point x="475" y="25"/>
      <point x="406" y="-11"/>
      <point x="329" y="-12" type="curve"/>
      <point x="326" y="-24" type="line"/>
      <point x="380" y="-23"/>
      <point x="435" y="-49"/>
      <point x="435" y="-110" type="curve" smooth="yes"/>
      <point x="435" y="-179"/>
      <point x="366" y="-206"/>
      <point x="307" y="-206" type="curve" smooth="yes"/>
      <point x="268" y="-206"/>
      <point x="227" y="-197"/>
      <point x="193" y="-178" type="curve"/>
      <point x="193" y="-119" type="line"/>
      <point x="228" y="-135"/>
      <point x="265" y="-150"/>
      <point x="304" y="-150" type="curve" smooth="yes"/>
      <point x="329" y="-150"/>
      <point x="370" y="-141"/>
      <point x="370" y="-110" type="curve" smooth="yes"/>
      <point x="370" y="-83"/>
      <point x="332" y="-80"/>
      <point x="312" y="-80" type="curve" smooth="yes"/>
      <point x="251" y="-86" type="line"/>
      <point x="271" y="-4" type="line"/>
      <point x="176" y="19"/>
      <point x="79" y="109"/>
      <point x="79" y="306" type="curve" smooth="yes"/>
      <point x="79" y="535"/>
      <point x="217" y="612"/>
      <point x="327" y="612" type="curve" smooth="yes"/>
      <point x="374" y="612"/>
      <point x="423" y="599"/>
    </contour>
  </outline>
</glyph>
<glyph name="Ecircumflex" format="1">
  <advance width="600"/>
  <unicode hex="00CA"/>
  <outline>
    <contour>
      <point x="372" y="544" type="curve" smooth="yes"/>
      <point x="203" y="544" type="line"/>
      <point x="203" y="355" type="line"/>
      <point x="340" y="355" type="line"/>
      <point x="340" y="439" type="line"/>
      <point x="402" y="439" type="line"/>
      <point x="402" y="205" type="line"/>
      <point x="340" y="205" type="line"/>
      <point x="340" y="299" type="line"/>
      <point x="203" y="299" type="line"/>
      <point x="203" y="56" type="line"/>
      <point x="390" y="56" type="line" smooth="yes"/>
      <point x="466" y="56"/>
      <point x="473" y="65"/>
      <point x="473" y="176" type="curve" smooth="yes"/>
      <point x="473" y="195" type="line"/>
      <point x="535" y="195" type="line"/>
      <point x="535" y="0" type="line"/>
      <point x="41" y="0" type="line"/>
      <point x="41" y="56" type="line"/>
      <point x="141" y="56" type="line"/>
      <point x="141" y="544" type="line"/>
      <point x="41" y="544" type="line"/>
      <point x="41" y="600" type="line"/>
      <point x="516" y="600" type="line"/>
      <point x="516" y="426" type="line"/>
      <point x="454" y="426" type="line"/>
      <point x="454" y="452" type="line" smooth="yes"/>
      <point x="454" y="535"/>
      <point x="451" y="544"/>
    </contour>
    <contour>
      <point x="300" y="749" type="line"/>
      <point x="159" y="653" type="line"/>
      <point x="122" y="690" type="line"/>
      <point x="300" y="844" type="line"/>
      <point x="478" y="690" type="line"/>
      <point x="441" y="653" type="line"/>
    </contour>
  </outline>
</glyph>
<glyph name="Edieresis" format="1">
  <advance width="600"/>
  <unicode hex="00CB"/>
  <outline>
    <contour>
      <point x="372" y="544" type="curve" smooth="yes"/>
      <point x="203" y="544" type="line"/>
      <point x="203" y="355" type="line"/>
      <point x="340" y="355" type="line"/>
      <point x="340" y="439" type="line"/>
      <point x="402" y="439" type="line"/>
      <point x="402" y="205" type="line"/>
      <point x="340" y="205" type="line"/>
      <point x="340" y="299" type="line"/>
      <point x="203" y="299" type="line"/>
      <point x="203" y="56" type="line"/>
      <point x="390" y="56" type="line" smooth="yes"/>
      <point x="466" y="56"/>
      <point x="473" y="65"/>
      <point x="473" y="176" type="curve" smooth="yes"/>
      <point x="473" y="195" type="line"/>
      <point x="535" y="195" type="line"/>
      <point x="535" y="0" type="line"/>
      <point x="41" y="0" type="line"/>
      <point x="41" y="56" type="line"/>
      <point x="141" y="56" type="line"/>
      <point x="141" y="544" type="line"/>
      <point x="41" y="544" type="line"/>
      <point x="41" y="600" type="line"/>
      <point x="516" y="600" type="line"/>
      <point x="516" y="426" type="line"/>
      <point x="454" y="426" type="line"/>
      <point x="454" y="452" type="line" smooth="yes"/>
      <point x="454" y="535"/>
      <point x="451" y="544"/>
    </contour>
    <contour>
      <point x="134" y="748" type="curve" smooth="yes"/>
      <point x="134" y="781"/>
      <point x="162" y="806"/>
      <point x="194" y="806" type="curve" smooth="yes"/>
      <point x="226" y="806"/>
      <point x="254" y="781"/>
      <point x="254" y="748" type="curve" smooth="yes"/>
      <point x="254" y="715"/>
      <point x="226" y="690"/>
      <point x="194" y="690" type="curve" smooth="yes"/>
      <point x="162" y="690"/>
      <point x="134" y="715"/>
    </contour>
    <contour>
      <point x="346" y="748" type="curve" smooth="yes"/>
      <point x="346" y="781"/>
      <point x="374" y="806"/>
      <point x="406" y="806" type="curve" smooth="yes"/>
      <point x="438" y="806"/>
      <point x="466" y="781"/>
      <point x="466" y="748" type="curve" smooth="yes"/>
      <point x="466" y="715"/>
      <point x="438" y="690"/>
      <point x="406" y="690" type="curve" smooth="yes"/>
      <point x="374" y="690"/>
      <point x="346" y="715"/>
    </contour>
  </outline>
</glyph>
<glyph name="Igrave" format="1">
  <advance width="600"/>
  <unicode hex="00CC"/>
  <outline>
    <contour>
      <point x="109" y="600" type="line"/>
      <point x="491" y="600" type="line"/>
      <point x="491" y="544" type="line"/>
      <point x="331" y="544" type="line"/>
      <point x="331" y="56" type="line"/>
      <point x="491" y="56" type="line"/>
      <point x="491" y="0" type="line"/>
      <point x="109" y="0" type="line"/>
      <point x="109" y="56" type="line"/>
      <point x="269" y="56" type="line"/>
      <point x="269" y="544" type="line"/>
      <point x="109" y="544" type="line"/>
    </contour>
    <contour>
      <point x="194" y="846" type="line"/>
      <point x="382" y="695" type="line"/>
      <point x="346" y="651" type="line"/>
      <point x="143" y="785" type="line"/>
    </contour>
  </outline>
</glyph>
<glyph name="Idieresis" format="1">
  <advance width="600"/>
  <unicode hex="00CF"/>
  <outline>
    <contour>
      <point x="109" y="600" type="line"/>
      <point x="491" y="600" type="line"/>
      <point x="491" y="544" type="line"/>
      <point x="331" y="544" type="line"/>
      <point x="331" y="56" type="line"/>
      <point x="491" y="56" type="line"/>
      <point x="491" y="0" type="line"/>
      <point x="109" y="0" type="line"/>
      <point x="109" y="56" type="line"/>
      <point x="269" y="56" type="line"/>
      <point x="269" y="544" type="line"/>
      <point x="109" y="544" type="line"/>
    </contour>
    <contour>
      <point x="134" y="748" type="curve" smooth="yes"/>
      <point x="134" y="781"/>
      <point x="162" y="806"/>
      <point x="194" y="806" type="curve" smooth="yes"/>
      <point x="226" y="806"/>
      <point x="254" y="781"/>
      <point x="254" y="748" type="curve" smooth="yes"/>
      <point x="254" y="715"/>
      <point x="226" y="690"/>
      <point x="194" y="690" type="curve" smooth="yes"/>
      <point x="162" y="690"/>
      <point x="134" y="715"/>
    </contour>
    <contour>
      <point x="346" y="748" type="curve" smooth="yes"/>
      <point x="346" y="781"/>
      <point x="374" y="806"/>
      <point x="406" y="806" type="curve" smooth="yes"/>
      <point x="438" y="806"/>
      <point x="466" y="781"/>
      <point x="466" y="748" type="curve" smooth="yes"/>
      <point x="466" y="715"/>
      <point x="438" y="690"/>
      <point x="406" y="690" type="curve" smooth="yes"/>
      <point x="374" y="690"/>
      <point x="346" y="715"/>
    </contour>
  </outline>
</glyph>
<glyph name="Eth" format="1">
  <advance width="600"/>
  <unicode hex="00D0"/>
  <outline>
    <contour>
      <point x="206" y="536" type="line"/>
      <point x="206" y="346" type="line"/>
      <point x="302" y="346" type="line"/>
      <point x="302" y="290" type="line"/>
      <point x="206" y="290" type="line"/>
      <point x="206" y="56" type="line"/>
      <point x="306" y="56" type="line" smooth="yes"/>
      <point x="414" y="56"/>
      <point x="487" y="116"/>
      <point x="487" y="284" type="curve" smooth="yes"/>
      <point x="487" y="484"/>
      <point x="366" y="554"/>
      <point x="278" y="544" type="curve" smooth="yes"/>
    </contour>
    <contour>
      <point x="174" y="4" type="curve" smooth="yes"/>
      <point x="71" y="-8" type="line"/>
      <point x="62" y="48" type="line"/>
      <point x="144" y="56" type="line"/>
      <point x="144" y="290" type="line"/>
      <point x="62" y="290" type="line"/>
      <point x="62" y="346" type="line"/>
      <point x="144" y="346" type="line"/>
      <point x="144" y="536" type="line"/>
      <point x="65" y="553" type="line"/>
      <point x="67" y="600" type="line"/>
      <point x="99" y="596"/>
      <point x="130" y="588"/>
      <point x="162" y="588" type="curve" smooth="yes"/>
      <point x="201" y="588"/>
      <point x="239" y="600"/>
      <point x="285" y="600" type="curve" smooth="yes"/>
      <point x="430" y="600"/>
      <point x="552" y="506"/>
      <point x="552" y="296" type="curve" smooth="yes"/>
      <point x="552" y="76"/>
      <point x="442" y="0"/>
      <point x="308" y="0" type="curve" smooth="yes"/>
      <point x="263" y="0"/>
      <point x="218" y="9"/>
    </contour>
  </outline>
</glyph>
<glyph name="Ntilde" format="1">
  <advance width="600"/>
  <unicode hex="00D1"/>
  <outline>
    <contour>
      <point x="26" y="600" type="line"/>
      <point x="169" y="600" type="line"/>
      <point x="446" y="115" type="line"/>
      <point x="448" y="115" type="line"/>
      <point x="448" y="544" type="line"/>
      <point x="354" y="544" type="line"/>
      <point x="354" y="600" type="line"/>
      <point x="573" y="600" type="line"/>
      <point x="573" y="544" type="line"/>
      <point x="510" y="544" type="line"/>
      <point x="510" y="0" type="line"/>
      <point x="446" y="0" type="line"/>
      <point x="162" y="491" type="line"/>
      <point x="162" y="56" type="line"/>
      <point x="254" y="56" type="line"/>
      <point x="254" y="0" type="line"/>
      <point x="26" y="0" type="line"/>
      <point x="26" y="56" type="line"/>
      <point x="100" y="56" type="line"/>
      <point x="100" y="544" type="line"/>
      <point x="26" y="544" type="line"/>
    </contour>
    <contour>
      <point x="204" y="692" type="curve"/>
      <point x="140" y="692" type="line"/>
      <point x="138" y="722"/>
      <point x="143" y="751"/>
      <point x="157" y="773" type="curve" smooth="yes"/>
      <point x="171" y="795"/>
      <point x="194" y="809"/>
      <point x="228" y="809" type="curve" smooth="yes"/>
      <point x="257" y="809"/>
      <point x="284" y="796"/>
      <point x="308" y="782" type="curve" smooth="yes"/>
      <point x="332" y="768"/>
      <point x="353" y="754"/>
      <point x="368" y="754" type="curve" smooth="yes"/>
      <point x="396" y="754"/>
      <point x="394" y="793"/>
      <point x="396" y="812" type="curve"/>
      <point x="460" y="812" type="line"/>
      <point x="463" y="782"/>
      <point x="457" y="753"/>
      <point x="443" y="731" type="curve" smooth="yes"/>
      <point x="429" y="709"/>
      <point x="405" y="695"/>
      <point x="369" y="695" type="curve" smooth="yes"/>
      <point x="340" y="695"/>
      <point x="312" y="711"/>
      <point x="287" y="725" type="curve" smooth="yes"/>
      <point x="273" y="733"/>
      <point x="249" y="749"/>
      <point x="232" y="749" type="curve" smooth="yes"/>
      <point x="203" y="749"/>
      <point x="203" y="712"/>
    </contour>
  </outline>
</glyph>
<glyph name="Ocircumflex" format="1">
  <advance width="600"/>
  <unicode hex="00D4"/>
  <outline>
    <contour>
      <point x="300" y="612" type="curve" smooth="yes"/>
      <point x="466" y="612"/>
      <point x="540" y="452"/>
      <point x="540" y="300" type="curve" smooth="yes"/>
      <point x="540" y="148"/>
      <point x="466" y="-12"/>
      <point x="300" y="-12" type="curve" smooth="yes"/>
      <point x="134" y="-12"/>
      <point x="60" y="148"/>
      <point x="60" y="300" type="curve" smooth="yes"/>
      <point x="60" y="452"/>
      <point x="134" y="612"/>
    </contour>
    <contour>
      <point x="300" y="44" type="curve" smooth="yes"/>
      <point x="429" y="44"/>
      <point x="475" y="186"/>
      <point x="475" y="300" type="curve" smooth="yes"/>
      <point x="475" y="414"/>
      <point x="429" y="556"/>
      <point x="300" y="556" type="curve" smooth="yes"/>
      <point x="171" y="556"/>
      <point x="125" y="414"/>
      <point x="125" y="300" type="curve" smooth="yes"/>
      <point x="125" y="186"/>
      <point x="171" y="44"/>
    </contour>
    <contour>
      <point x="300" y="749" type="line"/>
      <point x="159" y="653" type="line"/>
      <point x="122" y="690" type="line"/>
      <point x="300" y="844" type="line"/>
      <point x="478" y="690" type="line"/>
      <point x="441" y="653" type="line"/>
    </contour>
  </outline>
</glyph>
<glyph name="Otilde" format="1">
  <advance width="600"/>
  <unicode hex="00D5"/>
  <outline>
    <contour>
      <point x="300" y="612" type="curve" smooth="yes"/>
      <point x="466" y="612"/>
      <point x="540" y="452"/>
      <point x="540" y="300" type="curve" smooth="yes"/>
      <point x="540" y="148"/>
      <point x="466" y="-12"/>
      <point x="300" y="-12" type="curve" smooth="yes"/>
      <point x="134" y="-12"/>
      <point x="60" y="148"/>
      <point x="60" y="300" type="curve" smooth="yes"/>
      <point x="60" y="452"/>
      <point x="134" y="612"/>
    </contour>
    <contour>
      <point x="300" y="44" type="curve" smooth="yes"/>
      <point x="429" y="44"/>
      <point x="475" y="186"/>
      <point x="475" y="300" type="curve" smooth="yes"/>
      <point x="475" y="414"/>
      <point x="429" y="556"/>
      <point x="300" y="556" type="curve" smooth="yes"/>
      <point x="171" y="556"/>
      <point x="125" y="414"/>
      <point x="125" y="300" type="curve" smooth="yes"/>
      <point x="125" y="186"/>
      <point x="171" y="44"/>
    </contour>
    <contour>
      <point x="204" y="692" type="curve"/>
      <point x="140" y="692" type="line"/>
      <point x="138" y="722"/>
      <point x="143" y="751"/>
      <point x="157" y="773" type="curve" smooth="yes"/>
      <point x="171" y="795"/>
      <point x="194" y="809"/>
      <point x="228" y="809" type="curve" smooth="yes"/>
      <point x="257" y="809"/>
      <point x="284" y="796"/>
      <point x="308" y="782" type="curve" smooth="yes"/>
      <point x="332" y="768"/>
      <point x="353" y="754"/>
      <point x="368" y="754" type="curve" smooth="yes"/>
      <point x="396" y="754"/>
      <point x="394" y="793"/>
      <point x="396" y="812" type="curve"/>
      <point x="460" y="812" type="line"/>
      <point x="463" y="782"/>
      <point x="457" y="753"/>
      <point x="443" y="731" type="curve" smooth="yes"/>
      <point x="429" y="709"/>
      <point x="405" y="695"/>
      <point x="369" y="695" type="curve" smooth="yes"/>
      <point x="340" y="695"/>
      <point x="312" y="711"/>
      <point x="287" y="725" type="curve" smooth="yes"/>
      <point x="273" y="733"/>
      <point x="249" y="749"/>
      <point x="232" y="749" type="curve" smooth="yes"/>
      <point x="203" y="749"/>
      <point x="203" y="712"/>
    </contour>
  </outline>
</glyph>
<glyph name="Odieresis" format="1">
  <advance width="600"/>
  <unicode hex="00D6"/>
  <outline>
    <contour>
      <point x="300" y="612" type="curve" smooth="yes"/>
      <point x="466" y="612"/>
      <point x="540" y="452"/>
      <point x="540" y="300" type="curve" smooth="yes"/>
      <point x="540" y="148"/>
      <point x="466" y="-12"/>
      <point x="300" y="-12" type="curve" smooth="yes"/>
      <point x="134" y="-12"/>
      <point x="60" y="148"/>
      <point x="60" y="300" type="curve" smooth="yes"/>
      <point x="60" y="452"/>
      <point x="134" y="612"/>
    </contour>
    <contour>
      <point x="300" y="44" type="curve" smooth="yes"/>
      <point x="429" y="44"/>
      <point x="475" y="186"/>
      <point x="475" y="300" type="curve" smooth="yes"/>
      <point x="475" y="414"/>
      <point x="429" y="556"/>
      <point x="300" y="556" type="curve" smooth="yes"/>
      <point x="171" y="556"/>
      <point x="125" y="414"/>
      <point x="125" y="300" type="curve" smooth="yes"/>
      <point x="125" y="186"/>
      <point x="171" y="44"/>
    </contour>
    <contour>
      <point x="134" y="748" type="curve" smooth="yes"/>
      <point x="134" y="781"/>
      <point x="162" y="806"/>
      <point x="194" y="806" type="curve" smooth="yes"/>
      <point x="226" y="806"/>
      <point x="254" y="781"/>
      <point x="254" y="748" type="curve" smooth="yes"/>
      <point x="254" y="715"/>
      <point x="226" y="690"/>
      <point x="194" y="690" type="curve" smooth="yes"/>
      <point x="162" y="690"/>
      <point x="134" y="715"/>
    </contour>
    <contour>
      <point x="346" y="748" type="curve" smooth="yes"/>
      <point x="346" y="781"/>
      <point x="374" y="806"/>
      <point x="406" y="806" type="curve" smooth="yes"/>
      <point x="438" y="806"/>
      <point x="466" y="781"/>
      <point x="466" y="748" type="curve" smooth="yes"/>
      <point x="466" y="715"/>
      <point x="438" y="690"/>
      <point x="406" y="690" type="curve" smooth="yes"/>
      <point x="374" y="690"/>
      <point x="346" y="715"/>
    </contour>
  </outline>
</glyph>
<glyph name="multiply" format="1">
  <advance width="600"/>
  <unicode hex="00D7"/>
  <outline>
    <contour>
      <point x="300" y="312" type="line"/>
      <point x="73" y="84" type="line"/>
      <point x="25" y="132" type="line"/>
      <point x="253" y="360" type="line"/>
      <point x="25" y="588" type="line"/>
      <point x="73" y="636" type="line"/>
      <point x="300" y="408" type="line"/>
      <point x="527" y="636" type="line"/>
      <point x="575" y="588" type="line"/>
      <point x="347" y="360" type="line"/>
      <point x="575" y="132" type="line"/>
      <point x="527" y="84" type="line"/>
    </contour>
  </outline>
</glyph>
<glyph name="Oslash" format="1">
  <advance width="600"/>
  <unicode hex="00D8"/>
  <outline>
    <contour>
      <point x="166" y="34" type="curve"/>
      <point x="129" y="-25" type="line"/>
      <point x="79" y="7" type="line"/>
      <point x="124" y="77" type="line"/>
      <point x="75" y="148"/>
      <point x="60" y="226"/>
      <point x="60" y="300" type="curve" smooth="yes"/>
      <point x="60" y="452"/>
      <point x="134" y="612"/>
      <point x="300" y="612" type="curve" smooth="yes"/>
      <point x="349" y="612"/>
      <point x="395" y="597"/>
      <point x="433" y="566" type="curve"/>
      <point x="468" y="621" type="line"/>
      <point x="518" y="589" type="line"/>
      <point x="476" y="523" type="line"/>
      <point x="525" y="452"/>
      <point x="540" y="386"/>
      <point x="540" y="300" type="curve" smooth="yes"/>
      <point x="540" y="148"/>
      <point x="466" y="-12"/>
      <point x="300" y="-12" type="curve" smooth="yes"/>
      <point x="251" y="-12"/>
      <point x="205" y="3"/>
    </contour>
    <contour>
      <point x="440" y="466" type="curve"/>
      <point x="198" y="85" type="line"/>
      <point x="226" y="58"/>
      <point x="261" y="44"/>
      <point x="300" y="44" type="curve" smooth="yes"/>
      <point x="429" y="44"/>
      <point x="475" y="186"/>
      <point x="475" y="300" type="curve" smooth="yes"/>
      <point x="475" y="357"/>
      <point x="463" y="420"/>
    </contour>
    <contour>
      <point x="160" y="134" type="curve"/>
      <point x="402" y="516" type="line"/>
      <point x="373" y="542"/>
      <point x="339" y="556"/>
      <point x="300" y="556" type="curve" smooth="yes"/>
      <point x="171" y="556"/>
      <point x="126" y="414"/>
      <point x="125" y="300" type="curve" smooth="yes"/>
      <point x="125" y="243"/>
      <point x="134" y="185"/>
    </contour>
  </outline>
</glyph>
<glyph name="Uacute" format="1">
  <advance width="600"/>
  <unicode hex="00DA"/>
  <outline>
    <contour>
      <point x="353" y="600" type="line"/>
      <point x="556" y="600" type="line"/>
      <point x="556" y="544" type="line"/>
      <point x="489" y="544" type="line"/>
      <point x="489" y="175" type="line" smooth="yes"/>
      <point x="489" y="45"/>
      <point x="425" y="-12"/>
      <point x="300" y="-12" type="curve" smooth="yes"/>
      <point x="175" y="-12"/>
      <point x="111" y="45"/>
      <point x="111" y="175" type="curve" smooth="yes"/>
      <point x="111" y="544" type="line"/>
      <point x="44" y="544" type="line"/>
      <point x="44" y="600" type="line"/>
      <point x="247" y="600" type="line"/>
      <point x="247" y="544" type="line"/>
      <point x="173" y="544" type="line"/>
      <point x="173" y="184" type="line" smooth="yes"/>
      <point x="173" y="76"/>
      <point x="218" y="44"/>
      <point x="300" y="44" type="curve" smooth="yes"/>
      <point x="382" y="44"/>
      <point x="427" y="76"/>
      <point x="427" y="184" type="curve" smooth="yes"/>
      <point x="427" y="544" type="line"/>
      <point x="353" y="544" type="line"/>
    </contour>
    <contour>
      <point x="406" y="846" type="line"/>
      <point x="457" y="785" type="line"/>
      <point x="255" y="651" type="line"/>
      <point x="218" y="695" type="line"/>
    </contour>
  </outline>
</glyph>
<glyph name="Udieresis" format="1">
  <advance width="600"/>
  <unicode hex="00DC"/>
  <outline>
    <contour>
      <point x="353" y="600" type="line"/>
      <point x="556" y="600" type="line"/>
      <point x="556" y="544" type="line"/>
      <point x="489" y="544" type="line"/>
      <point x="489" y="175" type="line" smooth="yes"/>
      <point x="489" y="45"/>
      <point x="425" y="-12"/>
      <point x="300" y="-12" type="curve" smooth="yes"/>
      <point x="175" y="-12"/>
      <point x="111" y="45"/>
      <point x="111" y="175" type="curve" smooth="yes"/>
      <point x="111" y="544" type="line"/>
      <point x="44" y="544" type="line"/>
      <point x="44" y="600" type="line"/>
      <point x="247" y="600" type="line"/>
      <point x="247" y="544" type="line"/>
      <point x="173" y="544" type="line"/>
      <point x="173" y="184" type="line" smooth="yes"/>
      <point x="173" y="76"/>
      <point x="218" y="44"/>
      <point x="300" y="44" type="curve" smooth="yes"/>
      <point x="382" y="44"/>
      <point x="427" y="76"/>
      <point x="427" y="184" type="curve" smooth="yes"/>
      <point x="427" y="544" type="line"/>
      <point x="353" y="544" type="line"/>
    </contour>
    <contour>
      <point x="134" y="748" type="curve" smooth="yes"/>
      <point x="134" y="781"/>
      <point x="162" y="806"/>
      <point x="194" y="806" type="curve" smooth="yes"/>
      <point x="226" y="806"/>
      <point x="254" y="781"/>
      <point x="254" y="748" type="curve" smooth="yes"/>
      <point x="254" y="715"/>
      <point x="226" y="690"/>
      <point x="194" y="690" type="curve" smooth="yes"/>
      <point x="162" y="690"/>
      <point x="134" y="715"/>
    </contour>
    <contour>
      <point x="346" y="748" type="curve" smooth="yes"/>
      <point x="346" y="781"/>
      <point x="374" y="806"/>
      <point x="406" y="806" type="curve" smooth="yes"/>
      <point x="438" y="806"/>
      <point x="466" y="781"/>
      <point x="466" y="748" type="curve" smooth="yes"/>
      <point x="466" y="715"/>
      <point x="438" y="690"/>
      <point x="406" y="690" type="curve" smooth="yes"/>
      <point x="374" y="690"/>
      <point x="346" y="715"/>
    </contour>
  </outline>
</glyph>
<glyph name="Yacute" format="1">
  <advance width="600"/>
  <unicode hex="00DD"/>
  <outline>
    <contour>
      <point x="31" y="600" type="line"/>
      <point x="243" y="600" type="line"/>
      <point x="243" y="544" type="line"/>
      <point x="161" y="544" type="line"/>
      <point x="300" y="318" type="line"/>
      <point x="439" y="544" type="line"/>
      <point x="357" y="544" type="line"/>
      <point x="357" y="600" type="line"/>
      <point x="569" y="600" type="line"/>
      <point x="569" y="544" type="line"/>
      <point x="507" y="544" type="line"/>
      <point x="331" y="260" type="line"/>
      <point x="331" y="56" type="line"/>
      <point x="462" y="56" type="line"/>
      <point x="462" y="0" type="line"/>
      <point x="138" y="0" type="line"/>
      <point x="138" y="56" type="line"/>
      <point x="269" y="56" type="line"/>
      <point x="269" y="260" type="line"/>
      <point x="93" y="544" type="line"/>
      <point x="31" y="544" type="line"/>
    </contour>
    <contour>
      <point x="406" y="846" type="line"/>
      <point x="457" y="785" type="line"/>
      <point x="255" y="651" type="line"/>
      <point x="218" y="695" type="line"/>
    </contour>
  </outline>
</glyph>
<glyph name="Thorn" format="1">
  <advance width="600"/>
  <unicode hex="00DE"/>
  <outline>
    <contour>
      <point x="72" y="544" type="line"/>
      <point x="72" y="600" type="line"/>
      <point x="299" y="600" type="line"/>
      <point x="299" y="544" type="line"/>
      <point x="217" y="544" type="line"/>
      <point x="217" y="450" type="line"/>
      <point x="347" y="450" type="line" smooth="yes"/>
      <point x="442" y="450"/>
      <point x="523" y="418"/>
      <point x="523" y="338" type="curve" smooth="yes"/>
      <point x="523" y="256"/>
      <point x="448" y="202"/>
      <point x="302" y="202" type="curve" smooth="yes"/>
      <point x="217" y="202" type="line"/>
      <point x="217" y="56" type="line"/>
      <point x="299" y="56" type="line"/>
      <point x="299" y="0" type="line"/>
      <point x="72" y="0" type="line"/>
      <point x="72" y="56" type="line"/>
      <point x="155" y="56" type="line"/>
      <point x="155" y="544" type="line"/>
    </contour>
    <contour>
      <point x="217" y="404" type="line"/>
      <point x="217" y="248" type="line"/>
      <point x="300" y="248" type="line" smooth="yes"/>
      <point x="407" y="248"/>
      <point x="458" y="279"/>
      <point x="458" y="336" type="curve" smooth="yes"/>
      <point x="458" y="387"/>
      <point x="405" y="404"/>
      <point x="335" y="404" type="curve" smooth="yes"/>
    </contour>
  </outline>
</glyph>
<glyph name="germandbls" format="1">
  <advance width="600"/>
  <unicode hex="00DF"/>
  <outline>
    <contour>
      <point x="276" y="292" type="curve"/>
      <point x="276" y="351" type="line"/>
      <point x="346" y="352"/>
      <point x="419" y="360"/>
      <point x="419" y="448" type="curve" smooth="yes"/>
      <point x="419" y="518"/>
      <point x="376" y="556"/>
      <point x="307" y="556" type="curve" smooth="yes"/>
      <point x="190" y="556"/>
      <point x="199" y="450"/>
      <point x="199" y="364" type="curve" smooth="yes"/>
      <point x="199" y="0" type="line"/>
      <point x="58" y="0" type="line"/>
      <point x="58" y="56" type="line"/>
      <point x="137" y="56" type="line"/>
      <point x="137" y="404" type="line" smooth="yes"/>
      <point x="137" y="573"/>
      <point x="217" y="612"/>
      <point x="307" y="612" type="curve" smooth="yes"/>
      <point x="401" y="612"/>
      <point x="484" y="556"/>
      <point x="484" y="455" type="curve" smooth="yes"/>
      <point x="484" y="389"/>
      <point x="465" y="362"/>
      <point x="413" y="326" type="curve"/>
      <point x="482" y="303"/>
      <point x="521" y="235"/>
      <point x="521" y="165" type="curve" smooth="yes"/>
      <point x="521" y="68"/>
      <point x="459" y="-12"/>
      <point x="358" y="-12" type="curve" smooth="yes"/>
      <point x="275" y="-12"/>
      <point x="230" y="42"/>
      <point x="230" y="123" type="curve" smooth="yes"/>
      <point x="230" y="145" type="line"/>
      <point x="289" y="145" type="line"/>
      <point x="289" y="125" type="line" smooth="yes"/>
      <point x="289" y="78"/>
      <point x="307" y="44"/>
      <point x="360" y="44" type="curve" smooth="yes"/>
      <point x="423" y="44"/>
      <point x="456" y="102"/>
      <point x="456" y="160" type="curve" smooth="yes"/>
      <point x="456" y="272"/>
      <point x="369" y="291"/>
    </contour>
  </outline>
</glyph>
<glyph name="agrave" format="1">
  <advance width="600"/>
  <unicode hex="00E0"/>
  <outline>
    <contour>
      <point x="395" y="0" type="line"/>
      <point x="395" y="30" type="line"/>
      <point x="335" y="5"/>
      <point x="277" y="-12"/>
      <point x="213" y="-12" type="curve" smooth="yes"/>
      <point x="140" y="-12"/>
      <point x="73" y="22"/>
      <point x="73" y="103" type="curve" smooth="yes"/>
      <point x="73" y="185"/>
      <point x="136" y="214"/>
      <point x="205" y="230" type="curve" smooth="yes"/>
      <point x="267" y="245"/>
      <point x="328" y="248"/>
      <point x="395" y="250" type="curve"/>
      <point x="395" y="276" type="line" smooth="yes"/>
      <point x="395" y="333"/>
      <point x="404" y="370"/>
      <point x="328" y="370" type="curve" smooth="yes"/>
      <point x="278" y="370"/>
      <point x="228" y="359"/>
      <point x="186" y="331" type="curve"/>
      <point x="186" y="272" type="line"/>
      <point x="124" y="272" type="line"/>
      <point x="124" y="368" type="line"/>
      <point x="182" y="403"/>
      <point x="254" y="426"/>
      <point x="319" y="426" type="curve" smooth="yes"/>
      <point x="421" y="426"/>
      <point x="457" y="399"/>
      <point x="457" y="301" type="curve" smooth="yes"/>
      <point x="457" y="56" type="line"/>
      <point x="540" y="56" type="line"/>
      <point x="540" y="0" type="line"/>
    </contour>
    <contour>
      <point x="395" y="93" type="curve"/>
      <point x="395" y="197" type="line"/>
      <point x="338" y="195"/>
      <point x="276" y="190"/>
      <point x="222" y="177" type="curve" smooth="yes"/>
      <point x="181" y="167"/>
      <point x="138" y="153"/>
      <point x="138" y="103" type="curve" smooth="yes"/>
      <point x="138" y="56"/>
      <point x="176" y="44"/>
      <point x="216" y="44" type="curve" smooth="yes"/>
      <point x="278" y="44"/>
      <point x="339" y="67"/>
    </contour>
    <contour>
      <point x="194" y="660" type="line"/>
      <point x="382" y="509" type="line"/>
      <point x="346" y="465" type="line"/>
      <point x="143" y="599" type="line"/>
    </contour>
  </outline>
</glyph>
<glyph name="adieresis" format="1">
  <advance width="600"/>
  <unicode hex="00E4"/>
  <outline>
    <contour>
      <point x="395" y="0" type="line"/>
      <point x="395" y="30" type="line"/>
      <point x="335" y="5"/>
      <point x="277" y="-12"/>
      <point x="213" y="-12" type="curve" smooth="yes"/>
      <point x="140" y="-12"/>
      <point x="73" y="22"/>
      <point x="73" y="103" type="curve" smooth="yes"/>
      <point x="73" y="185"/>
      <point x="136" y="214"/>
      <point x="205" y="230" type="curve" smooth="yes"/>
      <point x="267" y="245"/>
      <point x="328" y="248"/>
      <point x="395" y="250" type="curve"/>
      <point x="395" y="276" type="line" smooth="yes"/>
      <point x="395" y="333"/>
      <point x="404" y="370"/>
      <point x="328" y="370" type="curve" smooth="yes"/>
      <point x="278" y="370"/>
      <point x="228" y="359"/>
      <point x="186" y="331" type="curve"/>
      <point x="186" y="272" type="line"/>
      <point x="124" y="272" type="line"/>
      <point x="124" y="368" type="line"/>
      <point x="182" y="403"/>
      <point x="254" y="426"/>
      <point x="319" y="426" type="curve" smooth="yes"/>
      <point x="421" y="426"/>
      <point x="457" y="399"/>
      <point x="457" y="301" type="curve" smooth="yes"/>
      <point x="457" y="56" type="line"/>
      <point x="540" y="56" type="line"/>
      <point x="540" y="0" type="line"/>
    </contour>
    <contour>
      <point x="395" y="93" type="curve"/>
      <point x="395" y="197" type="line"/>
      <point x="338" y="195"/>
      <point x="276" y="190"/>
      <point x="222" y="177" type="curve" smooth="yes"/>
      <point x="181" y="167"/>
      <point x="138" y="153"/>
      <point x="138" y="103" type="curve" smooth="yes"/>
      <point x="138" y="56"/>
      <point x="176" y="44"/>
      <point x="216" y="44" type="curve" smooth="yes"/>
      <point x="278" y="44"/>
      <point x="339" y="67"/>
    </contour>
    <contour>
      <point x="134" y="562" type="curve" smooth="yes"/>
      <point x="134" y="595"/>
      <point x="162" y="620"/>
      <point x="194" y="620" type="curve" smooth="yes"/>
      <point x="226" y="620"/>
      <point x="254" y="595"/>
      <point x="254" y="562" type="curve" smooth="yes"/>
      <point x="254" y="529"/>
      <point x="226" y="504"/>
      <point x="194" y="504" type="curve" smooth="yes"/>
      <point x="162" y="504"/>
      <point x="134" y="529"/>
    </contour>
    <contour>
      <point x="346" y="562" type="curve" smooth="yes"/>
      <point x="346" y="595"/>
      <point x="374" y="620"/>
      <point x="406" y="620" type="curve" smooth="yes"/>
      <point x="438" y="620"/>
      <point x="466" y="595"/>
      <point x="466" y="562" type="curve" smooth="yes"/>
      <point x="466" y="529"/>
      <point x="438" y="504"/>
      <point x="406" y="504" type="curve" smooth="yes"/>
      <point x="374" y="504"/>
      <point x="346" y="529"/>
    </contour>
  </outline>
</glyph>
<glyph name="ae" format="1">
  <advance width="600"/>
  <unicode hex="00E6"/>
  <outline>
    <contour>
      <point x="347" y="239" type="line"/>
      <point x="513" y="239" type="line"/>
      <point x="513" y="305"/>
      <point x="488" y="370"/>
      <point x="416" y="370" type="curve" smooth="yes"/>
      <point x="355" y="370"/>
      <point x="347" y="331"/>
      <point x="347" y="261" type="curve" smooth="yes"/>
    </contour>
    <contour>
      <point x="285" y="183" type="line"/>
      <point x="230" y="183" type="line" smooth="yes"/>
      <point x="136" y="183"/>
      <point x="98" y="164"/>
      <point x="98" y="113" type="curve" smooth="yes"/>
      <point x="98" y="66"/>
      <point x="141" y="44"/>
      <point x="184" y="44" type="curve" smooth="yes"/>
      <point x="223" y="44"/>
      <point x="257" y="59"/>
      <point x="285" y="85" type="curve"/>
    </contour>
    <contour>
      <point x="573" y="235" type="curve" smooth="yes"/>
      <point x="569" y="183" type="line"/>
      <point x="347" y="183" type="line"/>
      <point x="347" y="144" type="line" smooth="yes"/>
      <point x="347" y="73"/>
      <point x="355" y="44"/>
      <point x="423" y="44" type="curve" smooth="yes"/>
      <point x="474" y="44"/>
      <point x="516" y="73"/>
      <point x="553" y="105" type="curve"/>
      <point x="587" y="59" type="line"/>
      <point x="538" y="19"/>
      <point x="481" y="-12"/>
      <point x="415" y="-12" type="curve" smooth="yes"/>
      <point x="378" y="-12"/>
      <point x="336" y="2"/>
      <point x="312" y="32" type="curve"/>
      <point x="274" y="3"/>
      <point x="230" y="-12"/>
      <point x="183" y="-12" type="curve" smooth="yes"/>
      <point x="122" y="-12"/>
      <point x="33" y="21"/>
      <point x="33" y="110" type="curve" smooth="yes"/>
      <point x="33" y="170"/>
      <point x="68" y="239"/>
      <point x="220" y="239" type="curve" smooth="yes"/>
      <point x="285" y="239" type="line"/>
      <point x="285" y="273" type="line" smooth="yes"/>
      <point x="285" y="338"/>
      <point x="270" y="370"/>
      <point x="219" y="370" type="curve" smooth="yes"/>
      <point x="189" y="370"/>
      <point x="154" y="356"/>
      <point x="127" y="342" type="curve"/>
      <point x="127" y="281" type="line"/>
      <point x="65" y="281" type="line"/>
      <point x="65" y="379" type="line"/>
      <point x="110" y="400"/>
      <point x="170" y="426"/>
      <point x="220" y="426" type="curve" smooth="yes"/>
      <point x="260" y="426"/>
      <point x="292" y="412"/>
      <point x="316" y="382" type="curve"/>
      <point x="341" y="414"/>
      <point x="380" y="426"/>
      <point x="420" y="426" type="curve" smooth="yes"/>
      <point x="517" y="426"/>
      <point x="581" y="345"/>
    </contour>
  </outline>
</glyph>
<glyph name="ccedilla" format="1">
  <advance width="600"/>
  <unicode hex="00E7"/>
  <outline>
    <contour>
      <point x="487" y="88" type="curve"/>
      <point x="509" y="37" type="line"/>
      <point x="453" y="7"/>
      <point x="382" y="-11"/>
      <point x="319" y="-12" type="curve"/>
      <point x="316" y="-24" type="line"/>
      <point x="370" y="-23"/>
      <point x="425" y="-49"/>
      <point x="425" y="-110" type="curve" smooth="yes"/>
      <point x="425" y="-179"/>
      <point x="356" y="-206"/>
      <point x="297" y="-206" type="curve" smooth="yes"/>
      <point x="258" y="-206"/>
      <point x="217" y="-197"/>
      <point x="183" y="-178" type="curve"/>
      <point x="183" y="-119" type="line"/>
      <point x="218" y="-135"/>
      <point x="255" y="-150"/>
      <point x="294" y="-150" type="curve" smooth="yes"/>
      <point x="319" y="-150"/>
      <point x="360" y="-141"/>
      <point x="360" y="-110" type="curve" smooth="yes"/>
      <point x="360" y="-83"/>
      <point x="322" y="-80"/>
      <point x="302" y="-80" type="curve" smooth="yes"/>
      <point x="241" y="-86" type="line"/>
      <point x="261" y="-6" type="line"/>
      <point x="160" y="14"/>
      <point x="86" y="91"/>
      <point x="86" y="203" type="curve" smooth="yes"/>
      <point x="86" y="335"/>
      <point x="185" y="426"/>
      <point x="315" y="426" type="curve" smooth="yes"/>
      <point x="370" y="426"/>
      <point x="440" y="409"/>
      <point x="468" y="356" type="curve"/>
      <point x="466" y="306" type="line"/>
      <point x="469" y="255" type="line"/>
      <point x="405" y="255" type="line"/>
      <point x="406" y="283" type="line" smooth="yes"/>
      <point x="408" y="348"/>
      <point x="373" y="370"/>
      <point x="310" y="370" type="curve" smooth="yes"/>
      <point x="217" y="370"/>
      <point x="151" y="303"/>
      <point x="151" y="210" type="curve" smooth="yes"/>
      <point x="151" y="111"/>
      <point x="218" y="44"/>
      <point x="317" y="44" type="curve" smooth="yes"/>
      <point x="374" y="44"/>
      <point x="436" y="62"/>
    </contour>
  </outline>
</glyph>
<glyph name="edieresis" format="1">
  <advance width="600"/>
  <unicode hex="00EB"/>
  <outline>
    <contour>
      <point x="510" y="183" type="curve"/>
      <point x="152" y="183" type="line"/>
      <point x="158" y="96"/>
      <point x="226" y="44"/>
      <point x="333" y="44" type="curve" smooth="yes"/>
      <point x="396" y="44"/>
      <point x="456" y="64"/>
      <point x="518" y="91" type="curve"/>
      <point x="536" y="40" type="line"/>
      <point x="473" y="9"/>
      <point x="395" y="-12"/>
      <point x="325" y="-12" type="curve" smooth="yes"/>
      <point x="144" y="-12"/>
      <point x="87" y="108"/>
      <point x="87" y="198" type="curve" smooth="yes"/>
      <point x="87" y="326"/>
      <point x="181" y="426"/>
      <point x="310" y="426" type="curve" smooth="yes"/>
      <point x="433" y="426"/>
      <point x="514" y="349"/>
      <point x="514" y="225" type="curve" smooth="yes"/>
      <point x="514" y="211"/>
      <point x="513" y="197"/>
    </contour>
    <contour>
      <point x="152" y="239" type="curve"/>
      <point x="451" y="239" type="line"/>
      <point x="451" y="317"/>
      <point x="386" y="370"/>
      <point x="311" y="370" type="curve" smooth="yes"/>
      <point x="235" y="370"/>
      <point x="167" y="314"/>
    </contour>
    <contour>
      <point x="134" y="562" type="curve" smooth="yes"/>
      <point x="134" y="595"/>
      <point x="162" y="620"/>
      <point x="194" y="620" type="curve" smooth="yes"/>
      <point x="226" y="620"/>
      <point x="254" y="595"/>
      <point x="254" y="562" type="curve" smooth="yes"/>
      <point x="254" y="529"/>
      <point x="226" y="504"/>
      <point x="194" y="504" type="curve" smooth="yes"/>
      <point x="162" y="504"/>
      <point x="134" y="529"/>
    </contour>
    <contour>
      <point x="346" y="562" type="curve" smooth="yes"/>
      <point x="346" y="595"/>
      <point x="374" y="620"/>
      <point x="406" y="620" type="curve" smooth="yes"/>
      <point x="438" y="620"/>
      <point x="466" y="595"/>
      <point x="466" y="562" type="curve" smooth="yes"/>
      <point x="466" y="529"/>
      <point x="438" y="504"/>
      <point x="406" y="504" type="curve" smooth="yes"/>
      <point x="374" y="504"/>
      <point x="346" y="529"/>
    </contour>
  </outline>
</glyph>
